<svg width="249" height="65" viewBox="0 0 249 65" fill="none" xmlns="http://www.w3.org/2000/svg">
<path d="M60.3344 31.6741V30.8712H60.3193C59.82 14.6671 46.673 1.68237 30.5228 1.68237C14.0625 1.68237 0.71875 15.1718 0.71875 31.8118C0.71875 48.4518 14.0625 61.9488 30.5228 61.9488C37.8074 61.9488 44.4793 59.303 49.6609 54.9135V61.9412H60.3344V31.8883C60.3344 31.8577 60.3344 31.8347 60.3344 31.8041C60.3344 31.7659 60.3344 31.72 60.3344 31.6741ZM30.5228 51.1588C19.9552 51.1588 11.3922 42.4947 11.3922 31.8118C11.3922 21.1288 19.9628 12.4724 30.5228 12.4724C41.0677 12.4724 49.6231 21.0983 49.6609 31.743V31.8806C49.6231 42.533 41.0677 51.1588 30.5228 51.1588Z" fill="white"/>
<path d="M124.67 30.8712C124.171 14.6671 111.024 1.68237 94.8734 1.68237C78.4131 1.68237 65.0693 15.1718 65.0693 31.8118C65.0693 48.4518 78.4131 61.9488 94.8734 61.9488C102.158 61.9488 108.83 59.303 114.004 54.9135V61.9488H124.677V30.8712H124.67ZM94.8734 51.1588C84.3058 51.1588 75.7428 42.4947 75.7428 31.8118C75.7428 21.1288 84.3058 12.4724 94.8734 12.4724C105.441 12.4724 114.004 21.1365 114.004 31.8118C114.012 42.5024 105.449 51.1588 94.8734 51.1588Z" fill="white"/>
<path d="M140.631 20.4482H129.421V61.9412H140.631V20.4482Z" fill="white"/>
<path d="M135.034 14.82C138.62 14.82 141.532 11.8835 141.532 8.2512C141.532 4.62649 138.627 1.68237 135.034 1.68237C131.448 1.68237 128.536 4.61884 128.536 8.2512C128.536 11.8759 131.441 14.82 135.034 14.82Z" fill="#FFCC00"/>
<path d="M157.107 19.1636V22.8953H155.503V16.12C155.503 13.5047 157.47 12.09 159.444 12.09C161.411 12.09 163.385 13.5047 163.385 16.12V22.8953H161.781V19.1636H157.107ZM161.781 17.6189V16.12C161.781 14.5141 160.579 13.6347 159.444 13.6347C158.309 13.6347 157.107 14.5141 157.107 16.12V17.6189H161.781Z" fill="white"/>
<path d="M166.191 21.3506H170.253V22.8953H165.782C165.018 22.8953 164.564 22.2377 164.564 21.5877C164.564 21.2742 164.67 20.9453 164.905 20.7083L168.521 17.0071H164.905V15.4624H168.967C169.807 15.4624 170.17 16.0283 170.17 16.6401C170.17 17.0453 170.026 17.4277 169.746 17.7259L166.191 21.3506Z" fill="white"/>
<path d="M172.916 19.913V20.1959C172.916 21.1442 173.619 21.4577 174.383 21.4577C175.072 21.4577 175.737 21.1136 176.252 20.6242L177.046 21.84C176.396 22.5971 175.367 23.0024 174.323 23.0024C172.795 23.0024 171.305 22.1077 171.305 20.28V18.2918C171.305 16.4183 172.523 15.363 174.232 15.363C175.685 15.363 177.235 16.2959 177.235 18.2306C177.235 19.4083 176.532 19.913 175.707 19.913H172.916ZM175.632 18.4218C175.616 17.5271 174.996 16.9077 174.232 16.9077C173.408 16.9077 172.908 17.55 172.908 18.4218H175.632Z" fill="white"/>
<path d="M182.954 17.4735C182.501 17.0759 182.032 16.9077 181.57 16.9077C180.791 16.9077 179.982 17.4735 179.982 18.5441V22.903H178.378V15.47H179.687L179.906 16.3647C180.39 15.7071 181.109 15.3706 181.835 15.3706C182.259 15.3706 182.659 15.4777 183.03 15.6994L182.954 17.4735Z" fill="white"/>
<path d="M185.496 22.8953H184.111V11.4477H185.639V16.2195C186.169 15.623 186.842 15.3553 187.538 15.3553C188.847 15.3553 190.125 16.3495 190.125 17.9859V20.2724C190.125 22.0695 188.975 22.9948 187.742 22.9948C187.024 22.9948 186.26 22.6812 185.654 22.0695L185.496 22.8953ZM185.715 19.8365C185.715 20.8459 186.494 21.4577 187.258 21.4577C187.894 21.4577 188.521 21.0677 188.521 20.1195V18.2765C188.521 17.3283 187.871 16.9077 187.243 16.9077C186.494 16.9077 185.715 17.5195 185.715 18.5442V19.8365Z" fill="white"/>
<path d="M195.851 22.0771C195.322 22.7195 194.702 23.0024 194.013 23.0024C192.72 23.0024 191.381 21.993 191.381 20.2801V18.0471C191.381 16.4412 192.72 15.3553 194.013 15.3553C194.762 15.3553 195.458 15.623 195.867 16.2195L195.995 15.4624H197.395V22.8953H196.01L195.851 22.0771ZM195.791 18.5442C195.791 17.5195 195.012 16.9077 194.263 16.9077C193.628 16.9077 192.985 17.3206 192.985 18.2765V20.1195C192.985 21.0677 193.62 21.4577 194.248 21.4577C195.012 21.4577 195.791 20.8459 195.791 19.8365V18.5442Z" fill="white"/>
<path d="M199.657 11.7307C200.293 11.7307 200.777 12.2201 200.777 12.8624C200.777 13.4742 200.293 13.9789 199.657 13.9789C199.052 13.9789 198.553 13.4742 198.553 12.8624C198.553 12.2277 199.052 11.7307 199.657 11.7307ZM198.863 22.8954V15.4624H200.467V22.8954H198.863Z" fill="white"/>
<path d="M203.802 15.4624V23.4918C203.802 25.4571 202.584 26.2677 201.064 26.2677C200.784 26.2677 200.474 26.2524 200.179 26.1912L200.353 24.5242C200.617 24.6007 200.852 24.6465 201.041 24.6465C201.707 24.6465 202.191 24.2336 202.191 23.1477V15.4624H203.802ZM202.993 11.7307C203.628 11.7307 204.112 12.2201 204.112 12.8624C204.112 13.4742 203.628 13.9789 202.993 13.9789C202.388 13.9789 201.888 13.4742 201.888 12.8624C201.888 12.2277 202.388 11.7307 202.993 11.7307Z" fill="white"/>
<path d="M209.559 22.0771C209.029 22.7195 208.409 23.0024 207.72 23.0024C206.427 23.0024 205.088 21.993 205.088 20.2801V18.0471C205.088 16.4412 206.427 15.3553 207.72 15.3553C208.469 15.3553 209.165 15.623 209.574 16.2195L209.702 15.4624H211.102V22.8953H209.717L209.559 22.0771ZM209.498 18.5442C209.498 17.5195 208.719 16.9077 207.97 16.9077C207.335 16.9077 206.692 17.3206 206.692 18.2765V20.1195C206.692 21.0677 207.327 21.4577 207.955 21.4577C208.719 21.4577 209.498 20.8459 209.498 19.8365V18.5442Z" fill="white"/>
<path d="M216.973 22.8953V18.2765C216.973 17.3283 216.398 16.9077 215.694 16.9077C214.945 16.9077 214.166 17.5194 214.166 18.5441V22.903H212.562V15.47H213.871L214.091 16.3647C214.605 15.6688 215.324 15.3706 216.035 15.3706C217.404 15.3706 218.576 16.2959 218.576 18.0012V22.9106H216.973V22.8953Z" fill="white"/>
<path d="M157.107 37.7536V41.4854H155.503V34.7101C155.503 32.0948 157.47 30.6801 159.444 30.6801C161.411 30.6801 163.385 32.0948 163.385 34.7101V41.4854H161.781V37.7536H157.107ZM161.781 36.2012V34.7024C161.781 33.0965 160.579 32.2171 159.444 32.2171C158.309 32.2171 157.107 33.0965 157.107 34.7024V36.2012H161.781Z" fill="white"/>
<path d="M169.512 36.0559C169.058 35.6583 168.589 35.4901 168.128 35.4901C167.349 35.4901 166.539 36.0559 166.539 37.1265V41.4854H164.936V34.0524H166.244L166.464 34.9471C166.948 34.2895 167.666 33.953 168.393 33.953C168.816 33.953 169.217 34.0601 169.588 34.2818L169.512 36.0559Z" fill="white"/>
<path d="M173.257 39.0842C173.257 39.7571 173.741 40.0324 174.255 40.0324C174.474 40.0324 174.694 40.0171 174.875 39.91V41.5006C174.596 41.5465 174.346 41.5771 174.096 41.5771C172.742 41.5771 171.653 41.0877 171.653 39.2295V35.5895H170.42V34.0448H171.653V32.2783L173.257 31.8195V34.0524H174.921V35.5971H173.257V39.0842Z" fill="white"/>
<path d="M176.759 30.313C177.394 30.313 177.878 30.8024 177.878 31.4448C177.878 32.0565 177.394 32.5612 176.759 32.5612C176.154 32.5612 175.654 32.0565 175.654 31.4448C175.654 30.81 176.154 30.313 176.759 30.313ZM175.964 41.4777V34.0448H177.568V41.4777H175.964Z" fill="white"/>
<path d="M182.78 31.6971C182.5 31.5671 182.266 31.4753 182.031 31.4753C181.623 31.4753 181.252 31.7583 181.252 32.4083V34.0447H182.886V35.5894H181.252V41.4777H179.648V35.5894H178.604V34.0447H179.648V32.3777C179.648 30.55 180.692 29.923 181.751 29.923C182.205 29.923 182.674 30.0453 183.045 30.2365L182.78 31.6971Z" fill="white"/>
<path d="M184.975 30.313C185.61 30.313 186.094 30.8024 186.094 31.4448C186.094 32.0565 185.61 32.5612 184.975 32.5612C184.369 32.5612 183.87 32.0565 183.87 31.4448C183.87 30.81 184.369 30.313 184.975 30.313ZM184.18 41.4777V34.0448H185.784V41.4777H184.18Z" fill="white"/>
<path d="M191.6 36.2012C191.026 35.7118 190.541 35.49 189.951 35.49C189.263 35.49 188.673 35.8494 188.673 36.7977V38.7477C188.673 39.6271 189.407 40.04 190.072 40.04C190.723 40.04 191.26 39.7418 191.706 39.1606L192.531 40.4224C191.895 41.1488 191.018 41.5847 190.072 41.5847C188.59 41.5847 187.069 40.6212 187.069 38.7477V36.7977C187.069 34.8935 188.522 33.9453 189.997 33.9453C190.882 33.9453 191.691 34.2741 192.319 34.97L191.6 36.2012Z" fill="white"/>
<path d="M194.331 30.313C194.966 30.313 195.451 30.8024 195.451 31.4448C195.451 32.0565 194.966 32.5612 194.331 32.5612C193.726 32.5612 193.227 32.0565 193.227 31.4448C193.227 30.81 193.726 30.313 194.331 30.313ZM193.537 41.4777V34.0448H195.14V41.4777H193.537Z" fill="white"/>
<path d="M200.905 40.6594C200.376 41.3018 199.755 41.5847 199.067 41.5847C197.773 41.5847 196.435 40.5753 196.435 38.8624V36.6294C196.435 35.0236 197.773 33.9377 199.067 33.9377C199.816 33.9377 200.512 34.2053 200.92 34.8018L201.049 34.0447H202.448V41.4777H201.064L200.905 40.6594ZM200.845 37.1265C200.845 36.1018 200.066 35.49 199.317 35.49C198.681 35.49 198.038 35.903 198.038 36.8589V38.7018C198.038 39.65 198.674 40.04 199.302 40.04C200.066 40.04 200.845 39.4283 200.845 38.4189V37.1265Z" fill="white"/>
<path d="M203.969 41.4777V30.0377H205.572V41.4854H203.969V41.4777Z" fill="white"/>
<path d="M157.25 60.0601H155.646V49.3542H157.25V60.0601Z" fill="white"/>
<path d="M163.264 60.0601V55.4412C163.264 54.493 162.689 54.0724 161.985 54.0724C161.236 54.0724 160.457 54.6842 160.457 55.7089V60.0677H158.854V52.6348H160.162L160.382 53.5295C160.896 52.8336 161.615 52.5353 162.326 52.5353C163.695 52.5353 164.867 53.4606 164.867 55.1659V60.0753H163.264V60.0601Z" fill="white"/>
<path d="M168.673 57.6741C168.673 58.3471 169.157 58.6224 169.671 58.6224C169.891 58.6224 170.11 58.6071 170.291 58.5V60.0906C170.012 60.1365 169.762 60.1671 169.512 60.1671C168.158 60.1671 167.069 59.6777 167.069 57.8194V54.1794H165.836V52.6347H167.069V50.8682L168.673 50.4094V52.6424H170.337V54.1871H168.673V57.6741Z" fill="white"/>
<path d="M172.871 57.0777V57.3607C172.871 58.3089 173.575 58.6224 174.339 58.6224C175.027 58.6224 175.693 58.2783 176.207 57.7889L177.001 59.0048C176.351 59.7618 175.322 60.1671 174.278 60.1671C172.75 60.1671 171.26 59.2724 171.26 57.4448V55.4565C171.26 53.583 172.478 52.5277 174.187 52.5277C175.64 52.5277 177.19 53.4607 177.19 55.3954C177.19 56.573 176.487 57.0777 175.662 57.0777H172.871ZM175.594 55.5865C175.579 54.6918 174.959 54.0724 174.195 54.0724C173.37 54.0724 172.871 54.7148 172.871 55.5865H175.594Z" fill="white"/>
<path d="M178.408 60.0601V48.6201H180.012V60.0677H178.408V60.0601Z" fill="white"/>
<path d="M181.601 60.0601V48.6201H183.204V60.0677H181.601V60.0601Z" fill="white"/>
<path d="M185.512 48.903C186.147 48.903 186.631 49.3924 186.631 50.0348C186.631 50.6465 186.147 51.1512 185.512 51.1512C184.906 51.1512 184.407 50.6465 184.407 50.0348C184.407 49.3924 184.906 48.903 185.512 48.903ZM184.717 60.0601V52.6271H186.321V60.0601H184.717Z" fill="white"/>
<path d="M192.092 53.3918L192.221 52.6348H193.62V60.1595C193.62 62.3465 192.062 63.5318 190.352 63.5318C189.293 63.5318 188.469 63.1342 187.826 62.4918L188.34 60.9777C188.885 61.5283 189.49 61.9871 190.413 61.9871C191.313 61.9871 192.017 61.3754 192.017 60.1289V59.2495C191.532 59.8918 190.912 60.1748 190.224 60.1748C188.93 60.1748 187.606 59.1348 187.606 57.4524V55.2195C187.606 53.6136 188.945 52.5277 190.239 52.5277C190.995 52.5277 191.684 52.7954 192.092 53.3918ZM192.024 55.7089C192.024 54.6842 191.245 54.0724 190.496 54.0724C189.861 54.0724 189.218 54.4854 189.218 55.4412V57.2842C189.218 58.2324 189.853 58.6224 190.481 58.6224C191.245 58.6224 192.024 58.0107 192.024 57.0012V55.7089Z" fill="white"/>
<path d="M196.57 57.0777V57.3607C196.57 58.3089 197.274 58.6224 198.038 58.6224C198.726 58.6224 199.392 58.2783 199.906 57.7889L200.7 59.0048C200.05 59.7618 199.021 60.1671 197.977 60.1671C196.449 60.1671 194.959 59.2724 194.959 57.4448V55.4565C194.959 53.583 196.177 52.5277 197.886 52.5277C199.339 52.5277 200.89 53.4607 200.89 55.3954C200.89 56.573 200.186 57.0777 199.361 57.0777H196.57ZM199.293 55.5865C199.278 54.6918 198.658 54.0724 197.894 54.0724C197.069 54.0724 196.57 54.7148 196.57 55.5865H199.293Z" fill="white"/>
<path d="M206.45 60.0601V55.4412C206.45 54.493 205.875 54.0724 205.172 54.0724C204.423 54.0724 203.644 54.6842 203.644 55.7089V60.0677H202.04V52.6348H203.349L203.568 53.5295C204.082 52.8336 204.801 52.5353 205.512 52.5353C206.881 52.5353 208.054 53.4606 208.054 55.1659V60.0753H206.45V60.0601Z" fill="white"/>
<path d="M213.855 54.7836C213.28 54.2942 212.796 54.0724 212.206 54.0724C211.518 54.0724 210.928 54.4318 210.928 55.3801V57.3301C210.928 58.2095 211.662 58.6224 212.327 58.6224C212.978 58.6224 213.515 58.3242 213.961 57.743L214.786 59.0048C214.15 59.7312 213.273 60.1671 212.327 60.1671C210.845 60.1671 209.324 59.2036 209.324 57.3301V55.3801C209.324 53.4759 210.777 52.5277 212.252 52.5277C213.137 52.5277 213.946 52.8565 214.574 53.5524L213.855 54.7836Z" fill="white"/>
<path d="M217.206 57.0777V57.3607C217.206 58.3089 217.909 58.6224 218.673 58.6224C219.362 58.6224 220.027 58.2783 220.542 57.7889L221.336 59.0048C220.686 59.7618 219.657 60.1671 218.613 60.1671C217.085 60.1671 215.595 59.2724 215.595 57.4448V55.4565C215.595 53.583 216.813 52.5277 218.522 52.5277C219.975 52.5277 221.525 53.4607 221.525 55.3954C221.525 56.573 220.822 57.0777 219.997 57.0777H217.206ZM219.922 55.5865C219.906 54.6918 219.286 54.0724 218.522 54.0724C217.698 54.0724 217.198 54.7148 217.198 55.5865H219.922Z" fill="white"/>
<path d="M233.5 60.0601H228.281C227.517 60.0601 227.191 59.4942 227.191 58.8824V49.3618H228.795V58.5153H233.5V60.0601Z" fill="white"/>
<path d="M238.939 59.2495C238.41 59.8918 237.79 60.1748 237.101 60.1748C235.808 60.1748 234.469 59.1654 234.469 57.4524V55.2195C234.469 53.6136 235.808 52.5277 237.101 52.5277C237.85 52.5277 238.546 52.7954 238.955 53.3918L239.083 52.6348H240.483V60.0677H239.098L238.939 59.2495ZM238.879 55.7089C238.879 54.6842 238.1 54.0724 237.351 54.0724C236.715 54.0724 236.072 54.4854 236.072 55.4412V57.2842C236.072 58.2324 236.708 58.6224 237.336 58.6224C238.1 58.6224 238.879 58.0107 238.879 57.0012V55.7089Z" fill="white"/>
<path d="M243.319 60.0601H241.935V48.6201H243.463V53.3918C243.992 52.7953 244.665 52.5277 245.361 52.5277C246.67 52.5277 247.948 53.5218 247.948 55.1583V57.4448C247.948 59.2418 246.799 60.1671 245.566 60.1671C244.847 60.1671 244.083 59.8536 243.478 59.2418L243.319 60.0601ZM243.546 57.0012C243.546 58.0106 244.325 58.6224 245.089 58.6224C245.724 58.6224 246.352 58.2401 246.352 57.2842V55.4412C246.352 54.493 245.702 54.0724 245.074 54.0724C244.325 54.0724 243.546 54.6842 243.546 55.7089V57.0012Z" fill="white"/>
</svg>
