<svg xmlns="http://www.w3.org/2000/svg" viewBox="0 0 728.484 602.3">
  <defs>
    <style>
      .cls-1 {
        fill: #0693c4;
      }

      .cls-2 {
        fill: #fff;
      }

      .cls-3 {
        fill: #fdfeff;
      }

      .cls-4 {
        fill: #005889;
      }
    </style>
  </defs>
  <g id="Group_918" data-name="Group 918" transform="translate(0 0)">
    <g id="Group_917" data-name="Group 917">
      <path id="Path_1617" data-name="Path 1617" class="cls-1" d="M369.7,15.5V5.7c0-7.6-11-7.7-11,.3v9.6C215.8,17.8,94.3,107.8,45.5,234.1h1a121.6,121.6,0,0,1,209.8,0h3a121.6,121.6,0,0,1,209.8,0h3a121.6,121.6,0,0,1,209.8,0h1C634.2,107.8,512.7,17.8,369.7,15.5Z"/>
      <g id="Group_909" data-name="Group 909">
        <g id="Group_908" data-name="Group 908">
          <g id="Group_906" data-name="Group 906">
            <path id="Path_1618" data-name="Path 1618" class="cls-2" d="M364.2,125.8A30.8,30.8,0,1,1,395,95,30.813,30.813,0,0,1,364.2,125.8Zm0-55.8a25,25,0,1,0,25,25A25.009,25.009,0,0,0,364.2,70Z"/>
          </g>
          <g id="Group_907" data-name="Group 907">
            <path id="Path_1619" data-name="Path 1619" class="cls-2" d="M358.3,85.9h6.5a6.8,6.8,0,1,1-.1,13.6h-2.9v5.4h-3.5Zm3.6,3.2v7h2.7a3.5,3.5,0,0,0,0-7Z"/>
          </g>
        </g>
      </g>
      <g id="Group_916" data-name="Group 916">
        <g id="Group_913" data-name="Group 913">
          <g id="Group_911" data-name="Group 911">
            <g id="Group_910" data-name="Group 910">
              <path id="Path_1620" data-name="Path 1620" class="cls-3" d="M248.7,122.3a9.756,9.756,0,0,1,18.1-5.1l-3.1,2a5.658,5.658,0,0,0-5.2-3.2,6.252,6.252,0,1,0,5.5,8.9l3.2,1.7a9.816,9.816,0,0,1-8.6,5.4A9.4,9.4,0,0,1,248.7,122.3Z"/>
            </g>
          </g>
          <g id="Group_912" data-name="Group 912">
            <path id="Path_1621" data-name="Path 1621" class="cls-2" d="M258.1,152.7a30.8,30.8,0,1,1,30.8-30.8A30.813,30.813,0,0,1,258.1,152.7Zm0-55.8a25,25,0,1,0,25,25A25.009,25.009,0,0,0,258.1,96.9Z"/>
          </g>
        </g>
        <g id="Group_915" data-name="Group 915">
          <path id="Path_1622" data-name="Path 1622" class="cls-2" d="M470.3,152.7a30.8,30.8,0,1,1,30.8-30.8A30.813,30.813,0,0,1,470.3,152.7Zm0-55.8a25,25,0,1,0,25,25A25.009,25.009,0,0,0,470.3,96.9Z"/>
          <g id="Group_914" data-name="Group 914">
            <path id="Path_1623" data-name="Path 1623" class="cls-2" d="M463.9,131.8v-19H470c4.5,0,7.1,2.7,7.1,6.6a6.034,6.034,0,0,1-3.2,5.5l3.8,6.8h-4l-3-5.8h-3.2v5.8h-3.6Zm5.8-9.1c2.9,0,3.9-1.6,3.9-3.5,0-2-1.2-3.2-3.9-3.2h-2.2v6.6h2.2Z"/>
          </g>
        </g>
      </g>
    </g>
    <path id="Path_1624" data-name="Path 1624" class="cls-4" d="M106.1,411.5c-8.3,4.2-16.4,6.3-24.1,6.3q-22.65,0-35.7-20.1c-7.7-12.4-11.6-28.2-11.6-47.5,0-16.1,3.3-29.3,10-39.6C52,299,62.4,293.2,76,293.2c8,0,15.1,3.3,21.3,10a42.35,42.35,0,0,1,5.7,7.9c.1.1.1.3.2.4A23.148,23.148,0,0,1,105,316a5.054,5.054,0,0,0,1.9,3l.1.1a5.267,5.267,0,0,0,6.1.3,34.911,34.911,0,0,0,9.5-10.2,34.013,34.013,0,0,0,3.2-6.9c.3-1,.6-1.9.8-2.6a5.152,5.152,0,0,0-.6-4c-3-4.8-8.6-9-16.9-12.6a76.569,76.569,0,0,0-30.3-6q-35.25,0-57,23.2C7.3,315.5,0,335.5,0,360.1q0,34.5,18.5,55.1,19.2,21.3,53.3,21.3c17.4.3,31.8-3.7,43.1-12,6.5-4.9,10.6-10.3,12.2-16.3a5.188,5.188,0,0,0-8.6-5.1A58.47,58.47,0,0,1,106.1,411.5Z"/>
    <path id="Path_1625" data-name="Path 1625" class="cls-4" d="M226.8,276.9c-22.5,0-40.9,7.7-55.4,23-14.7,15.5-22.1,35.4-22.1,59.5q0,36,20,57.9,18.15,19.8,43.7,19.8,35.85,0,58.1-24c14.3-15.5,21.6-35.2,22.1-59.1q0-36.75-19.5-57.7Q255.4,276.95,226.8,276.9Zm22.1,126.8c-6.8,11.5-15,17.2-24.7,17.2-11.2,0-20.8-7.1-28.8-21.2-7.8-13.8-11.6-29.7-11.6-47.7,0-16.3,3.3-30.1,10-41.4s15-17,24.9-17c10.5,0,19.9,6.7,28.1,20q11.85,20.25,11.9,48.4C258.7,378.3,255.4,392.2,248.9,403.7Z"/>
    <path id="Path_1626" data-name="Path 1626" class="cls-4" d="M541.4,297.5q-.45-1.35-1.2-4.2l-.7-2.6-.9-2.8c-.5-1.7-.9-3.7-1.4-5.8l-.7-2.8h0a2.646,2.646,0,0,0-2.9-2.1c-20,2.1-31.9,10.4-35.6,24.7L446.7,433.4a2.254,2.254,0,0,0,2.1,3.1h14.4a5.375,5.375,0,0,0,5.1-3.7h0l16.6-46.9h53.4l13.8,39.2v.1a17.545,17.545,0,0,0,16.4,11.3h18.1a3.026,3.026,0,0,0,2.7-4.4,122.553,122.553,0,0,1-6.4-15.7Zm-51.1,73,21.5-60,21,60Z"/>
    <path id="Path_1627" data-name="Path 1627" class="cls-4" d="M723.8,279.3a3.564,3.564,0,0,0-3-1.5l-34.2,1.6H638.8l-34.2-1.6a3.332,3.332,0,0,0-3,1.5q-6.75,9.6-3.9,25.2a3.441,3.441,0,0,0,3.4,2.8h0a3.425,3.425,0,0,0,3.2-2.3,13.2,13.2,0,0,1,5.8-6.7c3.8-2.4,8.5-3.5,14.2-3.5h17.9a3.526,3.526,0,0,1,3.4,3,81.736,81.736,0,0,1,.7,11.7q0,98.55-.4,123.6a3.372,3.372,0,0,0,3.4,3.4h27.9a3.4,3.4,0,0,0,3.4-3.9,200.639,200.639,0,0,1-1.4-20.5c-.2-1.9-.2-4.9-.2-9v-5l-.2-5.4V372.8q0-44.4,1.3-74.8a3.487,3.487,0,0,1,3.4-3.3h17.6c5.7,0,10.4,1.2,14.2,3.5a12.745,12.745,0,0,1,5.8,6.7,3.425,3.425,0,0,0,3.2,2.3h0a3.523,3.523,0,0,0,3.4-2.8C729.5,294.1,728.2,285.7,723.8,279.3Z"/>
    <path id="Path_1628" data-name="Path 1628" class="cls-1" d="M425.1,358.7c13.5-10.9,20.4-24.6,20.4-40.9,0-19.4-6.8-34.2-20.3-43.9h0c-10.9-8-25-11.9-42-11.5l-62.8,1.3c-1.8,0-2.5,1.3-1.4,2.8a2.181,2.181,0,0,0,.4.5,8.069,8.069,0,0,0,3.2,1.4c6.9,1.8,16.7,3.5,23.7,4.8,3.6.6,6.4,1.1,8.1,1.5l2.3.5c28.1,6,57.2,12.3,57.2,49.1,0,10.7-3,19.6-9,26.3-6.6,7.7-16,11.7-28.1,11.7h-5.4l-2.5-.5h-.1l-2.9-.3a1.164,1.164,0,0,1-1-1.1l.2-27.7h-.2l.2-.7v-5.9l.2-17.9c0-18.8-16.3-23.5-32.8-27.5-.4-.1-1.5-.4-2.3-.6a.923.923,0,0,0-1.1,1.1,85.15,85.15,0,0,1,1.4,17V435.1l-.2,7.8a1.2,1.2,0,0,0,1.1,1.2h34.5a1.109,1.109,0,0,0,1.1-1.3,201.452,201.452,0,0,1-1.6-25.9c-.4-12.7-.6-26.3-.6-40.4v-.7a1.073,1.073,0,0,1,1.2-1.1h.7c8.4.5,10.1.5,10.4.5C395.9,374.8,412.1,369.4,425.1,358.7Z"/>
    <path id="Path_1629" data-name="Path 1629" class="cls-1" d="M444.8,533.6a10.712,10.712,0,0,0-10.7,10.7,36.6,36.6,0,0,1-73.2,0V533.1a10.8,10.8,0,0,0-4.6-8.8V483.2a6.1,6.1,0,0,0-12.2,0v41.1a10.531,10.531,0,0,0-4.6,8.8v11.2a58,58,0,0,0,116,0A10.712,10.712,0,0,0,444.8,533.6Z"/>
  </g>
</svg>
