<?xml version="1.0" encoding="UTF-8"?>
<!DOCTYPE svg PUBLIC "-//W3C//DTD SVG 1.1//EN" "http://www.w3.org/Graphics/SVG/1.1/DTD/svg11.dtd">
<!-- Creator: CorelDRAW 2017 -->
<svg xmlns="http://www.w3.org/2000/svg" xml:space="preserve" width="154px" height="192px" version="1.1" style="shape-rendering:geometricPrecision; text-rendering:geometricPrecision; image-rendering:optimizeQuality; fill-rule:evenodd; clip-rule:evenodd"
viewBox="0 0 154 191.9"
 xmlns:xlink="http://www.w3.org/1999/xlink">
 <defs>
  <style type="text/css">
   <![CDATA[
    .fil2 {fill:#977E2E}
    .fil1 {fill:#9B823E}
    .fil0 {fill:#9B823E;fill-rule:nonzero}
   ]]>
  </style>
 </defs>
 <g id="Layer_x0020_1">
  <metadata id="CorelCorpID_0Corel-Layer"/>
  <g id="yeni_x0020_loqo_x0020_22_x0020_AZ.cdr">
   <g>
    <path class="fil0" d="M24.8 166.88l-3.23 3.22 3.44 4.86 -1.76 0 -2.65 -3.86 -1.16 1.13 0 2.73 -1.42 0 0 -8.08 1.42 0 0 3.73c0.13,-0.17 0.33,-0.39 0.59,-0.65l2.98 -3.08 1.79 0 0 0z"/>
    <path class="fil0" d="M27.23 174.96l-1.29 0 0 -5.85 1.29 0 0 5.85zm0 -6.86l-1.29 0 0 -1.22 1.29 0 0 1.22z"/>
    <path class="fil0" d="M32.97 172.78l1.25 0c-0.08,0.72 -0.36,1.29 -0.83,1.71 -0.47,0.41 -1.08,0.63 -1.82,0.64l-0.39 0.54c0.19,-0.03 0.33,-0.05 0.45,-0.05 0.28,0 0.51,0.08 0.68,0.22 0.18,0.15 0.26,0.34 0.26,0.57 0,0.32 -0.12,0.58 -0.37,0.77 -0.24,0.19 -0.58,0.28 -1,0.28 -0.38,0 -0.77,-0.08 -1.18,-0.24l0.22 -0.45c0.27,0.12 0.54,0.17 0.8,0.17 0.41,0 0.62,-0.15 0.62,-0.45 0,-0.28 -0.19,-0.42 -0.56,-0.42 -0.12,0 -0.26,0.02 -0.42,0.09l-0.21 -0.22 0.6 -0.81c-0.77,-0.13 -1.36,-0.46 -1.77,-0.99 -0.42,-0.53 -0.63,-1.22 -0.63,-2.06 0,-0.94 0.27,-1.7 0.8,-2.27 0.54,-0.57 1.24,-0.86 2.11,-0.86 0.75,0 1.35,0.19 1.81,0.56 0.45,0.37 0.73,0.9 0.82,1.59l-1.3 0c-0.16,-0.75 -0.61,-1.12 -1.36,-1.12 -0.49,0 -0.87,0.18 -1.16,0.55 -0.28,0.36 -0.42,0.86 -0.42,1.49 0,0.64 0.14,1.15 0.42,1.52 0.28,0.37 0.66,0.56 1.14,0.56 0.79,0 1.27,-0.44 1.44,-1.32l0 0z"/>
    <path class="fil0" d="M36.86 174.96l-1.3 0 0 -5.85 1.3 0 0 5.85zm0 -6.86l-1.3 0 0 -1.22 1.3 0 0 1.22z"/>
    <path class="fil0" d="M43.85 169.11l-2.24 2.14 2.45 3.71 -1.57 0 -1.78 -2.84 -0.78 0.73 0 2.11 -1.29 0 0 -8.08 1.29 0 0 4.61c0.21,-0.24 0.34,-0.39 0.4,-0.44l1.94 -1.94 1.58 0 0 0z"/>
    <path class="fil0" d="M53.31 169.11l-2.09 5.85 -1.45 0 -2.14 -5.85 1.41 0 0.9 2.64c0.24,0.68 0.43,1.34 0.58,2 0.12,-0.5 0.31,-1.17 0.59,-2.01l0.87 -2.63 1.33 0 0 0z"/>
    <path class="fil0" d="M58.15 172.58l-3.01 0c0.04,0.48 0.19,0.86 0.46,1.15 0.26,0.28 0.6,0.43 1.01,0.43 0.89,0 1.4,-0.53 1.54,-1.58l0 0zm-2.99 -1.64l-1.23 0c0.15,-0.62 0.46,-1.11 0.93,-1.46 0.47,-0.35 1.04,-0.53 1.72,-0.53 0.86,0 1.56,0.28 2.09,0.83 0.52,0.55 0.79,1.28 0.79,2.19 0,0.92 -0.27,1.67 -0.8,2.26 -0.53,0.59 -1.21,0.88 -2.05,0.88 -0.87,0 -1.55,-0.3 -2.04,-0.9 -0.48,-0.6 -0.72,-1.43 -0.72,-2.49l4.33 0c-0.05,-1.21 -0.59,-1.81 -1.6,-1.81 -0.7,0 -1.17,0.34 -1.42,1.03z"/>
    <path class="fil0" d="M67.72 167.87c-0.76,0 -1.37,0.28 -1.81,0.83 -0.44,0.55 -0.66,1.29 -0.66,2.23 0,0.91 0.22,1.65 0.67,2.2 0.45,0.56 1.04,0.83 1.8,0.83 0.74,0 1.33,-0.27 1.77,-0.82 0.45,-0.55 0.67,-1.29 0.67,-2.23 0,-0.92 -0.22,-1.66 -0.67,-2.21 -0.44,-0.55 -1.03,-0.83 -1.77,-0.83l0 0zm0 -1.18c1.14,0 2.07,0.39 2.79,1.17 0.71,0.79 1.07,1.81 1.07,3.07 0,1.25 -0.36,2.27 -1.07,3.05 -0.72,0.78 -1.65,1.17 -2.81,1.17 -1.15,0 -2.09,-0.39 -2.8,-1.17 -0.71,-0.78 -1.07,-1.8 -1.07,-3.07 0,-1.26 0.36,-2.27 1.08,-3.05 0.71,-0.78 1.65,-1.17 2.81,-1.17l0 0z"/>
    <path class="fil0" d="M75.64 169l0 1.24c-0.21,-0.02 -0.37,-0.03 -0.46,-0.03 -0.68,0 -1.17,0.29 -1.45,0.87 -0.14,0.3 -0.22,0.81 -0.22,1.53l0 2.35 -1.29 0 0 -5.85 1.21 0 0 1.16c0.45,-0.85 1.11,-1.28 1.98,-1.28 0.09,0 0.16,0 0.23,0.01l0 0z"/>
    <path class="fil0" d="M79.69 169.1l0 0.95 -1.18 0 0 3.07c0,0.49 0.1,0.76 0.31,0.83 0.08,0.02 0.21,0.03 0.38,0.03 0.13,0 0.29,-0.01 0.49,-0.03l0 1.01c-0.32,0.04 -0.6,0.05 -0.84,0.05 -0.76,0 -1.24,-0.18 -1.45,-0.56 -0.12,-0.21 -0.18,-0.75 -0.18,-1.62l0 -2.78 -0.98 0 0 -0.95 0.98 0 0 -1.75 1.29 0 0 1.75 1.18 0 0 0z"/>
    <path class="fil0" d="M84.46 172.73l0 -0.69c-0.25,0.13 -0.71,0.24 -1.38,0.33 -0.48,0.06 -0.82,0.16 -1.01,0.3 -0.19,0.15 -0.29,0.37 -0.29,0.66 0,0.59 0.36,0.88 1.08,0.88 0.32,0 0.62,-0.06 0.89,-0.18 0.28,-0.12 0.47,-0.27 0.58,-0.45 0.09,-0.14 0.13,-0.42 0.13,-0.85l0 0zm-2.51 -1.8l-1.21 0c0.12,-1.32 0.99,-1.98 2.62,-1.98 0.92,0 1.58,0.21 1.98,0.62 0.26,0.27 0.39,0.68 0.39,1.23 0,0.23 -0.01,0.51 -0.01,0.84 0,0.06 -0.01,0.21 -0.02,0.47l-0.01 0.24 0 0.25 0 0.46c-0.01,0.15 -0.01,0.23 -0.01,0.25 0,0.36 0.02,0.59 0.05,0.67 0.04,0.09 0.14,0.13 0.29,0.13 0.1,0 0.19,-0.01 0.28,-0.03l0 0.91c-0.36,0.09 -0.64,0.14 -0.85,0.14 -0.55,0 -0.86,-0.24 -0.93,-0.71 -0.54,0.47 -1.23,0.71 -2.07,0.71 -0.6,0 -1.08,-0.16 -1.43,-0.48 -0.36,-0.31 -0.53,-0.73 -0.53,-1.27 0,-0.7 0.31,-1.2 0.93,-1.49 0.28,-0.13 0.6,-0.22 0.96,-0.25l0.24 -0.03 0.24 -0.03 0.24 -0.02c0.61,-0.07 0.99,-0.14 1.14,-0.22 0.14,-0.08 0.22,-0.26 0.22,-0.54 0,-0.59 -0.4,-0.89 -1.19,-0.89 -0.43,0 -0.74,0.08 -0.94,0.23 -0.19,0.15 -0.32,0.41 -0.38,0.79l0 0z"/>
    <path class="fil0" d="M92.37 171.26l0 2.55 1.99 0c0.65,0 1.1,-0.08 1.34,-0.23 0.35,-0.23 0.52,-0.58 0.52,-1.04 0,-0.61 -0.25,-1 -0.76,-1.17 -0.22,-0.07 -0.63,-0.11 -1.23,-0.11l-1.86 0 0 0zm0 -3.23l0 2.21 1.8 0c0.46,0 0.81,-0.04 1.02,-0.11 0.45,-0.15 0.67,-0.48 0.67,-1 0,-0.54 -0.22,-0.88 -0.65,-1.01 -0.18,-0.06 -0.51,-0.09 -1,-0.09l-1.84 0 0 0zm-1.41 -1.15l3.47 0c0.83,0 1.42,0.09 1.78,0.28 0.32,0.16 0.58,0.4 0.78,0.72 0.19,0.31 0.29,0.64 0.29,1 0,0.83 -0.39,1.41 -1.15,1.73 1.01,0.28 1.51,0.94 1.51,1.99 0,0.91 -0.39,1.59 -1.19,2.03 -0.38,0.22 -0.92,0.33 -1.59,0.33l-3.9 0 0 -8.08 0 0z"/>
    <path class="fil0" d="M100.45 174.96l-1.3 0 0 -5.85 1.3 0 0 5.85zm0 -6.86l-1.3 0 0 -1.22 1.3 0 0 1.22z"/>
    <path class="fil0" d="M106.74 169.11l0 0.89 -2.77 3.3c-0.08,0.1 -0.28,0.31 -0.6,0.63l0.77 0 2.79 0 0 1.03 -5.17 0 0 -0.98 2.7 -3.2c0.15,-0.18 0.37,-0.39 0.66,-0.64l-0.58 0 -2.55 0 0 -1.03 4.75 0 0 0z"/>
    <path class="fil0" d="M109.29 169.11l0 0.86c0.5,-0.68 1.15,-1.02 1.95,-1.02 0.8,0 1.36,0.28 1.69,0.83 0.19,0.32 0.29,0.8 0.29,1.45l0 3.73 -1.29 0 0 -3.41c0,-0.43 -0.04,-0.75 -0.11,-0.95 -0.14,-0.38 -0.48,-0.57 -1.03,-0.57 -0.6,0 -1.01,0.25 -1.24,0.75 -0.12,0.27 -0.18,0.68 -0.18,1.24l0 2.94 -1.29 0 0 -5.85 1.21 0 0 0z"/>
    <path class="fil0" d="M115.94 171.48l3.02 0c-0.04,-0.47 -0.2,-0.85 -0.46,-1.14 -0.27,-0.29 -0.61,-0.43 -1.02,-0.43 -0.89,0 -1.4,0.52 -1.54,1.57l0 0zm3 1.65l1.23 0c-0.15,0.62 -0.46,1.11 -0.93,1.46 -0.47,0.35 -1.04,0.52 -1.72,0.52 -0.87,0 -1.56,-0.27 -2.09,-0.82 -0.53,-0.56 -0.79,-1.29 -0.79,-2.19 0,-0.92 0.26,-1.67 0.8,-2.26 0.53,-0.59 1.21,-0.89 2.04,-0.89 0.87,0 1.55,0.3 2.04,0.9 0.49,0.61 0.73,1.43 0.72,2.49l-4.32 0c0.05,1.2 0.58,1.82 1.6,1.82 0.69,0 1.16,-0.34 1.42,-1.03l0 0z"/>
    <path class="fil0" d="M126.13 170.8l-1.24 0c-0.08,-0.6 -0.49,-0.9 -1.24,-0.9 -0.71,0 -1.06,0.22 -1.06,0.67 0,0.23 0.09,0.39 0.26,0.49 0.17,0.1 0.58,0.21 1.23,0.35 0.84,0.19 1.43,0.41 1.76,0.67 0.34,0.26 0.5,0.64 0.5,1.12 0,0.59 -0.23,1.06 -0.69,1.4 -0.46,0.34 -1.09,0.51 -1.89,0.51 -1.66,0 -2.53,-0.67 -2.6,-2.03l1.24 0c0.08,0.72 0.55,1.08 1.41,1.08 0.39,0 0.7,-0.08 0.92,-0.23 0.23,-0.15 0.34,-0.36 0.34,-0.62 0,-0.23 -0.09,-0.39 -0.26,-0.5 -0.18,-0.11 -0.56,-0.23 -1.13,-0.37 -0.64,-0.15 -1.03,-0.25 -1.16,-0.29 -0.19,-0.06 -0.36,-0.13 -0.52,-0.22 -0.47,-0.27 -0.71,-0.68 -0.71,-1.25 0,-0.54 0.22,-0.96 0.64,-1.27 0.42,-0.3 1,-0.46 1.74,-0.46 1.53,0 2.35,0.62 2.46,1.85l0 0z"/>
    <path class="fil0" d="M129.05 174.96l-1.29 0 0 -5.85 1.29 0 0 5.85zm0 -6.86l-1.29 0 0 -1.22 1.29 0 0 1.22z"/>
    <path class="fil0" d="M132.05 169.11l0 0.86c0.5,-0.68 1.15,-1.02 1.94,-1.02 0.8,0 1.37,0.28 1.7,0.83 0.19,0.32 0.29,0.8 0.29,1.45l0 3.73 -1.3 0 0 -3.41c0,-0.43 -0.03,-0.75 -0.1,-0.95 -0.14,-0.38 -0.48,-0.57 -1.03,-0.57 -0.6,0 -1.01,0.25 -1.24,0.75 -0.12,0.27 -0.18,0.68 -0.18,1.24l0 2.94 -1.3 0 0 -5.85 1.22 0 0 0z"/>
    <path class="fil0" d="M5.08 157.3l-0.66 -1.8c-0.19,-0.52 -0.38,-1.08 -0.56,-1.7 -0.11,0.38 -0.3,0.94 -0.57,1.67l-0.66 1.83 2.45 0zm-0.44 -4.85l3.1 8.07 -1.52 0 -0.77 -2.14 -3.19 0 -0.8 2.14 -1.46 0 3.12 -8.07 1.52 0z"/>
    <path class="fil0" d="M13.32 154.68l0 0.89 -2.78 3.3c-0.08,0.09 -0.28,0.3 -0.6,0.62l0.77 0 2.79 0 0 1.03 -5.17 0 0 -0.97 2.7 -3.21c0.15,-0.17 0.37,-0.39 0.66,-0.64l-0.58 0 -2.55 0 0 -1.02 4.76 0 0 0z"/>
    <path class="fil0" d="M18.49 158.15l-3.02 0c0.04,0.48 0.19,0.86 0.46,1.14 0.27,0.29 0.61,0.43 1.02,0.43 0.89,0 1.4,-0.52 1.54,-1.57l0 0zm-2.99 -1.65l-1.24 0c0.15,-0.62 0.46,-1.1 0.93,-1.45 0.47,-0.36 1.04,-0.53 1.72,-0.53 0.86,0 1.56,0.27 2.09,0.83 0.53,0.55 0.79,1.28 0.79,2.18 0,0.92 -0.26,1.68 -0.8,2.27 -0.53,0.59 -1.21,0.88 -2.04,0.88 -0.87,0 -1.55,-0.3 -2.04,-0.9 -0.49,-0.6 -0.73,-1.43 -0.72,-2.49l4.32 0c-0.05,-1.21 -0.58,-1.81 -1.6,-1.81 -0.69,0 -1.16,0.34 -1.41,1.02l0 0z"/>
    <path class="fil0" d="M24.56 154.57l0 1.23c-0.21,-0.01 -0.37,-0.02 -0.46,-0.02 -0.68,0 -1.17,0.29 -1.45,0.87 -0.14,0.29 -0.22,0.81 -0.22,1.53l0 2.34 -1.29 0 0 -5.84 1.21 0 0 1.16c0.45,-0.86 1.11,-1.28 1.98,-1.28 0.08,0 0.16,0 0.23,0.01l0 0z"/>
    <path class="fil0" d="M28.46 155.55c-0.5,0 -0.9,0.18 -1.19,0.54 -0.3,0.37 -0.44,0.86 -0.44,1.48 0,0.65 0.14,1.15 0.43,1.52 0.29,0.38 0.68,0.56 1.18,0.56 0.49,0 0.88,-0.19 1.18,-0.56 0.29,-0.38 0.44,-0.88 0.44,-1.51 0,-0.62 -0.14,-1.11 -0.43,-1.48 -0.29,-0.37 -0.68,-0.55 -1.17,-0.55l0 0zm-1.6 -3.1l0 2.99c0.46,-0.62 1.1,-0.92 1.91,-0.92 0.78,0 1.41,0.28 1.88,0.83 0.47,0.56 0.7,1.3 0.7,2.22 0,0.94 -0.24,1.69 -0.73,2.26 -0.49,0.57 -1.14,0.85 -1.95,0.85 -0.87,0 -1.5,-0.32 -1.89,-0.96l0 0.8 -1.21 0 0 -8.07 1.29 0 0 0z"/>
    <path class="fil0" d="M36.37 158.3l0 -0.69c-0.25,0.12 -0.71,0.23 -1.39,0.32 -0.48,0.07 -0.81,0.17 -1,0.31 -0.19,0.14 -0.29,0.36 -0.29,0.66 0,0.58 0.36,0.87 1.07,0.87 0.33,0 0.63,-0.06 0.9,-0.17 0.28,-0.12 0.47,-0.27 0.58,-0.46 0.09,-0.13 0.13,-0.42 0.13,-0.84l0 0zm-2.51 -1.81l-1.21 0c0.12,-1.31 0.99,-1.97 2.61,-1.97 0.92,0 1.59,0.2 1.99,0.62 0.26,0.26 0.39,0.67 0.39,1.23 0,0.23 -0.01,0.5 -0.02,0.84 0,0.05 0,0.21 -0.01,0.47l-0.01 0.24 0 0.24 0 0.46c-0.01,0.16 -0.01,0.24 -0.01,0.26 0,0.36 0.02,0.58 0.05,0.67 0.04,0.08 0.13,0.13 0.29,0.13 0.09,0 0.19,-0.01 0.28,-0.03l0 0.91c-0.36,0.09 -0.64,0.13 -0.85,0.13 -0.55,0 -0.86,-0.23 -0.93,-0.7 -0.55,0.47 -1.24,0.7 -2.07,0.7 -0.6,0 -1.08,-0.15 -1.43,-0.47 -0.36,-0.31 -0.54,-0.74 -0.54,-1.27 0,-0.7 0.32,-1.2 0.94,-1.49 0.28,-0.14 0.6,-0.22 0.95,-0.25l0.25 -0.03 0.24 -0.03 0.24 -0.03c0.61,-0.06 0.99,-0.14 1.14,-0.22 0.14,-0.08 0.22,-0.25 0.22,-0.53 0,-0.6 -0.4,-0.9 -1.19,-0.9 -0.43,0 -0.74,0.08 -0.94,0.24 -0.2,0.15 -0.32,0.41 -0.38,0.78l0 0z"/>
    <path class="fil0" d="M44.51 154.68l-2.16 5.73c-0.35,0.92 -0.63,1.51 -0.83,1.76 -0.31,0.39 -0.76,0.59 -1.35,0.59 -0.25,0 -0.54,-0.02 -0.89,-0.07l0 -1.08c0.29,0.05 0.52,0.08 0.67,0.08 0.3,0 0.53,-0.15 0.66,-0.44 0.18,-0.37 0.29,-0.68 0.33,-0.92l-2.23 -5.65 1.42 0 1.14 3.14c0.1,0.29 0.24,0.74 0.41,1.36 0.1,-0.36 0.24,-0.84 0.44,-1.44l1.05 -3.06 1.34 0 0 0z"/>
    <path class="fil0" d="M49.47 158.33l1.28 0c-0.11,0.74 -0.4,1.32 -0.87,1.73 -0.47,0.41 -1.09,0.62 -1.84,0.62 -0.87,0 -1.56,-0.27 -2.08,-0.82 -0.52,-0.55 -0.78,-1.28 -0.78,-2.19 0,-0.96 0.26,-1.72 0.79,-2.29 0.52,-0.57 1.22,-0.86 2.1,-0.86 0.76,0 1.37,0.18 1.83,0.55 0.46,0.38 0.73,0.9 0.81,1.58l-1.3 0c-0.14,-0.74 -0.58,-1.1 -1.32,-1.1 -0.5,0 -0.9,0.18 -1.19,0.55 -0.28,0.36 -0.43,0.87 -0.43,1.51 0,0.63 0.14,1.13 0.42,1.5 0.27,0.36 0.65,0.54 1.13,0.54 0.83,0 1.32,-0.44 1.45,-1.32l0 0z"/>
    <path class="fil0" d="M55.61 158.3l0 -0.69c-0.24,0.12 -0.7,0.23 -1.38,0.32 -0.48,0.07 -0.81,0.17 -1,0.31 -0.2,0.14 -0.29,0.36 -0.29,0.66 0,0.58 0.36,0.87 1.07,0.87 0.33,0 0.63,-0.06 0.9,-0.17 0.27,-0.12 0.47,-0.27 0.58,-0.46 0.08,-0.13 0.12,-0.42 0.12,-0.84l0 0zm-2.5 -1.81l-1.21 0c0.12,-1.31 0.99,-1.97 2.61,-1.97 0.92,0 1.58,0.2 1.99,0.62 0.26,0.26 0.38,0.67 0.38,1.23 0,0.23 0,0.5 -0.01,0.84 0,0.05 0,0.21 -0.01,0.47l-0.01 0.24 0 0.24 0 0.46c-0.01,0.16 -0.01,0.24 -0.01,0.26 0,0.36 0.02,0.58 0.05,0.67 0.04,0.08 0.13,0.13 0.29,0.13 0.09,0 0.19,-0.01 0.27,-0.03l0 0.91c-0.35,0.09 -0.63,0.13 -0.84,0.13 -0.55,0 -0.86,-0.23 -0.94,-0.7 -0.54,0.47 -1.23,0.7 -2.07,0.7 -0.59,0 -1.07,-0.15 -1.42,-0.47 -0.36,-0.31 -0.54,-0.74 -0.54,-1.27 0,-0.7 0.31,-1.2 0.93,-1.49 0.29,-0.14 0.61,-0.22 0.96,-0.25l0.24 -0.03 0.25 -0.03 0.24 -0.03c0.61,-0.06 0.99,-0.14 1.14,-0.22 0.14,-0.08 0.21,-0.25 0.21,-0.53 0,-0.6 -0.39,-0.9 -1.18,-0.9 -0.43,0 -0.74,0.08 -0.94,0.24 -0.2,0.15 -0.33,0.41 -0.38,0.78l0 0z"/>
    <path class="fil0" d="M59.95 154.68l0 0.86c0.51,-0.68 1.16,-1.02 1.95,-1.02 0.8,0 1.36,0.27 1.69,0.82 0.2,0.32 0.29,0.81 0.29,1.45l0 3.73 -1.29 0 0 -3.4c0,-0.44 -0.04,-0.75 -0.11,-0.96 -0.14,-0.37 -0.48,-0.56 -1.03,-0.56 -0.6,0 -1.01,0.24 -1.24,0.75 -0.12,0.26 -0.18,0.68 -0.18,1.24l0 2.92 -1.29 0 0 -5.83 1.21 0 0 0z"/>
    <path class="fil0" d="M70.43 153.64l0 2.5 1.87 0c0.67,0 1.14,-0.1 1.42,-0.29 0.28,-0.19 0.42,-0.52 0.42,-0.99 0,-0.82 -0.56,-1.22 -1.66,-1.22l-2.05 0 0 0zm-1.42 -1.19l3.83 0c0.73,0 1.29,0.12 1.7,0.36 0.67,0.4 1.01,1.03 1.01,1.88 0,1.01 -0.44,1.68 -1.33,2 0.38,0.08 0.67,0.28 0.88,0.6 0.14,0.22 0.23,0.5 0.28,0.85 0.01,0.07 0.03,0.28 0.06,0.63l0.05 0.49c0.06,0.61 0.15,0.99 0.28,1.15l0.08 0.11 -1.52 0c-0.03,-0.05 -0.07,-0.17 -0.12,-0.34 -0.04,-0.18 -0.07,-0.36 -0.09,-0.55l-0.04 -0.73c-0.05,-0.65 -0.19,-1.1 -0.44,-1.34 -0.25,-0.24 -0.69,-0.37 -1.33,-0.37l-1.88 0 0 3.33 -1.42 0 0 -8.07 0 0z"/>
    <path class="fil0" d="M78.26 157.05l3.02 0c-0.04,-0.48 -0.2,-0.86 -0.46,-1.15 -0.27,-0.28 -0.61,-0.42 -1.02,-0.42 -0.89,0 -1.4,0.52 -1.54,1.57l0 0zm2.99 1.64l1.24 0c-0.15,0.63 -0.47,1.11 -0.93,1.46 -0.47,0.35 -1.04,0.53 -1.72,0.53 -0.87,0 -1.56,-0.28 -2.09,-0.83 -0.53,-0.55 -0.79,-1.28 -0.79,-2.18 0,-0.92 0.26,-1.68 0.8,-2.27 0.53,-0.59 1.21,-0.88 2.04,-0.88 0.87,0 1.55,0.3 2.04,0.9 0.49,0.6 0.73,1.43 0.72,2.49l-4.32 0c0.05,1.21 0.58,1.81 1.6,1.81 0.69,0 1.16,-0.34 1.41,-1.03l0 0z"/>
    <path class="fil0" d="M88.44 156.37l-1.23 0c-0.08,-0.6 -0.49,-0.91 -1.24,-0.91 -0.71,0 -1.06,0.23 -1.06,0.68 0,0.23 0.09,0.39 0.26,0.48 0.17,0.1 0.58,0.22 1.22,0.36 0.85,0.18 1.44,0.41 1.77,0.67 0.34,0.26 0.5,0.63 0.5,1.12 0,0.59 -0.23,1.05 -0.69,1.4 -0.46,0.34 -1.09,0.51 -1.89,0.51 -1.66,0 -2.53,-0.68 -2.6,-2.03l1.24 0c0.08,0.71 0.55,1.07 1.41,1.07 0.39,0 0.7,-0.07 0.92,-0.23 0.23,-0.15 0.34,-0.35 0.34,-0.61 0,-0.23 -0.09,-0.4 -0.26,-0.51 -0.18,-0.11 -0.56,-0.23 -1.13,-0.36 -0.64,-0.16 -1.03,-0.26 -1.16,-0.3 -0.19,-0.05 -0.36,-0.13 -0.52,-0.22 -0.47,-0.26 -0.7,-0.68 -0.7,-1.24 0,-0.54 0.21,-0.96 0.63,-1.27 0.42,-0.32 1,-0.47 1.74,-0.47 1.53,0 2.35,0.63 2.45,1.86l0 0z"/>
    <path class="fil0" d="M107.1 155.55c-0.5,0 -0.89,0.18 -1.19,0.54 -0.29,0.37 -0.44,0.86 -0.44,1.48 0,0.65 0.15,1.15 0.44,1.52 0.29,0.38 0.68,0.56 1.17,0.56 0.49,0 0.89,-0.19 1.18,-0.56 0.29,-0.38 0.44,-0.88 0.44,-1.51 0,-0.62 -0.14,-1.11 -0.43,-1.48 -0.28,-0.37 -0.67,-0.55 -1.17,-0.55l0 0zm-1.59 -3.1l0 2.99c0.46,-0.62 1.09,-0.92 1.9,-0.92 0.78,0 1.41,0.28 1.88,0.83 0.47,0.56 0.71,1.3 0.71,2.22 0,0.94 -0.25,1.69 -0.74,2.26 -0.49,0.57 -1.14,0.85 -1.94,0.85 -0.87,0 -1.5,-0.32 -1.9,-0.96l0 0.8 -1.21 0 0 -8.07 1.3 0 0 0z"/>
    <path class="fil0" d="M102.44 154.68l0 5.84 -1.21 0 0 -0.87c-0.5,0.69 -1.14,1.03 -1.93,1.03 -0.71,0 -1.26,-0.23 -1.63,-0.7 -0.25,-0.32 -0.38,-0.84 -0.38,-1.55l0 -3.75 1.3 0 0 3.34c0,0.45 0.03,0.78 0.1,0.98 0.13,0.4 0.47,0.6 1.04,0.6 0.58,0 0.99,-0.26 1.23,-0.77 0.12,-0.26 0.18,-0.69 0.18,-1.29l0 -2.86 1.3 0 0 0z"/>
    <path class="fil0" d="M92.94 155.55c-0.5,0 -0.9,0.18 -1.19,0.54 -0.29,0.37 -0.44,0.87 -0.44,1.5 0,0.65 0.15,1.15 0.45,1.52 0.29,0.36 0.7,0.54 1.21,0.54 0.5,0 0.89,-0.18 1.17,-0.54 0.29,-0.37 0.43,-0.86 0.43,-1.48 0,-0.64 -0.15,-1.14 -0.44,-1.52 -0.3,-0.37 -0.69,-0.56 -1.19,-0.56zm-1.66 -0.87l0 0.77c0.46,-0.62 1.09,-0.93 1.91,-0.93 0.8,0 1.45,0.28 1.94,0.84 0.49,0.56 0.74,1.3 0.74,2.23 0,0.94 -0.24,1.69 -0.71,2.25 -0.47,0.56 -1.1,0.84 -1.89,0.84 -0.84,0 -1.47,-0.31 -1.91,-0.92l0 2.93 -1.29 0 0 -8.01 1.21 0 0 0z"/>
    <polygon class="fil0" points="112.8,160.52 111.51,160.52 111.51,152.45 112.8,152.45 "/>
    <path class="fil0" d="M115.89 160.52l-1.3 0 0 -5.84 1.3 0 0 5.84zm0 -6.85l-1.3 0 0 -1.22 1.3 0 0 1.22z"/>
    <path class="fil0" d="M122.89 154.68l-2.24 2.14 2.44 3.7 -1.57 0 -1.78 -2.83 -0.78 0.73 0 2.1 -1.29 0 0 -8.07 1.29 0 0 4.61c0.21,-0.24 0.35,-0.39 0.4,-0.45l1.94 -1.93 1.59 0 0 0z"/>
    <path class="fil0" d="M127.67 158.3l0 -0.69c-0.25,0.12 -0.71,0.23 -1.38,0.32 -0.48,0.07 -0.82,0.17 -1.01,0.31 -0.19,0.14 -0.29,0.36 -0.29,0.66 0,0.58 0.36,0.87 1.08,0.87 0.32,0 0.62,-0.06 0.9,-0.17 0.27,-0.12 0.46,-0.27 0.58,-0.46 0.08,-0.13 0.12,-0.42 0.12,-0.84l0 0zm-2.51 -1.81l-1.21 0c0.12,-1.31 0.99,-1.97 2.62,-1.97 0.92,0 1.58,0.2 1.98,0.62 0.26,0.26 0.39,0.67 0.39,1.23 0,0.23 -0.01,0.5 -0.01,0.84 0,0.05 -0.01,0.21 -0.01,0.47l-0.02 0.24 0 0.24 0 0.46c-0.01,0.16 -0.01,0.24 -0.01,0.26 0,0.36 0.02,0.58 0.05,0.67 0.04,0.08 0.14,0.13 0.29,0.13 0.1,0 0.19,-0.01 0.28,-0.03l0 0.91c-0.36,0.09 -0.64,0.13 -0.85,0.13 -0.55,0 -0.86,-0.23 -0.93,-0.7 -0.54,0.47 -1.23,0.7 -2.07,0.7 -0.6,0 -1.08,-0.15 -1.43,-0.47 -0.36,-0.31 -0.53,-0.74 -0.53,-1.27 0,-0.7 0.31,-1.2 0.93,-1.49 0.28,-0.14 0.6,-0.22 0.96,-0.25l0.24 -0.03 0.24 -0.03 0.24 -0.03c0.62,-0.06 0.99,-0.14 1.14,-0.22 0.14,-0.08 0.22,-0.25 0.22,-0.53 0,-0.6 -0.4,-0.9 -1.19,-0.9 -0.43,0 -0.74,0.08 -0.94,0.24 -0.2,0.15 -0.32,0.41 -0.38,0.78l0 0z"/>
    <path class="fil0" d="M135.26 156.37l-1.23 0c-0.08,-0.6 -0.5,-0.91 -1.25,-0.91 -0.7,0 -1.06,0.23 -1.06,0.68 0,0.23 0.09,0.39 0.26,0.48 0.18,0.1 0.58,0.22 1.23,0.36 0.84,0.18 1.43,0.41 1.77,0.67 0.33,0.26 0.5,0.63 0.5,1.12 0,0.59 -0.23,1.05 -0.69,1.4 -0.46,0.34 -1.09,0.51 -1.89,0.51 -1.66,0 -2.53,-0.68 -2.61,-2.03l1.24 0c0.08,0.71 0.55,1.07 1.42,1.07 0.38,0 0.69,-0.07 0.92,-0.23 0.22,-0.15 0.34,-0.35 0.34,-0.61 0,-0.23 -0.09,-0.4 -0.27,-0.51 -0.18,-0.11 -0.55,-0.23 -1.13,-0.36 -0.63,-0.16 -1.02,-0.26 -1.16,-0.3 -0.18,-0.05 -0.36,-0.13 -0.52,-0.22 -0.47,-0.26 -0.7,-0.68 -0.7,-1.24 0,-0.54 0.21,-0.96 0.63,-1.27 0.43,-0.32 1.01,-0.47 1.74,-0.47 1.53,0 2.35,0.63 2.46,1.86l0 0z"/>
    <polygon class="fil0" points="138.18,160.52 136.88,160.52 136.88,154.68 138.18,154.68 "/>
    <path class="fil0" d="M140.8 154.68l0 0.86c0.51,-0.68 1.16,-1.02 1.95,-1.02 0.8,0 1.36,0.27 1.69,0.82 0.2,0.32 0.3,0.81 0.3,1.45l0 3.73 -1.3 0 0 -3.4c0,-0.44 -0.04,-0.75 -0.11,-0.96 -0.14,-0.37 -0.48,-0.56 -1.03,-0.56 -0.6,0 -1.01,0.24 -1.23,0.75 -0.12,0.26 -0.18,0.68 -0.18,1.24l0 2.92 -1.3 0 0 -5.83 1.21 0 0 0z"/>
    <polygon class="fil0" points="147.44,160.52 146.15,160.52 146.15,154.68 147.44,154.68 "/>
    <path class="fil0" d="M150.07 154.68l0 0.86c0.5,-0.68 1.15,-1.02 1.95,-1.02 0.79,0 1.36,0.27 1.69,0.82 0.19,0.32 0.29,0.81 0.29,1.45l0 3.73 -1.29 0 0 -3.4c0,-0.44 -0.04,-0.75 -0.11,-0.96 -0.14,-0.37 -0.48,-0.56 -1.03,-0.56 -0.6,0 -1.01,0.24 -1.24,0.75 -0.12,0.26 -0.18,0.68 -0.18,1.24l0 2.92 -1.3 0 0 -5.83 1.22 0 0 0z"/>
    <path class="fil0" d="M33.86 180.25l-1.25 0 0 -1.23 1.25 0 0 1.23zm0.04 9.14l-1.41 0 0 -8.07 1.41 0 0 8.07z"/>
    <path class="fil0" d="M36.99 183.54l0 0.86c0.51,-0.68 1.16,-1.01 1.95,-1.01 0.8,0 1.36,0.27 1.7,0.82 0.19,0.32 0.29,0.81 0.29,1.45l0 3.73 -1.3 0 0 -3.4c0,-0.44 -0.04,-0.76 -0.11,-0.96 -0.14,-0.38 -0.48,-0.57 -1.03,-0.57 -0.6,0 -1.01,0.25 -1.23,0.75 -0.12,0.27 -0.18,0.69 -0.18,1.25l0 2.93 -1.3 0 0 -5.85 1.21 0 0 0z"/>
    <path class="fil0" d="M47.9 183.54l-2.24 2.15 2.44 3.7 -1.57 0 -1.78 -2.83 -0.77 0.72 0 2.11 -1.3 0 0 -8.07 1.3 0 0 4.61c0.2,-0.24 0.34,-0.39 0.39,-0.45l1.95 -1.94 1.58 0 0 0z"/>
    <path class="fil0" d="M50.45 189.39l-1.29 0 0 -5.85 1.29 0 0 5.85zm0 -6.85l-1.29 0 0 -1.22 1.29 0 0 1.22z"/>
    <path class="fil0" d="M56.69 185.24l-1.24 0c-0.08,-0.61 -0.49,-0.91 -1.25,-0.91 -0.71,0 -1.06,0.23 -1.06,0.68 0,0.22 0.09,0.39 0.26,0.48 0.17,0.1 0.58,0.22 1.23,0.35 0.85,0.19 1.44,0.41 1.77,0.68 0.34,0.26 0.5,0.63 0.5,1.12 0,0.58 -0.23,1.05 -0.69,1.4 -0.39,0.28 -0.91,0.45 -1.54,0.5l-0.4 0.57c0.18,-0.04 0.33,-0.05 0.43,-0.05 0.28,0 0.51,0.07 0.69,0.21 0.18,0.15 0.27,0.34 0.27,0.57 0,0.33 -0.12,0.58 -0.37,0.77 -0.24,0.19 -0.57,0.29 -1,0.29 -0.38,0 -0.78,-0.08 -1.19,-0.25l0.21 -0.44c0.28,0.11 0.55,0.17 0.81,0.17 0.42,0 0.63,-0.15 0.63,-0.45 0,-0.28 -0.19,-0.43 -0.57,-0.43 -0.11,0 -0.25,0.03 -0.41,0.09l-0.22 -0.21 0.61 -0.83c-1.56,-0.05 -2.37,-0.73 -2.44,-2.04l1.24 0c0.08,0.71 0.55,1.08 1.41,1.08 0.39,0 0.7,-0.07 0.92,-0.24 0.23,-0.15 0.34,-0.36 0.34,-0.62 0,-0.21 -0.08,-0.38 -0.26,-0.49 -0.18,-0.11 -0.56,-0.24 -1.13,-0.37 -0.64,-0.15 -1.02,-0.25 -1.16,-0.3 -0.19,-0.04 -0.36,-0.12 -0.52,-0.21 -0.47,-0.26 -0.7,-0.69 -0.7,-1.24 0,-0.54 0.21,-0.97 0.63,-1.27 0.43,-0.31 1,-0.46 1.74,-0.46 1.53,0 2.35,0.61 2.46,1.85l0 0z"/>
    <path class="fil0" d="M61.86 187.16l0 -0.69c-0.25,0.13 -0.71,0.24 -1.38,0.33 -0.49,0.07 -0.82,0.17 -1.01,0.31 -0.19,0.14 -0.29,0.36 -0.29,0.66 0,0.58 0.36,0.87 1.08,0.87 0.32,0 0.62,-0.06 0.89,-0.18 0.28,-0.11 0.47,-0.26 0.58,-0.45 0.08,-0.14 0.13,-0.42 0.13,-0.85l0 0zm-2.51 -1.8l-1.21 0c0.12,-1.32 0.99,-1.97 2.61,-1.97 0.92,0 1.59,0.2 1.99,0.61 0.26,0.27 0.39,0.68 0.39,1.24 0,0.22 -0.01,0.5 -0.02,0.83 0,0.06 0,0.22 -0.01,0.48l-0.01 0.24 0 0.24 0 0.46c-0.01,0.15 -0.01,0.24 -0.01,0.25 0,0.37 0.02,0.59 0.05,0.68 0.04,0.08 0.13,0.12 0.29,0.12 0.09,0 0.19,0 0.28,-0.02l0 0.91c-0.36,0.09 -0.64,0.13 -0.85,0.13 -0.55,0 -0.86,-0.23 -0.93,-0.7 -0.54,0.47 -1.23,0.7 -2.07,0.7 -0.6,0 -1.08,-0.16 -1.43,-0.47 -0.36,-0.32 -0.53,-0.74 -0.53,-1.27 0,-0.71 0.31,-1.2 0.93,-1.49 0.28,-0.14 0.6,-0.22 0.95,-0.26l0.25 -0.02 0.24 -0.04 0.24 -0.02c0.61,-0.06 0.99,-0.14 1.14,-0.22 0.14,-0.08 0.22,-0.26 0.22,-0.53 0,-0.6 -0.4,-0.9 -1.19,-0.9 -0.43,0 -0.74,0.08 -0.94,0.23 -0.2,0.16 -0.32,0.42 -0.38,0.79l0 0z"/>
    <path class="fil0" d="M67.73 181.3l0 1.01c-0.22,-0.02 -0.41,-0.04 -0.55,-0.04 -0.24,0 -0.41,0.06 -0.51,0.16 -0.09,0.11 -0.14,0.29 -0.14,0.54l0 0.57 1.09 0 0 0.95 -1.09 0 0 4.9 -1.3 0 0 -4.9 -0.96 0 0 -0.95 0.96 0 0 -0.35c0,-0.67 0.12,-1.14 0.35,-1.4 0.32,-0.35 0.8,-0.52 1.46,-0.52 0.17,0 0.4,0.01 0.69,0.03l0 0z"/>
    <polygon class="fil0" points="70.12,189.39 68.83,189.39 68.83,183.54 70.12,183.54 "/>
    <path class="fil0" d="M79.59 186.17l-0.66 -1.8c-0.2,-0.52 -0.38,-1.08 -0.56,-1.7 -0.11,0.38 -0.3,0.94 -0.57,1.67l-0.67 1.83 2.46 0zm-0.45 -4.85l3.1 8.07 -1.51 0 -0.78 -2.14 -3.18 0 -0.8 2.14 -1.46 0 3.12 -8.07 1.51 0 0 0z"/>
    <path class="fil0" d="M85.82 184.42c-0.47,0 -0.84,0.17 -1.11,0.52 -0.27,0.35 -0.41,0.83 -0.41,1.42 0,0.6 0.14,1.07 0.41,1.42 0.27,0.35 0.64,0.52 1.11,0.52 0.49,0 0.87,-0.17 1.15,-0.53 0.29,-0.35 0.43,-0.82 0.43,-1.43 0,-0.6 -0.14,-1.08 -0.42,-1.42 -0.28,-0.34 -0.67,-0.5 -1.16,-0.5l0 0zm2.83 -0.88l0 5.17c0,0.85 -0.13,1.48 -0.39,1.89 -0.45,0.72 -1.26,1.08 -2.43,1.08 -1.59,0 -2.47,-0.6 -2.63,-1.79l1.31 0c0.12,0.58 0.57,0.87 1.35,0.87 0.54,0 0.93,-0.14 1.18,-0.41 0.24,-0.28 0.36,-0.71 0.36,-1.31l0 -0.69c-0.4,0.65 -1.02,0.98 -1.85,0.98 -0.78,0 -1.39,-0.26 -1.86,-0.79 -0.45,-0.53 -0.69,-1.24 -0.69,-2.13 0,-0.91 0.24,-1.64 0.73,-2.2 0.47,-0.55 1.11,-0.82 1.91,-0.82 0.76,0 1.36,0.32 1.8,0.98l0 -0.83 1.21 0z"/>
    <path class="fil0" d="M91.39 185.92l3.02 0c-0.04,-0.48 -0.2,-0.86 -0.46,-1.15 -0.27,-0.28 -0.61,-0.43 -1.02,-0.43 -0.89,0 -1.4,0.53 -1.54,1.58l0 0zm2.99 1.64l1.24 0c-0.15,0.62 -0.47,1.11 -0.93,1.46 -0.47,0.35 -1.04,0.53 -1.72,0.53 -0.87,0 -1.56,-0.28 -2.09,-0.83 -0.53,-0.55 -0.79,-1.28 -0.79,-2.19 0,-0.92 0.26,-1.67 0.8,-2.26 0.53,-0.59 1.21,-0.88 2.04,-0.88 0.87,0 1.55,0.3 2.04,0.9 0.49,0.6 0.73,1.43 0.72,2.49l-4.32 0c0.05,1.21 0.58,1.81 1.6,1.81 0.69,0 1.16,-0.34 1.41,-1.03l0 0z"/>
    <path class="fil0" d="M98.32 183.54l0 0.86c0.51,-0.68 1.16,-1.01 1.95,-1.01 0.8,0 1.36,0.27 1.69,0.82 0.2,0.32 0.29,0.81 0.29,1.45l0 3.73 -1.29 0 0 -3.4c0,-0.44 -0.04,-0.76 -0.11,-0.96 -0.14,-0.38 -0.48,-0.57 -1.03,-0.57 -0.6,0 -1.01,0.25 -1.24,0.75 -0.12,0.27 -0.18,0.69 -0.18,1.25l0 2.93 -1.29 0 0 -5.85 1.21 0 0 0z"/>
    <path class="fil0" d="M106.67 183.54l0 0.95 -1.17 0 0 3.07c0,0.49 0.1,0.76 0.3,0.83 0.09,0.02 0.22,0.03 0.39,0.03 0.13,0 0.29,-0.01 0.48,-0.03l0 1.01c-0.31,0.03 -0.59,0.05 -0.83,0.05 -0.76,0 -1.25,-0.18 -1.46,-0.56 -0.12,-0.21 -0.18,-0.75 -0.18,-1.62l0 -2.78 -0.98 0 0 -0.95 0.98 0 0 -1.75 1.3 0 0 1.75 1.17 0 0 0z"/>
    <polygon class="fil0" points="109.31,189.39 108.02,189.39 108.02,181.32 109.31,181.32 "/>
    <path class="fil0" d="M112.4 189.39l-1.3 0 0 -5.85 1.3 0 0 5.85zm0 -6.85l-1.3 0 0 -1.22 1.3 0 0 1.22z"/>
    <path class="fil0" d="M119.2 183.54l-2.17 5.74c-0.34,0.92 -0.62,1.51 -0.82,1.76 -0.31,0.39 -0.77,0.59 -1.35,0.59 -0.25,0 -0.54,-0.02 -0.89,-0.07l0 -1.08c0.29,0.05 0.51,0.07 0.67,0.07 0.3,0 0.53,-0.14 0.66,-0.43 0.18,-0.37 0.29,-0.68 0.33,-0.92l-2.23 -5.66 1.42 0 1.14 3.15c0.1,0.29 0.24,0.74 0.41,1.36 0.1,-0.36 0.24,-0.84 0.43,-1.44l1.06 -3.07 1.34 0 0 0z"/>
    <path class="fil0" d="M121.51 189.39l-1.29 0 0 -5.85 1.29 0 0 5.85zm0 -6.85l-1.29 0 0 -1.22 1.29 0 0 1.22z"/>
   </g>
   <path class="fil1" d="M113.32 100.51l0 0c-0.55,0 -0.99,0.45 -0.99,0.99 -0.01,19.54 -15.91,35.43 -35.45,35.43l-0.03 0c-19.54,-0.02 -35.44,-15.93 -35.42,-35.48 0.02,-22.88 14.58,-40.22 30.32,-55.55l0 0 1.24 -1.2 2.01 -0.55 1.99 3.48 1.99 -3.48 3.88 1.06 -1.05 -3.89 3.48 -1.99 -3.48 -1.99 1.05 -3.87 -3.88 1.06 -1.99 -3.49 -1.99 3.49 -3.87 -1.06 1.05 3.87 -3.48 1.99 3.48 1.99 -0.51 1.9 -1.3 1.27 0 0c-16.05,15.63 -30.9,33.35 -30.92,56.96 -0.02,20.64 16.76,37.44 37.4,37.46l0.03 0c20.63,0 37.42,-16.77 37.43,-37.4 0,-0.55 -0.44,-1 -0.99,-1l0 0z"/>
   <path class="fil1" d="M80.3 31.08c0.58,0.25 1.2,0.2 1.72,-0.16 4.46,-3.05 8.16,-7.35 10.5,-12.67 2.33,-5.32 2.99,-10.94 2.22,-16.29 -0.09,-0.62 -0.46,-1.12 -1.04,-1.37 -0.57,-0.25 -1.2,-0.2 -1.72,0.16 -4.46,3.04 -8.16,7.33 -10.49,12.66 -2.34,5.3 -3,10.94 -2.23,16.29 0.09,0.62 0.47,1.12 1.04,1.37l0 0.01z"/>
   <path class="fil1" d="M73.68 47.6c-0.57,-0.25 -1.19,-0.2 -1.72,0.16 -4.46,3.05 -8.15,7.34 -10.48,12.66 -2.35,5.31 -3.01,10.93 -2.24,16.3 0.1,0.62 0.47,1.12 1.05,1.37 0.57,0.25 1.19,0.19 1.71,-0.16 4.47,-3.05 8.16,-7.36 10.5,-12.67 2.34,-5.32 3,-10.94 2.23,-16.29 -0.1,-0.63 -0.47,-1.12 -1.05,-1.37l0 0z"/>
   <path class="fil1" d="M71.79 30.93c0.5,0.38 1.12,0.46 1.7,0.23 0.59,-0.23 0.99,-0.7 1.1,-1.33 1,-5.31 0.57,-10.96 -1.53,-16.38 -2.11,-5.41 -5.62,-9.85 -9.95,-13.09 -0.5,-0.37 -1.12,-0.46 -1.7,-0.23 -0.59,0.23 -0.99,0.71 -1.1,1.33 -1,5.31 -0.58,10.96 1.54,16.37 2.09,5.41 5.6,9.85 9.94,13.09l0 0.01z"/>
   <path class="fil1" d="M80.49 47.52c-0.58,0.23 -0.98,0.71 -1.1,1.33 -1,5.31 -0.58,10.96 1.54,16.37 2.1,5.41 5.61,9.86 9.94,13.1 0.51,0.37 1.12,0.47 1.71,0.24 0.58,-0.24 0.98,-0.71 1.1,-1.34 1,-5.3 0.57,-10.96 -1.53,-16.37 -2.12,-5.41 -5.62,-9.86 -9.95,-13.09 -0.51,-0.38 -1.12,-0.47 -1.71,-0.24l0 0z"/>
   <path class="fil1" d="M51.07 34.84c5.31,2.35 10.93,3.01 16.3,2.24 0.62,-0.1 1.12,-0.47 1.37,-1.04 0.25,-0.58 0.19,-1.2 -0.16,-1.72 -3.05,-4.46 -7.36,-8.16 -12.67,-10.5 -5.32,-2.33 -10.94,-2.99 -16.29,-2.22 -0.63,0.09 -1.12,0.46 -1.37,1.04 -0.25,0.57 -0.2,1.2 0.16,1.72 3.05,4.46 7.34,8.15 12.66,10.48l0 0z"/>
   <path class="fil1" d="M102.92 43.83c-5.32,-2.33 -10.95,-2.99 -16.3,-2.22 -0.62,0.1 -1.11,0.47 -1.37,1.04 -0.24,0.58 -0.19,1.2 0.17,1.72 3.04,4.46 7.34,8.16 12.66,10.49 5.31,2.34 10.93,3 16.29,2.23 0.63,-0.09 1.12,-0.46 1.37,-1.04 0.25,-0.57 0.2,-1.19 -0.16,-1.72 -3.05,-4.46 -7.35,-8.15 -12.66,-10.5l0 0z"/>
   <path class="fil1" d="M55.49 54.49c5.41,-2.09 9.85,-5.6 13.1,-9.94 0.37,-0.51 0.46,-1.12 0.23,-1.7 -0.23,-0.59 -0.71,-0.99 -1.33,-1.11 -5.31,-0.99 -10.97,-0.56 -16.38,1.53 -5.41,2.12 -9.85,5.63 -13.09,9.96 -0.38,0.5 -0.46,1.12 -0.23,1.7 0.23,0.58 0.7,0.99 1.33,1.1 5.31,1 10.95,0.58 16.37,-1.54l0 0z"/>
   <path class="fil1" d="M116.21 23.76c-0.23,-0.58 -0.7,-0.99 -1.33,-1.1 -5.31,-1 -10.96,-0.57 -16.37,1.53 -5.42,2.11 -9.86,5.62 -13.1,9.95 -0.37,0.51 -0.46,1.12 -0.23,1.7 0.23,0.59 0.71,0.99 1.33,1.11 5.31,1 10.96,0.57 16.37,-1.54 5.41,-2.1 9.85,-5.61 13.1,-9.95 0.38,-0.5 0.46,-1.12 0.23,-1.7z"/>
   <path class="fil2" d="M53.96 102.28l5.56 -4.84 2.43 0 -4.48 3.94 4.93 6.86 -2.15 0 -4.08 -5.65 -2.21 1.86 0 3.79 -1.77 0 0 -10.8 1.77 0 0 4.84zm13.48 6.23c-1.54,0 -2.9,-0.5 -3.99,-1.6 -1.1,-1.11 -1.58,-2.49 -1.58,-4.04 0,-1.55 0.48,-2.93 1.59,-4.04 1.09,-1.1 2.44,-1.6 3.98,-1.6 1.55,0 2.91,0.5 4.01,1.6 1.1,1.11 1.59,2.49 1.59,4.04 0,1.55 -0.49,2.93 -1.59,4.04 -1.1,1.1 -2.46,1.6 -4.01,1.6zm16.25 -6.38c0.41,0.28 0.76,0.63 1.02,1.06 0.32,0.52 0.46,1.1 0.46,1.71 0,0.95 -0.3,1.8 -1.02,2.44 -0.75,0.67 -1.72,0.9 -2.7,0.9l-6.66 0 0 -10.78 6.33 0c0.85,0 1.79,0.15 2.46,0.71 0.64,0.53 0.86,1.29 0.86,2.1 0,0.42 -0.07,0.83 -0.26,1.21 -0.13,0.25 -0.29,0.47 -0.49,0.65zm3.58 6.11l0 -10.84 1.79 0 0 10.84 -1.79 0zm-0.29 -13.28c0,-0.33 0.12,-0.61 0.35,-0.84 0.23,-0.22 0.51,-0.34 0.83,-0.34 0.33,0 0.6,0.11 0.83,0.34 0.23,0.23 0.34,0.52 0.34,0.84 0,0.32 -0.11,0.6 -0.34,0.83 -0.23,0.22 -0.51,0.33 -0.83,0.33 -0.32,0 -0.6,-0.12 -0.83,-0.34 -0.22,-0.23 -0.35,-0.5 -0.35,-0.82l0 0zm11.64 10.51l-5.38 0 -1.36 2.77 -1.92 0 5.29 -10.78 1.37 0 5.34 10.78 -1.94 0 -1.4 -2.77zm-31.18 1.34c1.06,0 1.97,-0.34 2.7,-1.11 0.75,-0.78 1.07,-1.75 1.07,-2.83 0,-1.08 -0.32,-2.05 -1.07,-2.84 -0.73,-0.76 -1.64,-1.1 -2.7,-1.1 -1.05,0 -1.96,0.34 -2.69,1.11 -0.75,0.78 -1.07,1.75 -1.07,2.83 0,1.08 0.31,2.05 1.07,2.83 0.73,0.77 1.64,1.11 2.69,1.11l0 0zm9.12 -0.25l5.14 0c0.45,0 0.88,-0.11 1.21,-0.44 0.32,-0.33 0.43,-0.78 0.43,-1.24 0,-0.46 -0.11,-0.9 -0.43,-1.23 -0.33,-0.34 -0.76,-0.45 -1.21,-0.45l-5.14 0 0 3.36zm0 -5.04l4.67 0c0.37,0 0.79,-0.06 1.08,-0.31 0.26,-0.22 0.34,-0.53 0.34,-0.87 0,-0.33 -0.06,-0.67 -0.33,-0.9 -0.28,-0.25 -0.73,-0.3 -1.09,-0.3l-4.67 0 0 2.38 0 0zm17.51 2.26l3.74 0 -1.88 -3.76 -1.86 3.76z"/>
  </g>
 </g>
</svg>
