<?xml version="1.0" encoding="UTF-8"?>
<svg version="1.1" xmlns="http://www.w3.org/2000/svg" width="1563" height="1563">
<path d="M0 0 C3.66754788 1.63253978 7.3724279 3.15257387 11.09082031 4.66455078 C22.57564357 9.3611994 33.97292376 14.23957642 45.23925781 19.44189453 C45.23925781 20.10189453 45.23925781 20.76189453 45.23925781 21.44189453 C44.6764209 21.72798584 44.11358398 22.01407715 43.53369141 22.30883789 C32.0503125 28.16987773 20.87867065 34.1352035 10.23925781 41.44189453 C9.26641846 42.1002832 9.26641846 42.1002832 8.27392578 42.77197266 C-19.27856068 61.46528501 -44.39649449 84.17242362 -64.49755859 110.78466797 C-65.7356008 112.40891043 -66.99856386 114.00973668 -68.27246094 115.60595703 C-79.61652345 129.89378821 -88.84593503 145.56036857 -97.76074219 161.44189453 C-98.14439941 162.11591309 -98.52805664 162.78993164 -98.92333984 163.484375 C-141.14630379 238.00315698 -154.36262652 329.25603884 -153.74536133 413.92669678 C-153.25095623 488.55801357 -171.05202315 561.89418021 -210.76074219 625.44189453 C-211.14182129 626.05307129 -211.52290039 626.66424805 -211.91552734 627.29394531 C-222.53572988 644.15116779 -235.32781401 659.77599227 -248.76074219 674.44189453 C-249.66368812 675.44916755 -250.56600465 676.45700503 -251.46777344 677.46533203 C-262.29336785 689.48681978 -274.0541246 700.42629974 -286.76074219 710.44189453 C-287.82505879 711.29802613 -288.88883528 712.15482948 -289.95214844 713.01220703 C-359.28075054 768.59712146 -448.49168607 800.12123312 -536.76074219 806.44189453 C-537.88472412 806.52947021 -539.00870605 806.6170459 -540.16674805 806.70727539 C-553.5434374 807.67202632 -566.91920116 807.55408427 -580.32324219 807.50439453 C-582.70279853 807.4993665 -585.08235591 807.49480591 -587.46191406 807.49072266 C-593.22821312 807.47982722 -598.99447265 807.46319366 -604.76074219 807.44189453 C-516.0258242 822.49746294 -420.75272721 823.83529393 -315.76074219 781.44189453 C-314.91592285 781.05308105 -314.07110352 780.66426758 -313.20068359 780.26367188 C-292.21203244 770.51024362 -272.69148979 758.0517824 -254.76074219 743.44189453 C-254.19339355 742.98878906 -253.62604492 742.53568359 -253.04150391 742.06884766 C-244.67850465 735.36663819 -237.04462455 727.92684075 -229.44824219 720.37939453 C-228.52889893 719.46939697 -227.60955566 718.55939941 -226.66235352 717.62182617 C-220.60484753 711.5358632 -215.08429203 705.17575495 -209.76074219 698.44189453 C-208.90273232 697.38194766 -208.04467306 696.32204076 -207.18652344 695.26220703 C-149.67245972 621.90785589 -123.23503536 522.32662567 -119.26074219 411.75439453 C-117.79408454 329.42626003 -101.39612917 246.69335843 -25.76074219 103.44189453 C-25.35645996 102.89871582 -24.95217773 102.35553711 -24.53564453 101.79589844 C-9.413536 81.57914375 7.55899167 61.47001289 27.38769531 45.72705078 C30.01773864 43.61941332 32.57771597 41.45337085 35.13012695 39.25366211 C39.567794 35.43948501 44.04730686 31.69168559 48.73925781 28.19189453 C49.49207031 27.62986328 50.24488281 27.06783203 51.02050781 26.48876953 C53.90674857 25.12695171 55.18873603 25.6416182 58.23925781 26.44189453 C61.44244263 27.78293461 64.48298885 29.44404824 67.55175781 31.06689453 C68.92098389 31.78800415 68.92098389 31.78800415 70.31787109 32.52368164 C81.64090764 38.59322001 92.45169666 45.47729365 103.23925781 52.44189453 C103.96870605 52.90982422 104.6981543 53.37775391 105.44970703 53.85986328 C113.37812511 58.96104789 121.05312979 64.39673274 128.67675781 69.94189453 C129.52536377 70.55427979 130.37396973 71.16666504 131.24829102 71.79760742 C132.027771 72.37115967 132.80725098 72.94471191 133.61035156 73.53564453 C134.31087646 74.04804688 135.01140137 74.56044922 135.7331543 75.08837891 C136.23016846 75.53503906 136.72718262 75.98169922 137.23925781 76.44189453 C137.23925781 77.10189453 137.23925781 77.76189453 137.23925781 78.44189453 C136.68802246 78.70180176 136.13678711 78.96170898 135.56884766 79.22949219 C120.73720421 86.28300722 106.86584876 94.28057701 93.23925781 103.44189453 C92.56427246 103.89419434 91.88928711 104.34649414 91.19384766 104.8125 C69.53458522 119.45981214 49.15743786 137.51136772 32.23925781 157.44189453 C31.44132813 158.35068359 30.64339844 159.25947266 29.82128906 160.19580078 C-25.70500817 223.86186461 -53.23153127 308.1745371 -67.73144531 472.84179688 C-67.29314068 567.47907107 -96.06411752 665.16722599 -162.81933594 734.58251953 C-163.94219057 735.69287021 -165.07182166 736.79643517 -166.20996094 737.89111328 C-167.87864278 739.55979512 -169.37119406 741.32004385 -170.88574219 743.12939453 C-176.01931903 749.0633063 -181.9121263 754.23083633 -187.76074219 759.44189453 C-188.32212891 759.94269531 -188.88351562 760.44349609 -189.46191406 760.95947266 C-213.56036488 782.32769436 -240.9895558 800.98436097 -269.76074219 815.44189453 C-271.29964111 816.2235498 -271.29964111 816.2235498 -272.86962891 817.02099609 C-325.21728021 843.45730435 -381.59038132 858.84474558 -439.76074219 865.44189453 C-440.7994043 865.56048828 -441.83806641 865.67908203 -442.90820312 865.80126953 C-468.38496796 868.53005276 -494.17961198 867.63469076 -519.76074219 867.44189453 C-438.25594005 879.94547213 -353.33729283 884.1920124 -273.76074219 858.44189453 C-272.2706665 857.96695557 -272.2706665 857.96695557 -270.75048828 857.48242188 C-254.52646784 852.26109744 -239.0529903 845.95897581 -223.76074219 838.44189453 C-222.91431152 838.0282666 -222.06788086 837.61463867 -221.19580078 837.18847656 C-203.98266315 828.6931922 -187.84414499 818.30780899 -172.76074219 806.44189453 C-171.93960937 805.81283203 -171.11847656 805.18376953 -170.27246094 804.53564453 C-153.2642522 791.29799563 -136.85918934 775.56090751 -123.76074219 758.44189453 C-122.98988281 757.47638672 -122.21902344 756.51087891 -121.42480469 755.51611328 C-68.62130612 688.63723418 -45.58150427 603.56749662 -33.19824219 470.69189453 C-31.82284767 387.6685265 -14.54687943 304.97075566 83.26269531 135.60205078 C85.1305128 133.56074037 86.93873172 131.48000831 88.73925781 129.37939453 C94.43418366 122.85587671 100.60723895 116.84594948 107.18847656 111.22314453 C108.57065719 110.02262193 109.92744631 108.79230848 111.25878906 107.53564453 C119.31062208 99.97735645 128.23044313 93.56219062 137.10791016 87.01660156 C139.15896666 85.50121618 141.20102295 83.97446705 143.23925781 82.44189453 C147.39129386 84.14975172 150.52700124 87.08598941 153.86425781 90.00439453 C154.48381348 90.54088623 155.10336914 91.07737793 155.74169922 91.63012695 C160.12794896 95.43959676 164.46778646 99.29915427 168.76269531 103.21142578 C170.09219247 104.40881202 171.4276878 105.60040609 172.796875 106.75219727 C180.1901425 113.02698087 186.91102985 120.00547262 193.73925781 126.87939453 C195.05152367 128.19668512 196.36402176 129.51374439 197.67675781 130.83056641 C200.86694287 134.03168063 204.05396432 137.23591318 207.23925781 140.44189453 C206.23925781 143.44189453 206.23925781 143.44189453 204.51538086 144.5859375 C203.76812744 144.9483252 203.02087402 145.31071289 202.25097656 145.68408203 C201.40946045 146.10359131 200.56794434 146.52310059 199.70092773 146.95532227 C198.78545166 147.40464111 197.86997559 147.85395996 196.92675781 148.31689453 C162.31647038 165.89291681 129.00811273 192.39106849 104.23925781 222.44189453 C103.82240723 222.94495117 103.40555664 223.44800781 102.97607422 223.96630859 C44.62861916 294.66468479 18.03602887 382.07777792 8.23925781 482.44189453 C8.09895142 484.12230835 8.09895142 484.12230835 7.95581055 485.83666992 C6.83789308 501.07608002 6.91658486 516.37653156 6.76245117 531.64916992 C6.51174692 555.46307138 5.54576548 579.17161174 2.05175781 602.75439453 C1.94665894 603.4769342 1.84156006 604.19947388 1.73327637 604.94390869 C-3.26252866 638.94615747 -12.61696874 672.10570852 -26.76074219 703.44189453 C-27.19112793 704.40289063 -27.62151367 705.36388672 -28.06494141 706.35400391 C-34.66926777 720.97804433 -42.2945316 734.81722948 -50.76074219 748.44189453 C-51.43363281 749.53244141 -52.10652344 750.62298828 -52.79980469 751.74658203 C-59.45339208 762.0933501 -67.17460006 771.77063812 -74.76074219 781.44189453 C-75.24961914 782.06789551 -75.73849609 782.69389648 -76.2421875 783.33886719 C-83.42634299 792.4250265 -91.6686416 800.55101453 -99.82324219 808.75439453 C-100.37832458 809.31492523 -100.93340698 809.87545593 -101.50531006 810.45297241 C-108.60056095 817.59995323 -115.8606462 824.18301277 -123.76074219 830.44189453 C-124.78848944 831.30504801 -125.81189667 832.17345281 -126.82714844 833.05126953 C-145.69882135 849.23542721 -166.79107975 862.52566483 -188.64013672 874.2890625 C-190.60989709 875.3598901 -192.55968655 876.45954625 -194.50683594 877.57080078 C-241.58352055 904.02236486 -296.56486127 918.84951293 -349.7411499 926.16192627 C-351.63390155 926.42431111 -353.52480065 926.6999632 -355.41552734 926.9765625 C-385.5226422 931.22702827 -416.4301203 929.7232298 -446.76074219 929.44189453 C-422.14106843 933.14238663 -397.59790285 936.58234872 -372.76074219 938.44189453 C-371.41665283 938.54775879 -371.41665283 938.54775879 -370.04541016 938.65576172 C-278.59712211 945.55958694 -175.25442029 929.75091462 -94.67675781 866.04150391 C-93.22730988 864.83141435 -91.75902711 863.64383784 -90.28222656 862.46728516 C-83.30766272 856.88862408 -76.92180499 850.90600427 -70.63574219 844.56689453 C-69.71148438 843.65037109 -68.78722656 842.73384766 -67.83496094 841.78955078 C-61.71300478 835.65032535 -56.14136696 829.23563987 -50.76074219 822.44189453 C-49.80768335 821.27280903 -48.85347936 820.10465483 -47.89746094 818.93798828 C-40.59358876 809.81688475 -34.050943 800.28625998 -27.76074219 790.44189453 C-27.36145508 789.81734375 -26.96216797 789.19279297 -26.55078125 788.54931641 C13.4199549 725.38653995 30.69037454 650.94502974 38.48925781 577.44189453 C38.57243256 576.66109528 38.6556073 575.88029602 38.74130249 575.07583618 C40.25914803 560.65830646 41.44968994 546.26296505 41.17675781 531.75439453 C40.84756565 485.49897721 48.29315228 438.29389124 59.23925781 393.44189453 C59.48724121 392.41999023 59.73522461 391.39808594 59.99072266 390.34521484 C76.88632244 321.82959697 106.93647942 255.1596723 153.90332031 201.95703125 C155.07577464 200.62730692 156.23660725 199.28735415 157.39550781 197.94580078 C167.24769389 186.71051935 177.84611322 175.71245615 189.62597656 166.48876953 C192.07272453 164.57233315 194.44670995 162.58618597 196.81323242 160.57202148 C202.05570954 156.11843278 207.39580104 152.07192071 213.23925781 148.44189453 C216.83382866 151.95257055 220.19184106 155.59507749 223.42675781 159.44189453 C224.143396 160.29328003 224.143396 160.29328003 224.87451172 161.16186523 C260.23925781 203.47221475 260.23925781 203.47221475 260.23925781 212.44189453 C258.90087891 213.70947266 258.90087891 213.70947266 257.01269531 214.97314453 C256.31764893 215.44816406 255.62260254 215.92318359 254.90649414 216.41259766 C253.77183716 217.16959961 253.77183716 217.16959961 252.61425781 217.94189453 C251.0406662 219.02235414 249.46907861 220.10573768 247.89941406 221.19189453 C247.11066895 221.73716797 246.32192383 222.28244141 245.50927734 222.84423828 C239.8938143 226.79644199 234.55795723 231.10291474 229.23925781 235.44189453 C228.6980127 235.87872559 228.15676758 236.31555664 227.59912109 236.765625 C213.31887709 248.35421549 199.42977875 261.41707866 188.15332031 275.97314453 C186.02551722 278.71757627 183.7615793 281.31610081 181.48925781 283.94189453 C158.8472434 311.11231182 141.59025364 343.88420295 128.23925781 376.44189453 C127.84786621 377.39435059 127.45647461 378.34680664 127.05322266 379.328125 C106.90966908 429.04759916 97.83715218 482.24699422 93.23925781 535.44189453 C93.08348267 537.2317981 93.08348267 537.2317981 92.92456055 539.05786133 C92.08415482 550.0153705 92.00456181 560.98390917 91.85165405 571.96820068 C90.88152108 638.29206815 83.23241995 702.93707064 54.23925781 763.44189453 C53.84625488 764.27027832 53.45325195 765.09866211 53.04833984 765.95214844 C47.17661637 778.26596432 40.59086013 789.95429232 33.23925781 801.44189453 C32.57410156 802.49505859 31.90894531 803.54822266 31.22363281 804.63330078 C13.75539254 831.60631885 -8.72879981 858.48754832 -34.11621094 878.35595703 C-36.55005328 880.2757086 -38.89380511 882.27441463 -41.23022461 884.31079102 C-61.32528372 901.73266831 -84.28031317 916.06261024 -107.76074219 928.44189453 C-108.60137207 928.89209961 -109.44200195 929.34230469 -110.30810547 929.80615234 C-186.96521311 970.6321133 -271.94501517 982.92007904 -357.76074219 982.44189453 C-340.61007174 985.03488508 -323.467608 987.53156604 -306.19824219 989.19189453 C-305.00835693 989.30702393 -303.81847168 989.42215332 -302.5925293 989.54077148 C-285.03978554 991.14996558 -267.5697968 991.64922755 -249.94824219 991.62939453 C-248.32810211 991.62798965 -248.32810211 991.62798965 -246.67523193 991.6265564 C-150.14152406 991.44564147 -56.49509097 964.58761207 14.23925781 896.44189453 C15.10421875 895.61818359 15.96917969 894.79447266 16.86035156 893.94580078 C21.6008177 889.33678604 25.82947401 884.44643435 29.95019531 879.27783203 C31.4174334 877.46005925 32.92024533 875.67010868 34.46582031 873.91845703 C96.3369916 803.35635198 120.98204064 696.5860919 125.84350586 584.81207275 C127.25095462 501.42073343 144.57047851 416.8561731 225.23925781 270.44189453 C225.9546875 269.52537109 226.67011719 268.60884766 227.40722656 267.66455078 C229.32067956 265.23032294 231.27162876 262.83250718 233.23925781 260.44189453 C234.02429687 259.47123047 234.80933594 258.50056641 235.61816406 257.50048828 C245.33154353 245.70884774 256.355207 235.13708701 267.23925781 224.44189453 C270.80145793 225.62929457 271.02397616 226.28370867 272.81347656 229.44580078 C273.30831543 230.31575684 273.8031543 231.18571289 274.31298828 232.08203125 C274.84553223 233.04641113 275.37807617 234.01079102 275.92675781 235.00439453 C276.48766113 236.01002441 277.04856445 237.0156543 277.62646484 238.05175781 C287.05482094 255.16076216 296.20557818 272.68598503 303.80175781 290.69189453 C304.22303955 291.67295166 304.22303955 291.67295166 304.65283203 292.67382812 C306.00869916 296.05470363 306.57113184 298.03534765 305.23925781 301.44189453 C303.40087891 303.60498047 303.40087891 303.60498047 301.01269531 305.92626953 C300.14515625 306.77962891 299.27761719 307.63298828 298.38378906 308.51220703 C297.46984375 309.39650391 296.55589844 310.28080078 295.61425781 311.19189453 C289.57159973 317.08589099 283.66652572 322.97182546 278.23925781 329.44189453 C277.46582031 330.35575928 277.46582031 330.35575928 276.67675781 331.28808594 C220.13030565 398.62488957 192.27888424 484.59436861 179.85165405 635.33547974 C179.28821791 675.35391964 179.28821791 675.35391964 177.23925781 693.44189453 C177.04807373 695.14297363 177.04807373 695.14297363 176.85302734 696.87841797 C169.32898663 761.33291704 147.73056325 825.97695914 107.23925781 877.44189453 C106.3438691 878.60399478 105.44938092 879.7667893 104.55566406 880.93017578 C99.75306766 887.15037077 94.84095791 893.18808537 89.50488281 898.96533203 C87.64723261 900.99593587 85.84684292 903.05592127 84.05175781 905.14111328 C73.8025944 916.88026731 62.54962911 927.89044333 50.23925781 937.44189453 C49.099097 938.38959158 47.96264708 939.3417635 46.82910156 940.29736328 C28.36221856 955.7910709 8.32577964 968.81397669 -12.76074219 980.44189453 C-13.80681641 981.02181152 -14.85289062 981.60172852 -15.93066406 982.19921875 C-54.60851031 1003.45561545 -96.7765934 1017.80383555 -139.76074219 1027.44189453 C-141.47567368 1027.83755615 -141.47567368 1027.83755615 -143.22525024 1028.24121094 C-152.07649336 1030.16711232 -160.45732828 1030.89516543 -169.54589844 1030.87548828 C-170.92313528 1030.88169634 -172.30036852 1030.88875309 -173.67759705 1030.89659119 C-177.31167939 1030.91165281 -180.9453383 1030.90449771 -184.57940674 1030.88872528 C-186.84175874 1030.87931753 -189.10408802 1030.87442914 -191.36645508 1030.87017822 C-214.3706528 1030.81181656 -236.9973191 1029.96358116 -259.76074219 1026.44189453 C-261.24635228 1026.21960391 -262.73203085 1025.99777054 -264.21777344 1025.77636719 C-314.87143243 1018.13976721 -363.1541007 1003.66860032 -409.76074219 982.44189453 C-410.7370459 981.99894043 -411.71334961 981.55598633 -412.71923828 981.09960938 C-415.63539103 979.76889151 -418.54333459 978.42196447 -421.44824219 977.06689453 C-422.76791992 976.45962524 -422.76791992 976.45962524 -424.11425781 975.84008789 C-424.92958984 975.45344971 -425.74492188 975.06681152 -426.58496094 974.66845703 C-427.29740967 974.33410645 -428.0098584 973.99975586 -428.74389648 973.65527344 C-430.76074219 972.44189453 -430.76074219 972.44189453 -434.76074219 968.44189453 C-426.84074219 969.92689453 -426.84074219 969.92689453 -418.76074219 971.44189453 C-420.25863281 971.08998047 -421.75652344 970.73806641 -423.29980469 970.37548828 C-434.93502571 967.55550521 -445.43467924 964.62424265 -455.76074219 958.44189453 C-456.50404785 958.00522461 -457.24735352 957.56855469 -458.01318359 957.11865234 C-477.07881708 945.85449252 -495.45350111 933.26111197 -512.76074219 919.44189453 C-511.44074219 919.11189453 -510.12074219 918.78189453 -508.76074219 918.44189453 C-509.95699219 918.17376953 -511.15324219 917.90564453 -512.38574219 917.62939453 C-524.68539684 913.46554888 -534.8106338 901.79930593 -543.97167969 893.02001953 C-546.4551039 890.64635108 -548.98718641 888.36018959 -551.59277344 886.12158203 C-556.63910413 881.74285929 -561.3489643 877.03768587 -566.07324219 872.31689453 C-566.96591797 871.43646484 -567.85859375 870.55603516 -568.77832031 869.64892578 C-569.63490234 868.79427734 -570.49148438 867.93962891 -571.37402344 867.05908203 C-572.14528564 866.29192871 -572.91654785 865.52477539 -573.71118164 864.734375 C-575.76784427 862.43395069 -577.22891845 860.11061649 -578.76074219 857.44189453 C-580.23838536 856.00399469 -580.23838536 856.00399469 -581.88574219 854.81689453 C-585.94950387 851.47576829 -589.05952021 847.57443732 -592.32714844 843.46923828 C-594.36856945 840.92974987 -596.46409613 838.45604222 -598.6015625 835.99755859 C-608.61711266 824.42774612 -617.44699882 811.89866491 -626.13574219 799.31689453 C-626.60625 798.6358667 -627.07675781 797.95483887 -627.56152344 797.25317383 C-630.76074219 792.56921127 -630.76074219 792.56921127 -630.76074219 791.44189453 C-628.71916019 791.41397016 -626.67745474 791.39510001 -624.63574219 791.37939453 C-623.49878906 791.36779297 -622.36183594 791.35619141 -621.19042969 791.34423828 C-617.71696743 791.37099839 -614.29542537 791.63937724 -610.83496094 791.93408203 C-599.80654 792.75689074 -588.75148298 792.64086187 -577.69824219 792.62939453 C-576.53712921 792.62845795 -575.37601624 792.62752136 -574.17971802 792.6265564 C-499.2563609 792.49550492 -423.40126962 778.0387957 -359.76074219 736.44189453 C-359.1676123 736.05437012 -358.57448242 735.6668457 -357.96337891 735.26757812 C-349.19015003 729.476494 -340.90239891 723.07918845 -332.76074219 716.44189453 C-332.19242676 715.97944336 -331.62411133 715.51699219 -331.03857422 715.04052734 C-318.32855723 704.61867604 -306.09501927 693.23587194 -295.97827148 680.24194336 C-293.73768271 677.41277759 -291.41080959 674.67674346 -289.06542969 671.93408203 C-283.82594753 665.70843158 -279.22968281 659.11497099 -274.76074219 652.31689453 C-274.37299622 651.73128754 -273.98525024 651.14568054 -273.58575439 650.54232788 C-267.12750936 640.77743355 -261.12273321 630.85345361 -255.76074219 620.44189453 C-255.24858154 619.4608374 -255.24858154 619.4608374 -254.72607422 618.45996094 C-252.3156111 613.82869918 -250.01266497 609.15205661 -247.76074219 604.44189453 C-247.41720703 603.7296875 -247.07367187 603.01748047 -246.71972656 602.28369141 C-215.05742192 536.12278793 -201.44388018 459.37278711 -200.1552124 386.44424438 C-198.73134408 306.55842261 -183.28290231 224.70239666 -87.76074219 55.44189453 C-86.93832031 54.50861328 -86.11589844 53.57533203 -85.26855469 52.61376953 C-73.656045 39.69529371 -61.51924518 27.07790039 -47.76074219 16.44189453 C-46.60060733 15.49583419 -45.44324142 14.54637213 -44.28808594 13.59423828 C-41.12984442 10.9930657 -37.91134843 8.48035643 -34.67382812 5.97900391 C-32.77849209 4.45615607 -30.99833063 2.84952692 -29.20605469 1.20751953 C-18.90085006 -7.68235363 -11.7597806 -5.27521377 0 0 Z M-576.76074219 857.44189453 C-572.76074219 858.44189453 -572.76074219 858.44189453 -572.76074219 858.44189453 Z M-499.76074219 920.44189453 C-495.76074219 921.44189453 -495.76074219 921.44189453 -495.76074219 921.44189453 Z M-410.76074219 973.44189453 C-406.76074219 974.44189453 -406.76074219 974.44189453 -406.76074219 974.44189453 Z M-369.76074219 980.44189453 C-369.76074219 980.77189453 -369.76074219 981.10189453 -369.76074219 981.44189453 C-367.78074219 981.44189453 -365.80074219 981.44189453 -363.76074219 981.44189453 C-363.76074219 981.11189453 -363.76074219 980.78189453 -363.76074219 980.44189453 C-365.74074219 980.44189453 -367.72074219 980.44189453 -369.76074219 980.44189453 Z " fill="#FFFFFF" transform="translate(966.7607421875,281.55810546875)"/>
<path d="M0 0 C0.69530823 0.08864319 1.39061646 0.17728638 2.10699463 0.26861572 C32.99529106 4.22914987 63.35597865 10.76063224 93 20.3125 C90.09276255 22.62153696 87.16661521 24.3432603 83.84375 25.9921875 C63.88162926 36.04392289 45.59364299 47.54224617 28 61.3125 C27.0409375 62.05757813 26.081875 62.80265625 25.09375 63.5703125 C10.00419319 75.5975769 -4.66548318 89.45163636 -17 104.3125 C-17.43860352 104.83199219 -17.87720703 105.35148437 -18.32910156 105.88671875 C-31.34049565 121.32656556 -43.06698792 137.72408286 -53 155.3125 C-53.44520996 156.09222168 -53.89041992 156.87194336 -54.34912109 157.67529297 C-98.39282283 235.14275755 -115.42793687 325.57135169 -114.94900513 414.04528809 C-114.50097502 502.33455191 -137.24593519 589.5027886 -193 659.3125 C-193.73605469 660.24191406 -194.47210937 661.17132812 -195.23046875 662.12890625 C-203.83085639 672.82991954 -213.22289508 682.6855554 -223 692.3125 C-223.77730469 693.09496094 -224.55460937 693.87742187 -225.35546875 694.68359375 C-235.34707841 704.61616879 -245.70223812 713.89285311 -257 722.3125 C-257.67901367 722.82135742 -258.35802734 723.33021484 -259.05761719 723.85449219 C-324.27182064 772.50635825 -402.70625995 800.62974712 -483.25 809.75 C-484.33840179 809.87598572 -484.33840179 809.87598572 -485.4487915 810.0045166 C-490.29293382 810.55417316 -495.13517564 810.99366981 -500 811.3125 C-501.13832779 811.38869568 -501.13832779 811.38869568 -502.2996521 811.46643066 C-504.61526254 811.60227388 -506.92768682 811.69002398 -509.24609375 811.76171875 C-509.95199646 811.803004 -510.65789917 811.84428925 -511.38519287 811.88682556 C-515.40392328 811.94650455 -516.79854237 811.50197225 -519.76586914 808.71118164 C-521.30925424 806.43099263 -522.68320687 804.35411017 -523.8125 801.859375 C-525.4443546 798.41882986 -527.20192527 795.08872974 -529.0625 791.765625 C-533.56605817 783.7084727 -537.91847907 775.59187975 -542 767.3125 C-536.46165003 766.59445012 -530.9487044 766.17297122 -525.37109375 765.91796875 C-485.84907389 764.09568158 -446.87810942 759.19984308 -409 747.3125 C-407.95038086 746.98411133 -406.90076172 746.65572266 -405.81933594 746.31738281 C-388.9210552 740.94320896 -372.90070916 734.14188316 -357 726.3125 C-356.24654297 725.9427002 -355.49308594 725.57290039 -354.71679688 725.19189453 C-318.97501603 707.43367219 -284.27222409 680.06296215 -260 648.3125 C-259.01151236 647.06293453 -258.02183665 645.81430839 -257.03125 644.56640625 C-244.38799301 628.50223479 -233.5078315 611.39938699 -224 593.3125 C-223.56478027 592.49120605 -223.12956055 591.66991211 -222.68115234 590.82373047 C-185.26626621 519.7502566 -169.89551298 436.15333156 -168.5 356.375 C-167.17725191 280.76332672 -152.28288895 204.48763888 -91 75.3125 C-90.6282666 74.72919922 -90.2565332 74.14589844 -89.87353516 73.54492188 C-87.65255765 70.0838205 -85.34816151 66.68827278 -83 63.3125 C-81.88431641 61.69214844 -81.88431641 61.69214844 -80.74609375 60.0390625 C-71.71985952 47.07407446 -61.68895009 34.93698203 -51 23.3125 C-49.56238617 21.6876007 -48.12488903 20.06259816 -46.6875 18.4375 C-43.12282991 14.47745277 -39.44469726 10.6510834 -35.6875 6.875 C-35.18371826 6.36662598 -34.67993652 5.85825195 -34.16088867 5.33447266 C-23.89726854 -4.88628954 -13.64150345 -1.77087612 0 0 Z " fill="#FFFFFF" transform="translate(847,252.6875)"/>
<path d="M0 0 C0 0.66 0 1.32 0 2 C-1.67881163 3.37632305 -3.42191742 4.67441182 -5.1875 5.9375 C-35.04146609 27.74065786 -59.72337141 55.21877854 -80 86 C-80.82010262 87.22670284 -81.64039876 88.45327634 -82.4609375 89.6796875 C-91.7939717 103.76967517 -99.71570017 118.76402784 -107 134 C-107.34353516 134.71220703 -107.68707031 135.42441406 -108.04101562 136.15820312 C-142.71905425 208.62072258 -152.19059316 289.71179402 -153.38751221 369.11138916 C-154.96964685 472.40604274 -188.1940193 566.72672207 -261.54544067 640.71966553 C-262.95581156 642.14290827 -264.36260878 643.5696896 -265.76928711 644.99658203 C-271.86816995 651.10255343 -278.23317258 656.64920102 -285 662 C-286.38945843 663.12613491 -287.77879237 664.25242343 -289.16796875 665.37890625 C-307.59412591 680.06797216 -327.30877048 692.75443497 -348 704 C-348.90008789 704.4945166 -349.80017578 704.9890332 -350.72753906 705.49853516 C-391.60432549 727.86087968 -451.96113858 755.52078332 -500 754 C-504.27246872 745.18030574 -508.21505011 736.25388502 -511.9375 727.1875 C-512.3389624 726.21474121 -512.7404248 725.24198242 -513.15405273 724.23974609 C-513.52473877 723.32918457 -513.8954248 722.41862305 -514.27734375 721.48046875 C-514.60984131 720.66473389 -514.94233887 719.84899902 -515.28491211 719.00854492 C-516 717 -516 717 -516 715 C-509.9750653 713.58197669 -503.93581501 712.44535603 -497.83576965 711.39831543 C-480.94286563 708.4909111 -464.42820586 704.97249177 -448 700 C-447.00242676 699.69868164 -446.00485352 699.39736328 -444.97705078 699.08691406 C-412.56223952 689.1301461 -381.59010531 674.8201775 -354 655 C-353.29133789 654.49194824 -352.58267578 653.98389648 -351.85253906 653.46044922 C-344.28039433 647.99129715 -336.98206458 642.35841299 -330.13671875 635.98828125 C-328.23815339 634.22160891 -326.2954721 632.54509377 -324.3125 630.875 C-313.93043903 621.80124752 -304.50456924 611.83593764 -296 601 C-295.31164062 600.19046875 -294.62328125 599.3809375 -293.9140625 598.546875 C-239.18923724 534.14148498 -217.17425973 447.00306599 -207 365 C-206.84015625 363.71915527 -206.6803125 362.43831055 -206.515625 361.11865234 C-204.61922543 345.36913562 -203.78643949 329.78241754 -203.5 313.9375 C-201.93444575 228.37603867 -184.41634529 143.86215512 -128.72314453 31.85449219 C-126.99100323 28.98509631 -125.33505651 26.08048589 -123.68359375 23.1640625 C-122.60387319 21.33717404 -121.52194132 19.51159017 -120.4375 17.6875 C-119.75204102 16.43271851 -119.75204102 16.43271851 -119.05273438 15.15258789 C-116.06736072 10.29728289 -113.5925175 8.45348154 -108.01953125 7.0859375 C-105.68647296 6.68253114 -103.34568656 6.32195071 -101 6 C-99.82816162 5.81638916 -98.65632324 5.63277832 -97.44897461 5.44360352 C-93.72117052 4.88635575 -89.99068246 4.40017705 -86.25 3.9375 C-85.57382629 3.85350952 -84.89765259 3.76951904 -84.20098877 3.6829834 C-79.46993868 3.09832297 -74.73585509 2.54430245 -70 2 C-68.44587402 1.8155835 -68.44587402 1.8155835 -66.86035156 1.62744141 C-44.68561482 -0.91191136 -22.28009408 -0.18936987 0 0 Z " fill="#FFFFFF" transform="translate(797,249)"/>
<path d="M0 0 C0 3.70189818 -0.98592168 4.78898586 -3.078125 7.8046875 C-3.7383667 8.76930908 -4.3986084 9.73393066 -5.07885742 10.7277832 C-5.79533447 11.76636475 -6.51181152 12.80494629 -7.25 13.875 C-59.95394809 91.78796597 -80.02522332 186.70469996 -81.38760376 279.63244629 C-83.02306396 385.91435295 -108.02538613 483.08039427 -192.1640625 573.2578125 C-195.35099998 576.28201275 -198.66212045 579.14444131 -202 582 C-203.05387488 582.91740678 -204.10721762 583.83542505 -205.16015625 584.75390625 C-212.89031619 591.47284707 -220.77932933 597.89144743 -229 604 C-230.051875 604.78761719 -231.10375 605.57523438 -232.1875 606.38671875 C-247.8684267 617.95315752 -264.79251943 627.89246927 -282 637 C-282.81984375 637.43521973 -283.6396875 637.87043945 -284.484375 638.31884766 C-310.39580972 651.95670317 -339.95323368 665.97600662 -369 671 C-372.50488549 659.8763386 -375.66162433 648.72012761 -378.375 637.375 C-378.76872803 635.73059937 -378.76872803 635.73059937 -379.17041016 634.05297852 C-381 626.28243681 -381 626.28243681 -381 624 C-380.31824707 623.81002441 -379.63649414 623.62004883 -378.93408203 623.42431641 C-332.10631814 610.25815886 -287.75810243 590.38213785 -251 558 C-250.26523437 557.36449219 -249.53046875 556.72898437 -248.7734375 556.07421875 C-247.48754454 554.95994896 -246.20735753 553.83905261 -244.93359375 552.7109375 C-243.56088452 551.49629782 -242.17683035 550.29442602 -240.78515625 549.1015625 C-173.14313651 490.12035242 -142.25855929 396.76831733 -124 272 C-123.88817383 270.91219238 -123.77634766 269.82438477 -123.66113281 268.70361328 C-122.41693508 256.34602163 -121.87990511 244.02744215 -121.61349487 231.61779785 C-120.44739296 177.47326467 -113.51259701 122.98755204 -98.11474609 70.95654297 C-97.29421512 68.11954609 -96.56745294 65.27134552 -95.88134766 62.39892578 C-88.7854287 32.74207043 -88.7854287 32.74207043 -79.72265625 26.6640625 C-74.54732835 24.03721733 -69.17173126 22.43568099 -63.56689453 20.98535156 C-59.17150609 19.77112927 -54.98682908 18.16377015 -50.74105835 16.5098114 C-34.21903391 10.08247344 -17.23893976 4.17868305 0 0 Z " fill="#FFFFFF" transform="translate(641,267)"/>
<path d="M0 0 C0.66 0 1.32 0 2 0 C7.19591371 14.64434897 11.80518729 29.30248207 15.5625 44.375 C15.73789307 45.07117432 15.91328613 45.76734863 16.09399414 46.48461914 C16.59279067 48.47486203 17.08182328 50.46719107 17.56640625 52.4609375 C17.84427979 53.60353027 18.12215332 54.74612305 18.40844727 55.92333984 C19.68055523 62.5395613 18.31772551 65.69319672 14.625 71.1875 C13.69448295 72.62799605 12.76751165 74.07078755 11.84375 75.515625 C11.36808594 76.25876953 10.89242188 77.00191406 10.40234375 77.76757812 C-26.45416043 136.44025818 -43.39733139 206.60062323 -50.25 274.8125 C-50.33326538 275.64068237 -50.41653076 276.46886475 -50.50231934 277.32214355 C-52.38846809 296.35716815 -53.12595693 315.28355696 -53.3873291 334.4072876 C-55.4422782 476.44126919 -55.4422782 476.44126919 -91.0625 515.375 C-92.70248837 516.92288294 -94.34813414 518.46479882 -96 520 C-97.52757378 521.83151642 -99.02756208 523.68637084 -100.5 525.5625 C-104.27657483 530.24652038 -108.35521546 534.4586827 -112.65625 538.66015625 C-114.74804227 540.7484622 -116.70168536 542.88258997 -118.625 545.125 C-123.94417692 551.31617313 -129.75682492 556.85057839 -135.9453125 562.16015625 C-138.16525228 564.14797305 -140.23351298 566.240524 -142.3125 568.375 C-146.33917965 572.44986214 -150.60676877 576.06086894 -155.078125 579.63671875 C-157.57702798 581.65789028 -160.01513289 583.73223148 -162.44165039 585.83911133 C-171.21952701 593.43431931 -180.59508245 600.20797429 -190 607 C-190.66 606.67 -191.32 606.34 -192 606 C-191.46375 605.34 -190.9275 604.68 -190.375 604 C-129.54273302 527.15924171 -106.03261975 427.70069275 -100 314.625 C-100.99208605 230.47956827 -79.18345593 142.70265372 -3.32177734 4.78320312 C-2.16583969 3.22373348 -1.07676687 1.61515031 0 0 Z " fill="#FFFFFF" transform="translate(1281,606)"/>
<path d="M0 0 C-1.57203468 6.3476688 -3.17428399 12.68585258 -4.83203125 19.01171875 C-17.74743707 68.74901147 -23.38286374 119.2846647 -24.17578125 170.64453125 C-25.08711138 228.02790125 -31.86267199 284.88710765 -55 338 C-55.42764648 338.98935547 -55.85529297 339.97871094 -56.29589844 340.99804688 C-68.88698621 369.87668856 -84.97374704 396.66309791 -105 421 C-105.44553223 421.54317871 -105.89106445 422.08635742 -106.35009766 422.64599609 C-118.20366607 437.03321676 -130.81089349 450.88212212 -145 463 C-146.00592317 463.88069461 -147.01106919 464.76227731 -148.015625 465.64453125 C-173.39261575 487.82158877 -201.54550575 505.70993157 -231.4375 521.1875 C-232.04547424 521.50351166 -232.65344849 521.81952332 -233.27984619 522.14511108 C-240.38408664 525.82523347 -247.49677053 529.21265787 -255 532 C-256.53248052 525.43222634 -257.42932689 518.88666789 -258.125 512.1875 C-258.25624268 510.9804541 -258.25624268 510.9804541 -258.39013672 509.74902344 C-259.07399857 502.82784613 -259.08601709 495.95031736 -259 489 C-258.07272095 488.47998413 -258.07272095 488.47998413 -257.12670898 487.94946289 C-251.03614365 484.53026756 -244.9553767 481.09427249 -238.88427734 477.640625 C-237.17241404 476.66688864 -235.4595734 475.69486197 -233.74462891 474.7265625 C-206.47902475 459.27536859 -179.82971224 437.35542726 -160.26953125 412.828125 C-157.96596677 409.95759026 -155.58170452 407.17014786 -153.1875 404.375 C-143.22977585 392.42263855 -134.71534659 379.48834455 -127 366 C-126.61134766 365.32952637 -126.22269531 364.65905273 -125.82226562 363.96826172 C-83.70323714 291.14168067 -65.35806739 202.8693963 -63.71606445 119.25463867 C-63.68575888 117.71142481 -63.65540363 116.16821193 -63.625 114.625 C-63.61028656 113.86136139 -63.59557312 113.09772278 -63.58041382 112.3109436 C-63.29688837 98.65223464 -62.32234099 85.10153724 -61.0625 71.5 C-60.97695862 70.56633606 -60.89141724 69.63267212 -60.80328369 68.67071533 C-60.32565148 63.51586428 -59.80703456 58.36775496 -59.23626709 53.22238159 C-59.01778895 51.16732684 -58.83844469 49.108213 -58.66259766 47.04907227 C-57.69159889 37.98235522 -57.69159889 37.98235522 -54.140625 34.58984375 C-52.8722503 33.66530658 -51.57232198 32.78308142 -50.25 31.9375 C-49.53207275 31.43347656 -48.81414551 30.92945313 -48.07446289 30.41015625 C-45.41093998 28.56236265 -42.70671944 26.78392448 -40 25 C-38.15059768 23.75401831 -36.30492338 22.50262482 -34.45925903 21.25111389 C-26.35513689 15.75923099 -18.20332186 10.34251536 -10 5 C-9.13906738 4.43796875 -8.27813477 3.8759375 -7.39111328 3.296875 C-2.25016459 0 -2.25016459 0 0 0 Z " fill="#FFFFFF" transform="translate(509,324)"/>
<path d="M0 0 C-0.03758423 0.85766968 -0.03758423 0.85766968 -0.07592773 1.73266602 C-0.59751079 13.94669824 -1.0041533 26.15577852 -1.21875 38.37890625 C-1.98664399 81.99387202 -1.98664399 81.99387202 -4 99 C-4.12745605 100.08055664 -4.25491211 101.16111328 -4.38623047 102.27441406 C-11.18879621 157.87457569 -28.2584109 212.83812401 -59 260 C-59.51771973 260.79792969 -60.03543945 261.59585937 -60.56884766 262.41796875 C-67.55330156 273.09732822 -75.07677472 283.19479657 -83.29907227 292.95019531 C-84.52998873 294.43358481 -85.73872951 295.93546906 -86.93334961 297.44824219 C-92.63973398 304.62465989 -98.83909984 311.11666094 -105.34790039 317.55371094 C-107.0691651 319.25659392 -108.7821666 320.96746929 -110.49414062 322.6796875 C-116.15909226 328.326936 -121.86019405 333.86434048 -128 339 C-128.90866821 339.76884521 -128.90866821 339.76884521 -129.83569336 340.55322266 C-137.45464229 346.95318003 -145.2602943 353.05269767 -153.375 358.8125 C-154.1064624 359.33416748 -154.8379248 359.85583496 -155.59155273 360.39331055 C-160.74790071 364 -160.74790071 364 -163 364 C-163.04573357 360.89519844 -163.05365081 357.80035292 -163 354.6953125 C-162.92821273 351.07548034 -162.92821273 351.07548034 -163.375 347.8046875 C-163.65137485 343.20995557 -163.41115287 339.79403783 -160.47753906 336.06445312 C-156.33504361 331.68227412 -151.77389837 327.77983421 -147.18115234 323.88085938 C-144.1581407 321.27404477 -141.31060864 318.52001918 -138.5 315.6875 C-137.77623169 314.96095215 -137.77623169 314.96095215 -137.0378418 314.21972656 C-132.32896025 309.42540652 -128.16002505 304.26797142 -124 299 C-123.06859878 297.86798413 -122.13488214 296.73787054 -121.19921875 295.609375 C-108.74543488 280.4961149 -98.47527687 264.10979415 -89 247 C-88.52594727 246.154375 -88.05189453 245.30875 -87.56347656 244.4375 C-53.56630754 183.39248308 -37.07200922 110.03489425 -32.77050781 40.68261719 C-31.80799328 27.51437779 -19.93472572 18.77766999 -11 10 C-10.0925 9.0925 -9.185 8.185 -8.25 7.25 C-7.13625 6.13625 -7.13625 6.13625 -6 5 C-5.0925 4.071875 -4.185 3.14375 -3.25 2.1875 C-1 0 -1 0 0 0 Z " fill="#FFFFFF" transform="translate(412,398)"/>
<path d="M0 0 C2.10869728 3.16304592 2.33150026 4.36214554 2.62182617 8.03564453 C2.70419022 9.06027802 2.78655426 10.0849115 2.87141418 11.14059448 C2.94865219 12.25177643 3.0258902 13.36295837 3.10546875 14.5078125 C3.18935349 15.66660919 3.27323822 16.82540588 3.35966492 18.01931763 C4.20737122 30.6368485 4.35313202 43.23320826 4.3125 55.875 C4.31067719 57.06522766 4.30885437 58.25545532 4.30697632 59.48175049 C4.25496189 79.78703217 3.48413732 99.84428228 1 120 C0.9175 120.67840942 0.835 121.35681885 0.75 122.05578613 C-5.51358113 173.02868895 -19.43687564 222.96844376 -40 270 C-40.42265137 270.97549805 -40.84530273 271.95099609 -41.28076172 272.95605469 C-42.51051301 275.78772502 -43.7519214 278.6138653 -45 281.4375 C-45.56086304 282.71765991 -45.56086304 282.71765991 -46.13305664 284.02368164 C-46.6550061 285.18565063 -46.6550061 285.18565063 -47.1875 286.37109375 C-47.49042969 287.05099365 -47.79335937 287.73089355 -48.10546875 288.43139648 C-49 290 -49 290 -51 291 C-50.89042969 289.92492187 -50.78085938 288.84984375 -50.66796875 287.7421875 C-49.52135036 276.23531718 -48.52100978 264.71559806 -47.58047485 253.19024658 C-47.445347 251.54434802 -47.30801958 249.8986283 -47.16830444 248.25311279 C-46.36610893 238.77143472 -45.91037118 229.43498521 -45.99658203 219.91577148 C-46.00247845 213.16058173 -45.64208255 206.42902473 -45.25 199.6875 C-45.20709839 198.9435498 -45.16419678 198.19959961 -45.11999512 197.43310547 C-35.55608902 35.55608902 -35.55608902 35.55608902 0 0 Z " fill="#FFFFFF" transform="translate(1308,724)"/>
<path d="M0 0 C0.66 0 1.32 0 2 0 C-3.27413092 56.81677403 -29.54033415 113.21533944 -63.3125 158.625 C-64.04992432 159.61995483 -64.04992432 159.61995483 -64.80224609 160.63500977 C-67.63657152 164.39306893 -70.58802283 167.75582498 -74 171 C-73.37033928 163.37728912 -71.27660222 156.25274512 -69.125 148.9375 C-68.92781372 148.26349152 -68.73062744 147.58948303 -68.52746582 146.89505005 C-53.60940039 96.12471347 -31.60439743 47.69865411 -2.10058594 3.69799805 C-0.94811961 1.98891197 -0.94811961 1.98891197 0 0 Z " fill="#FFFFFF" transform="translate(338,484)"/>
</svg>
