<svg xmlns="http://www.w3.org/2000/svg" viewBox="0 0 257.37 259.78"><defs><style>.cls-1{fill:#005487;}</style></defs><g id="Layer_2" data-name="Layer 2"><g id="Layer_1-2" data-name="Layer 1"><path class="cls-1" d="M192.08,100.46a5.74,5.74,0,0,0-7,2.27l-12.48-5v-.2A3,3,0,0,0,171.42,95a43.83,43.83,0,0,0-.76-30L185,59a5.93,5.93,0,0,0,7.12,2.44,5.78,5.78,0,1,0-8-4.17l-14.25,5.9a43.43,43.43,0,0,0-11-15.22,1.84,1.84,0,0,0,.19-1,2.94,2.94,0,0,0-2.86-3,3,3,0,0,0-1.87.59,57.22,57.22,0,0,0-7-4l5.8-14.19a5.59,5.59,0,0,0,6.49-3.42,5.8,5.8,0,0,0-10.66-4.58,5.78,5.78,0,0,0,2.27,7.05l-5.9,14.1a43.7,43.7,0,0,0-28.79-1.15,4.57,4.57,0,0,0-3.78-2.1h-.76l-4.58-11a6,6,0,0,0,2.27-7A5.81,5.81,0,1,0,98.79,22.4c0,.13.1.25.16.37a5.69,5.69,0,0,0,6.49,3.39l4.58,11a4.34,4.34,0,0,0-1.9,3.64,1.52,1.52,0,0,0,.22,1A43.43,43.43,0,0,0,88.82,62.89L74.72,57a5.54,5.54,0,0,0-3.39-6.48,5.79,5.79,0,1,0-4.58,10.63,5.72,5.72,0,0,0,7-2.17l14.1,5.9a45.29,45.29,0,0,0-3.07,14.76,2.24,2.24,0,0,0-1.51,2.27,2.44,2.44,0,0,0,1.51,2.27,50.12,50.12,0,0,0,2.88,12.73l-14.08,6a5.91,5.91,0,0,0-7-2.44,5.79,5.79,0,1,0,4.58,10.63h0a5.61,5.61,0,0,0,3.4-6.46l14.09-5.9a40.9,40.9,0,0,0,6.1,9.88,3.57,3.57,0,0,0-.36,1.51,3,3,0,0,0,3,3h.07a3.91,3.91,0,0,0,1.34-.39,42.63,42.63,0,0,0,12.88,8.46l-6,14.1a5.56,5.56,0,0,0-6.47,3.42,5.79,5.79,0,1,0,10.64,4.58,5.71,5.71,0,0,0-2.27-7l5.88-14.1a42.54,42.54,0,0,0,16,3,45,45,0,0,0,16-3l5.9,14.27a5.92,5.92,0,0,0-2.27,7,5.79,5.79,0,1,0,10.64-4.58h0a5.67,5.67,0,0,0-6.54-3.42l-5.88-14.27a44.47,44.47,0,0,0,22-20.73h.36a2.67,2.67,0,0,0,2.3-1.15l12.36,5.15a5.58,5.58,0,0,0,3.39,6.49,6.13,6.13,0,0,0,7.64-3A5.76,5.76,0,0,0,192.08,100.46ZM113.39,45.35h0l8.36,19.76-8.53,4.76a6.93,6.93,0,0,0-1.88-1.34Zm14.1,37.5L126,86.63l-2.19-2.27Zm-5.52,0-7.31-7,12.19,5.12Zm7.32.75,4.37,10.47-6.17-5.81Zm3.22,12.2a5.27,5.27,0,0,0-.58,2.27v.75l-10.86,4.88,5.51-13.51Zm4-2.44H136l-4.37-10.64,9.76,4L138,93.58a2.77,2.77,0,0,0-1.37-.1ZM132,80.94l15-6.27h0l-5.34,10.27Zm15.62-2.65L146.51,87l-2.87-1.22Zm2.44-2.69c.21,0,.21,0,.39-.22L166.22,94.9l-17.49-7.32Zm-3.79-2.83-15,6.27,7.32-17.88h.95a3.76,3.76,0,0,0,1.51-.36l5.9,9.75a5,5,0,0,0-.75,2.27ZM136.73,60.4l-7.32,17.89-5.14-12.2L136,59.87a7.93,7.93,0,0,0,.8.53ZM127.44,79l-13.08-5.41v-.76a2,2,0,0,0-.22-1.12l8.37-4.59Zm-17.52-1.71h.22l2.66,9.35-7.32,3,4.18-12.37Zm2.13-.56c.19,0,.19-.19.36-.19L120,83.9l-5.29,1.92Zm9.51,8.54,3.61,3.42-5.73,13.7L115.29,88Zm11.17,15.42a4.39,4.39,0,0,0,3.64,1.87h.75L142,114.39l-20.37-8.76Zm6.32,1a5,5,0,0,0,1.9-2.86h4.15l-1.71,13.35ZM141,96.8a5.07,5.07,0,0,0-1.51-2.44l3.39-6.85,3.42,1.34-1,7.78Zm7.32-7,16.17,6.66-17.07.22Zm3.63-15.61a2,2,0,0,0,.37-1.51v-.19L160.64,69l6.27,24.15Zm-.39-3.61-.58-.58,4.88-19.22L160,66.89ZM154,48.84h0l-5.14,20.54h-.37l-5.9-9.76a4.65,4.65,0,0,0,1.51-3.39c0-.58-.19-1-.19-1.51Zm-19.22,9-11.41,6.27-8.15-19.52.58-.58,18.84,11a3.57,3.57,0,0,0-.2,1.52,3.12,3.12,0,0,1,.51,1.41ZM111.12,45.06h0l-2,23.35a4,4,0,0,0-3,1.9l-8.76-3.64Zm-5.9,26.83v1.35L88.65,79.8,96.26,68ZM88.31,82.19l17.52-6.86a4,4,0,0,0,1.34,1.35l-4.59,14.09-1.9.76L88,82.58c.53-.12.53-.29.53-.29Zm16.15,10,8.76-3.61,4.34,14.27-13.3-9.25Zm12.2,12.58-16.54,3.61a1.67,1.67,0,0,0-.76-.75l4-12.2Zm.53,2.1h0l-1.73,4.59L103.26,110Zm1.91.93a2.13,2.13,0,0,0,1.51-.59l16.15,7-19.23-2.64Zm26.07,5.9h0l1.9-15,19-.37ZM169.32,94l-6.66-25.78,6.1-2.44a41.12,41.12,0,0,1,.76,28.32ZM168,63.87l-5.87,2.44-4.4-16.54A37,37,0,0,1,168,63.87ZM153.05,45.94c0,.22-.19.59-.19.76v.58l-10.1,5.9-.76-.75,4.15-10.27A39.51,39.51,0,0,1,153.05,45.94Zm-23.76-7.32a42.57,42.57,0,0,1,15.22,2.88l-4.07,10.17h-.95a5.34,5.34,0,0,0-3.64,1.51L117,42.16a2.82,2.82,0,0,0,.2-1.34v-.61a54.92,54.92,0,0,1,12.17-1.69Zm-20,5.15c0,.19.22.19.22.36L95.41,65.84l-4.66-2a41.47,41.47,0,0,1,18.64-20.2ZM94.51,67.43,87.36,78.5a37.22,37.22,0,0,1,2.85-12.73ZM87.36,84.36,99,92.51l-9,3.63A35.39,35.39,0,0,1,87.36,84.36Zm13.49,9.51,1,.59-4.18,12.73a1.39,1.39,0,0,0-1,.22A43.72,43.72,0,0,1,91,98Zm-.37,17.71L115,113.46l-2.44,6.1A36.4,36.4,0,0,1,100.48,111.58Zm13.66,8.73,2.66-6.63,24.4,3a2.66,2.66,0,0,0,2.44,1.91l.58,1.51A40.32,40.32,0,0,1,114.14,120.31Zm32.37-.75-.61-1.51a2.77,2.77,0,0,0,.78-1.88v-.59l20.15-14.85A42,42,0,0,1,146.51,119.56Z"/><path class="cls-1" d="M113.22,15.08a5.08,5.08,0,0,1,.75,1.51,4,4,0,0,1,.39,1.52L126,9.57a5.76,5.76,0,0,1,6.86,0l11.61,8.54c.22-.59.22-1,.39-1.52a12.55,12.55,0,0,1,.76-1.51,8.91,8.91,0,0,1,3.61-3.41L137.42,2.89a12.64,12.64,0,0,0-16.08,0l-11.85,8.8A8.61,8.61,0,0,1,113.22,15.08Z"/><path class="cls-1" d="M145.73,146.81a4.59,4.59,0,0,1-.75-1.52,3.92,3.92,0,0,1-.39-1.51L133,152.32a5.76,5.76,0,0,1-6.86,0l-11.61-8.54c-.22.59-.22,1-.39,1.51a12.68,12.68,0,0,1-.76,1.52,9,9,0,0,1-3.61,3.41L121.56,159a12.63,12.63,0,0,0,16.15,0l11.78-8.76A7.61,7.61,0,0,1,145.73,146.81Z"/><path class="cls-1" d="M71.36,45.72l1.73.59a3.25,3.25,0,0,1,1.34.78l2.1-14.27a5.6,5.6,0,0,1,4.76-4.76L95.56,26c-.22-.39-.59-1-.76-1.36s-.39-1.13-.58-1.71A8.63,8.63,0,0,1,94.41,18L79.87,20A12.71,12.71,0,0,0,68.48,31.38L66.36,45.84A11.4,11.4,0,0,1,71.36,45.72Z"/><path class="cls-1" d="M187.4,116l-1.74-.59a3.7,3.7,0,0,1-1.34-.75l-2,14.27a5.6,5.6,0,0,1-4.88,4.73l-14.27,2.12a10.47,10.47,0,0,1,.76,1.34c.22.59.39,1.12.61,1.73a8.72,8.72,0,0,1-.22,4.88l14.47-2.09a12.77,12.77,0,0,0,11.41-11.42l2.1-14.47A8.62,8.62,0,0,1,187.4,116Z"/><path class="cls-1" d="M65.09,96.34A4.4,4.4,0,0,1,66.6,96L58.06,84.36a5.79,5.79,0,0,1,0-6.86L66.6,65.89c-.58-.22-.95-.22-1.51-.39a12.49,12.49,0,0,1-1.51-.75,9.2,9.2,0,0,1-3.42-3.61L51.43,72.92a12.58,12.58,0,0,0,0,16.15l8.73,11.78a10.74,10.74,0,0,1,3.42-3.61A3.59,3.59,0,0,1,65.09,96.34Z"/><path class="cls-1" d="M207.37,72.77,198.64,61a10.78,10.78,0,0,1-3.41,3.63,6.18,6.18,0,0,1-1.52.76,4.58,4.58,0,0,1-1.51.37l8.54,11.61a5.79,5.79,0,0,1,0,6.88L192.2,95.85c.59.19,1,.19,1.51.36a11.91,11.91,0,0,1,1.52.76,9,9,0,0,1,3.41,3.61l8.73-11.76A12.42,12.42,0,0,0,207.37,72.77Z"/><path class="cls-1" d="M76.65,128.9l-2.1-14.24c-.36.19-1,.58-1.34.75l-1.73.59a8.81,8.81,0,0,1-4.88-.22l2.1,14.46a12.74,12.74,0,0,0,11.39,11.42l14.49,2.1a11.17,11.17,0,0,1-.22-4.88c.22-.61.39-1.15.59-1.73a3.4,3.4,0,0,1,.75-1.35l-14.24-2.12A5.27,5.27,0,0,1,76.65,128.9Z"/><path class="cls-1" d="M182.32,32.82l2.1,14.27c.39-.22,1-.61,1.34-.78l1.73-.59a8.72,8.72,0,0,1,4.88.22l-2.09-14.47A12.72,12.72,0,0,0,178.91,20l-14.49-2.1a10.88,10.88,0,0,1,.22,4.88c-.22.61-.37,1.15-.59,1.73a3.4,3.4,0,0,1-.75,1.35l14.27,2.12A5.5,5.5,0,0,1,182.32,32.82Z"/><g id="YENI"><path class="cls-1" d="M12.82,207.5h-2.5L9.08,204H3.67L2.5,207.5H0l5.18-13.76H7.77Zm-4.39-5.36-1.87-5.48a6.21,6.21,0,0,1-.16-.86h0a4.12,4.12,0,0,1-.19.86l-1.89,5.5Z"/><path class="cls-1" d="M24.5,194.75,17,205.57h7.46v1.93H13.76v-1.09l7.57-10.75h-7v-1.89H24.5Z"/><path class="cls-1" d="M25.74,199.65H36.18a4.4,4.4,0,0,0-1.43-3,4.69,4.69,0,0,0-3.25-1.12,6.62,6.62,0,0,0-3.9,1.16v-2.12a8.22,8.22,0,0,1,4.15-1,6.6,6.6,0,0,1,5,1.88,7.12,7.12,0,0,1,1.82,5.15,7.5,7.5,0,0,1-1.82,5.15,6.2,6.2,0,0,1-4.88,2.05,5.56,5.56,0,0,1-4.63-2.05A9.88,9.88,0,0,1,25.74,199.65Zm10.44,1.89h-8a4.66,4.66,0,0,0,1.06,3.08A3.57,3.57,0,0,0,32,205.78a4,4,0,0,0,2.89-1.16A5,5,0,0,0,36.18,201.54Z"/><path class="cls-1" d="M51.76,207.5H49.05l-2.18-3.67a7.43,7.43,0,0,0-.58-.88,3.65,3.65,0,0,0-.6-.58,3.28,3.28,0,0,0-.64-.34,2.12,2.12,0,0,0-.79-.1h-.93v5.57H41.07V193.74h4.5a6.91,6.91,0,0,1,1.81.23,4,4,0,0,1,1.43.7,3.29,3.29,0,0,1,.94,1.15,3.77,3.77,0,0,1,.34,1.62,4.06,4.06,0,0,1-.23,1.34,3.16,3.16,0,0,1-.62,1.1,3.48,3.48,0,0,1-.94.81,4.69,4.69,0,0,1-1.27.51h0a2.81,2.81,0,0,1,.65.48,4.59,4.59,0,0,1,.54.54c.16.16.33.39.5.6s.33.52.52.8Zm-8.35-11.89v4.47h1.92a2.69,2.69,0,0,0,1-.18,2.07,2.07,0,0,0,.78-.47,1.83,1.83,0,0,0,.51-.77,2.5,2.5,0,0,0,.19-1,1.94,1.94,0,0,0-.62-1.55,2.64,2.64,0,0,0-1.78-.55h-2Z"/><path class="cls-1" d="M53.37,207.5V193.74h4.37a5.2,5.2,0,0,1,3.25.86,2.74,2.74,0,0,1,1.17,2.27,3.22,3.22,0,0,1-.67,2,3.73,3.73,0,0,1-1.83,1.24h0a3.53,3.53,0,0,1,2.27,1,3.24,3.24,0,0,1,.85,2.31,3.51,3.51,0,0,1-1.4,2.86,5.59,5.59,0,0,1-3.51,1.09H53.45Zm2.26-11.91v3.92h1.54A3,3,0,0,0,59,199a1.9,1.9,0,0,0,.68-1.62c0-1.17-.79-1.75-2.35-1.75Zm0,5.74v4.35h1.93a2.85,2.85,0,0,0,2-.6,2,2,0,0,0,.7-1.63c0-1.42-1-2.12-3-2.12Z"/><path class="cls-1" d="M76.51,207.5H74L72.79,204H67.38l-1.19,3.51H63.67l5.15-13.76h2.59Zm-4.31-5.36-1.92-5.48a6.21,6.21,0,0,1-.16-.86h0a4.12,4.12,0,0,1-.19.86l-1.87,5.5Z"/><path class="cls-1" d="M86.51,193.77,82,202.51v5H79.74v-5l-4.4-8.79h2.6l2.69,5.88c0,.08.13.34.28.78h0a4.37,4.37,0,0,1,.31-.78l2.83-5.88h2.43Z"/><path class="cls-1" d="M97.38,206.93a8.18,8.18,0,0,1-3.86.81,6.34,6.34,0,0,1-4.88-1.86,6.92,6.92,0,0,1-1.78-5,7.18,7.18,0,0,1,2-5.31A7,7,0,0,1,94,193.54a8.76,8.76,0,0,1,3.25.56v2.27a5.93,5.93,0,0,0-3-.81A4.88,4.88,0,0,0,90.59,197a5.26,5.26,0,0,0-1.38,3.82,4.83,4.83,0,0,0,1.3,3.6,4.47,4.47,0,0,0,3.38,1.35,6,6,0,0,0,3.36-.92v2.09Z"/><path class="cls-1" d="M111.29,207.5h-2.5L107.54,204h-5.41L101,207.5h-2.5l5.16-13.76h2.59Zm-4.35-5.36-1.9-5.48a6.23,6.23,0,0,1-.17-.86h0a4.12,4.12,0,0,1-.19.86l-1.89,5.5Z"/><path class="cls-1" d="M124.82,207.5h-2.5l-6.5-10.12a5.86,5.86,0,0,1-.42-.78h0a10.61,10.61,0,0,1,.1,1.87v9h-2.23V193.74h2.67l6.33,9.86a4.91,4.91,0,0,1,.51.85h0a12.87,12.87,0,0,1-.08-1.86v-8.85h2.17V207.5Z"/><path class="cls-1" d="M144.27,207.5h-2.61l-2.2-3.67a7.43,7.43,0,0,0-.58-.88,3.24,3.24,0,0,0-.59-.58,3.09,3.09,0,0,0-.65-.34,2,2,0,0,0-.78-.1h-.92v5.57h-2.28V193.74h4.52a6.84,6.84,0,0,1,1.8.23,3.78,3.78,0,0,1,1.42.7,3.25,3.25,0,0,1,1,1.15,3.77,3.77,0,0,1,.34,1.62,4.06,4.06,0,0,1-.23,1.34,3.63,3.63,0,0,1-.62,1.1,3.4,3.4,0,0,1-1,.81,4.7,4.7,0,0,1-1.25.51h0a2.75,2.75,0,0,1,.64.48,3,3,0,0,1,.53.54,5.78,5.78,0,0,1,.51.6c.17.23.34.52.53.8Zm-8.35-11.89v4.47h1.9a2.76,2.76,0,0,0,1-.18,2.15,2.15,0,0,0,.78-.47,1.83,1.83,0,0,0,.51-.77,2.5,2.5,0,0,0,.19-1,1.94,1.94,0,0,0-.62-1.55,2.64,2.64,0,0,0-1.78-.55h-2Z"/><path class="cls-1" d="M153.58,207.5h-7.72V193.74h7.41v1.93h-5.11v3.9h4.72v2h-4.72v4.06h5.44Z"/><path class="cls-1" d="M155.4,207v-2.35a2.52,2.52,0,0,0,.75.5,5.64,5.64,0,0,0,.92.39,6.74,6.74,0,0,0,1,.26,6.91,6.91,0,0,0,.91,0,3.86,3.86,0,0,0,2.13-.47,1.64,1.64,0,0,0,.7-1.41,1.6,1.6,0,0,0-.23-.83,2.12,2.12,0,0,0-.65-.65,5.87,5.87,0,0,0-1-.55l-1.23-.57c-.47-.25-.89-.51-1.32-.77a5.53,5.53,0,0,1-1-.82,3.32,3.32,0,0,1-.94-2.43,3,3,0,0,1,.44-1.62,3.73,3.73,0,0,1,1.15-1.19,6,6,0,0,1,1.63-.69,8.91,8.91,0,0,1,1.85-.22,8,8,0,0,1,3.14.48v2.24a5,5,0,0,0-3-.85,8.59,8.59,0,0,0-1,.08,3.91,3.91,0,0,0-.89.31,2.36,2.36,0,0,0-.65.57,1.64,1.64,0,0,0,0,1.63,2.08,2.08,0,0,0,.57.61,5.42,5.42,0,0,0,.89.54c.36.16.75.36,1.24.55a8.29,8.29,0,0,1,1.33.78,7.09,7.09,0,0,1,1.12.93,3.18,3.18,0,0,1,.76,1.12,3.1,3.1,0,0,1,.28,1.38,3.24,3.24,0,0,1-.42,1.75,3.42,3.42,0,0,1-1.14,1.19,5.56,5.56,0,0,1-1.62.65,10.05,10.05,0,0,1-2,.2h-.85l-1-.13a6.93,6.93,0,0,1-1-.26A3.35,3.35,0,0,1,155.4,207Z"/><path class="cls-1" d="M169,202.51v5h-2.27V193.74h4.19a5.48,5.48,0,0,1,3.67,1.09,3.83,3.83,0,0,1,1.32,3.12,4.15,4.15,0,0,1-1.37,3.25,5.13,5.13,0,0,1-3.67,1.26H169Zm0-6.87v5h1.5a3.4,3.4,0,0,0,2.24-.67,2.46,2.46,0,0,0,.75-1.91c0-1.63-1-2.44-2.83-2.44Z"/><path class="cls-1" d="M188.77,201.94c0,3.87-1.82,5.8-5.49,5.8s-5.25-1.85-5.25-5.57v-8.4h2.28v7.93c0,2.68,1,4,3.13,4s3-1.28,3-3.9v-8.12h2.3v8.23Z"/><path class="cls-1" d="M192,207.5V193.74h4.37a5.2,5.2,0,0,1,3.25.86,2.72,2.72,0,0,1,1.19,2.27,3.26,3.26,0,0,1-.68,2,3.75,3.75,0,0,1-1.82,1.24h0a3.6,3.6,0,0,1,2.27,1,3.28,3.28,0,0,1,.85,2.31,3.54,3.54,0,0,1-1.42,2.86,5.53,5.53,0,0,1-3.49,1.09H192Zm2.28-11.91v3.92h1.48a3,3,0,0,0,1.88-.56,1.92,1.92,0,0,0,.67-1.62c0-1.17-.78-1.75-2.36-1.75Zm0,5.74v4.35h1.93a2.85,2.85,0,0,0,2-.6,2,2,0,0,0,.69-1.63c0-1.42-1-2.12-3-2.12Z"/><path class="cls-1" d="M211.52,207.5H203.9V193.74h2.27v11.83h5.35Z"/><path class="cls-1" d="M214.57,192.47a1.29,1.29,0,0,1-.83-.31,1,1,0,0,1-.34-.78,1.06,1.06,0,0,1,.34-.78,1.18,1.18,0,0,1,.83-.31,1.33,1.33,0,0,1,.85.31,1.06,1.06,0,0,1,0,1.56A1.11,1.11,0,0,1,214.57,192.47Zm1.22,15h-2.35V193.74h2.35Z"/><path class="cls-1" d="M229.57,207.5h-3l-4.8-6.29c-.11-.15-.22-.31-.32-.47h0v6.79H219.2V193.77h2.28v6.5h0a3,3,0,0,1,.32-.47l4.63-6h2.75l-5.41,6.5Z"/><path class="cls-1" d="M242.47,207.5H240L238.73,204h-5.41l-1.17,3.51h-2.5l5.17-13.76h2.56Zm-4.36-5.36-1.9-5.48a6.21,6.21,0,0,1-.16-.86h0a4.21,4.21,0,0,1-.16.86l-1.89,5.5Z"/><path class="cls-1" d="M243.72,207v-2.35a2.71,2.71,0,0,0,.76.5,5.39,5.39,0,0,0,.93.39,6.62,6.62,0,0,0,1,.26,6.76,6.76,0,0,0,.9,0,3.77,3.77,0,0,0,2.13-.47,1.7,1.7,0,0,0,.48-2.24,2.24,2.24,0,0,0-.65-.65,5.78,5.78,0,0,0-1-.55l-1.24-.57c-.48-.25-.89-.51-1.31-.77a4.82,4.82,0,0,1-1-.82,3.8,3.8,0,0,1-.7-1,3.16,3.16,0,0,1-.26-1.39,3,3,0,0,1,.45-1.62,3.57,3.57,0,0,1,1.16-1.19,6,6,0,0,1,1.62-.69,8.81,8.81,0,0,1,1.84-.22,8.06,8.06,0,0,1,3.15.48v2.24a5.1,5.1,0,0,0-3-.85,8.42,8.42,0,0,0-1,.08,3.69,3.69,0,0,0-.9.31,2.21,2.21,0,0,0-.65.57,1.64,1.64,0,0,0,0,1.63,2,2,0,0,0,.56.61,7.27,7.27,0,0,0,.89.54l1.23.55c.49.26.93.51,1.35.78a6.67,6.67,0,0,1,1.12.93,3.45,3.45,0,0,1,.77,1.12,3.1,3.1,0,0,1,.27,1.38,3.34,3.34,0,0,1-.42,1.75,3.28,3.28,0,0,1-1.15,1.19,5,5,0,0,1-1.63.65,9.87,9.87,0,0,1-2,.2h-.85l-1-.13a8.14,8.14,0,0,1-1-.26A3.35,3.35,0,0,1,243.72,207Z"/><path class="cls-1" d="M257.37,207.5H255V193.74h2.36Z"/><path class="cls-1" d="M31.68,232.72H29L26.83,229a6.17,6.17,0,0,0-.58-.86,2.84,2.84,0,0,0-.6-.6,3,3,0,0,0-.64-.32,2.27,2.27,0,0,0-.78-.12h-.92v5.58H21V219h4.52a7.26,7.26,0,0,1,1.79.23,4.33,4.33,0,0,1,1.43.7,3.56,3.56,0,0,1,1,1.15,4,4,0,0,1,.32,1.63,4.16,4.16,0,0,1-.23,1.35,3.43,3.43,0,0,1-.6,1.09A4,4,0,0,1,27,226.41h0a2.51,2.51,0,0,1,.65.47,5.39,5.39,0,0,1,.53.54,7.64,7.64,0,0,1,.51.62c.16.22.32.5.53.78Zm-8.36-11.88v4.45h1.92a2.76,2.76,0,0,0,1-.16,2.06,2.06,0,0,0,.78-.49,1.74,1.74,0,0,0,.5-.75,2.77,2.77,0,0,0,.2-1,1.94,1.94,0,0,0-.62-1.52,2.54,2.54,0,0,0-1.79-.57h-2Z"/><path class="cls-1" d="M32.37,224.87H42.84a4.48,4.48,0,0,0-1.43-3.06,4.72,4.72,0,0,0-3.25-1.12,6.45,6.45,0,0,0-3.88,1.16v-2.1a7.88,7.88,0,0,1,4.14-1,6.6,6.6,0,0,1,5,1.88,7.12,7.12,0,0,1,1.82,5.15,7.59,7.59,0,0,1-1.82,5.17,6.26,6.26,0,0,1-4.88,2,5.58,5.58,0,0,1-4.61-2A9.57,9.57,0,0,1,32.37,224.87Zm10.47,1.9h-8a4.61,4.61,0,0,0,1.08,3.09A3.5,3.5,0,0,0,38.69,231a3.87,3.87,0,0,0,2.88-1.15A4.74,4.74,0,0,0,42.84,226.77Z"/><path class="cls-1" d="M53.45,232.94a6.88,6.88,0,0,1-2.73-.53A6,6,0,0,1,48.64,231a6.76,6.76,0,0,1-1.32-2.2,8.19,8.19,0,0,1-.47-2.82,9.17,9.17,0,0,1,.47-3,6.63,6.63,0,0,1,1.35-2.31,5.8,5.8,0,0,1,2.13-1.46,7.94,7.94,0,0,1,2.81-.51,7,7,0,0,1,2.63.51,6,6,0,0,1,3.36,3.62,8.32,8.32,0,0,1,.48,2.8,9.1,9.1,0,0,1-.67,3.57,6.15,6.15,0,0,1-1.92,2.45l4,2.9H58l-2.41-1.87c-.34.08-.68.16-1,.21A6,6,0,0,1,53.45,232.94Zm.11-12.18a3.79,3.79,0,0,0-1.62.36,3.63,3.63,0,0,0-1.35,1,4.52,4.52,0,0,0-.86,1.62,7.09,7.09,0,0,0,0,4.18,4.4,4.4,0,0,0,.84,1.62,3.75,3.75,0,0,0,2.94,1.4,4.45,4.45,0,0,0,1.77-.33,3.52,3.52,0,0,0,1.33-1,3.89,3.89,0,0,0,.85-1.62,7.32,7.32,0,0,0,.31-2.13,7.82,7.82,0,0,0-.28-2.2,5.24,5.24,0,0,0-.81-1.62,3.46,3.46,0,0,0-1.32-1A5.21,5.21,0,0,0,53.56,220.76Z"/><path class="cls-1" d="M61.72,224.87H72.18a4.57,4.57,0,0,0-1.43-3.06,4.69,4.69,0,0,0-3.25-1.12,6.49,6.49,0,0,0-3.88,1.16v-2.1a7.88,7.88,0,0,1,4.14-1,6.6,6.6,0,0,1,5,1.88,7.12,7.12,0,0,1,1.82,5.15,7.59,7.59,0,0,1-1.82,5.17,6.26,6.26,0,0,1-4.87,2,5.6,5.6,0,0,1-4.62-2A9.5,9.5,0,0,1,61.72,224.87Zm10.46,1.9h-8a4.56,4.56,0,0,0,1.07,3.09A3.48,3.48,0,0,0,68,231a3.9,3.9,0,0,0,2.89-1.15A4.69,4.69,0,0,0,72.18,226.77Z"/><path class="cls-1" d="M91.9,232.72H89.71v-8.89a17.57,17.57,0,0,1,.15-2.65h0a9,9,0,0,1-.36,1.28l-4.1,10.29H83.78l-4.11-10.2a14.07,14.07,0,0,1-.37-1.37h0v11.57H77.18V219h3.25L84,228.15a11.84,11.84,0,0,1,.54,1.62h0a9.49,9.49,0,0,1,.58-1.62l3.67-9.1h3.11v13.7Z"/><path class="cls-1" d="M94.58,232.18v-2.36a2.82,2.82,0,0,0,.77.52,7.33,7.33,0,0,0,.91.39,4.79,4.79,0,0,0,1,.25,5.26,5.26,0,0,0,.89.08,3.86,3.86,0,0,0,2.13-.47,1.62,1.62,0,0,0,.81-1.43,1.51,1.51,0,0,0-.23-.85,2.43,2.43,0,0,0-.63-.65,6,6,0,0,0-1-.55L98,226.54c-.49-.24-.91-.5-1.33-.75a4.86,4.86,0,0,1-1-.84,3.18,3.18,0,0,1-.7-1,3.24,3.24,0,0,1-.38-1.25A3.14,3.14,0,0,1,95,221a3.54,3.54,0,0,1,1.14-1.17,5.66,5.66,0,0,1,1.62-.69,9.29,9.29,0,0,1,5,.24v2.24a5,5,0,0,0-3-.84,5.66,5.66,0,0,0-1,.09,2.55,2.55,0,0,0-.89.31,1.75,1.75,0,0,0-.65.56,1.33,1.33,0,0,0-.26.84,1.53,1.53,0,0,0,.19.78,2.24,2.24,0,0,0,.57.62,4.53,4.53,0,0,0,.9.53l1.23.56a15.32,15.32,0,0,1,1.35.79,5.54,5.54,0,0,1,1.12.93,3.39,3.39,0,0,1,.75,1.12,3.06,3.06,0,0,1,.29,1.36,3.51,3.51,0,0,1-.42,1.77,3.81,3.81,0,0,1-1.16,1.17,5.06,5.06,0,0,1-1.62.65,9.34,9.34,0,0,1-2,.2h-.83a3,3,0,0,1-1-.13,7,7,0,0,1-1-.26A3.36,3.36,0,0,1,94.58,232.18Z"/><path class="cls-1" d="M117.33,232.72h-2.5l-1.29-3.56h-5.41L107,232.65h-2.49l5.15-13.76h2.59ZM113,227.37l-1.92-5.49a6.32,6.32,0,0,1-.24-.85h0a4.31,4.31,0,0,1-.19.88l-1.87,5.49Z"/><path class="cls-1" d="M126.77,232.72h-7.64V219h2.28v11.83h5.33v1.94Z"/><path class="cls-1" d="M135.28,217.78a1.35,1.35,0,0,1-.84-.3,1.06,1.06,0,0,1-.33-.8,1,1,0,0,1,.33-.78,1.09,1.09,0,0,1,.84-.31,1.33,1.33,0,0,1,.85.31,1,1,0,0,1,.32.78,1.09,1.09,0,0,1-.32.8A1.27,1.27,0,0,1,135.28,217.78Zm1.2,15h-2.35V219h2.35Z"/><path class="cls-1" d="M151.53,232.72H149l-6.5-10.13a4.84,4.84,0,0,1-.42-.78h0a13.28,13.28,0,0,1,.08,1.89v9H140V219h2.67l6.33,9.87a8.94,8.94,0,0,1,.51.84h0a14.24,14.24,0,0,1-.08-1.85V219h2v13.77Z"/><path class="cls-1" d="M165.32,232.72h-3l-4.87-6.28a4.07,4.07,0,0,1-.33-.48h0v6.79h-2.27V219h2.27v6.5h0a5.11,5.11,0,0,1,.33-.48l4.63-6h2.74l-5.28,6.55Z"/><path class="cls-1" d="M168,217.78a1.3,1.3,0,0,1-.83-.3,1.07,1.07,0,0,1-.34-.8,1,1,0,0,1,.34-.78,1.07,1.07,0,0,1,.83-.31,1.28,1.28,0,0,1,.84.31,1,1,0,0,1,.34.78,1.1,1.1,0,0,1-.34.8A1.13,1.13,0,0,1,168,217.78Zm1.23,15h-2.36V219h2.41Z"/><path class="cls-1" d="M172,232.18v-2.36a2.63,2.63,0,0,0,.76.52,7.61,7.61,0,0,0,.93.39,4.61,4.61,0,0,0,1,.25,5.35,5.35,0,0,0,.89.08,3.86,3.86,0,0,0,2.13-.47,1.65,1.65,0,0,0,.72-1.4,1.63,1.63,0,0,0-.23-.84,2.51,2.51,0,0,0-.65-.65,6.26,6.26,0,0,0-1-.56l-1.24-.57c-.49-.24-.89-.5-1.32-.74a5.61,5.61,0,0,1-1-.85,3.31,3.31,0,0,1-.69-1,3.39,3.39,0,0,1,.19-3,3.57,3.57,0,0,1,1.15-1.17,5.62,5.62,0,0,1,1.63-.7,9.31,9.31,0,0,1,5,.25v2.24a5.16,5.16,0,0,0-3-.84,5.75,5.75,0,0,0-1,.09,2.62,2.62,0,0,0-.89.31,1.82,1.82,0,0,0-.65.55,1.43,1.43,0,0,0-.24.85,1.35,1.35,0,0,0,.19.78,2.17,2.17,0,0,0,.55.62,6.25,6.25,0,0,0,.9.53l1.23.55a13,13,0,0,1,1.35.8,5.54,5.54,0,0,1,1.12.93,3.25,3.25,0,0,1,.77,1.12,3,3,0,0,1,.27,1.36,3.51,3.51,0,0,1-.42,1.77,3.39,3.39,0,0,1-1.15,1.17,5,5,0,0,1-1.63.65,9.09,9.09,0,0,1-2,.2h-.84a2.94,2.94,0,0,1-1-.13,7.13,7.13,0,0,1-1-.26A3.2,3.2,0,0,1,172,232.18Zm6.49,2.92q0,1.86-2.76,1.86H175v-1.08h.68c.83,0,1.28-.26,1.28-.79s-.39-.7-1.15-.7h-.36v-1.67h1.32v.89A2,2,0,0,1,178,234,1.3,1.3,0,0,1,178.51,235.1Z"/><path class="cls-1" d="M194.63,232.72h-2.48l-1.24-3.56h-5.44l-1.17,3.49h-2.5L187,218.89h2.57Zm-4.34-5.35-1.9-5.49a6.54,6.54,0,0,1-.18-.88h0a3.29,3.29,0,0,1-.19.88l-1.87,5.49Z"/><path class="cls-1" d="M203.94,220.92h-5.13v4.13h4.74V227h-4.74v5.74h-2.28V219H204v2Z"/><path class="cls-1" d="M222.54,219l-4.87,13.76h-2.55L210.25,219h2.5l3.38,10.43a7.39,7.39,0,0,1,.26,1.13h0a6,6,0,0,1,.27-1.17L220.14,219h2.4Z"/><path class="cls-1" d="M223.47,224.87h10.45a4.48,4.48,0,0,0-1.43-3.06,4.71,4.71,0,0,0-3.25-1.12,6.62,6.62,0,0,0-3.9,1.16v-2.1a8,8,0,0,1,4.16-1,6.47,6.47,0,0,1,5,1.88,7,7,0,0,1,1.82,5.15,7.47,7.47,0,0,1-1.82,5.17,6.18,6.18,0,0,1-4.87,2,5.62,5.62,0,0,1-4.63-2A9.63,9.63,0,0,1,223.47,224.87Zm10.45,1.9h-8a4.65,4.65,0,0,0,1.06,3.09,3.53,3.53,0,0,0,2.77,1.15,3.93,3.93,0,0,0,2.9-1.15A4.92,4.92,0,0,0,233.92,226.77Z"/><path class="cls-1" d="M42.29,257.93H39.8l-6.49-10.1c-.16-.26-.3-.52-.43-.78h0a11.55,11.55,0,0,1,0,1.86v9H30.64V244.19h2.65l6.34,9.86a4.94,4.94,0,0,1,.5.83h0a14.12,14.12,0,0,1,0-1.84v-8.85h2.13v13.74Z"/><path class="cls-1" d="M44.79,250.1H55.24A4.36,4.36,0,0,0,53.79,247a4.6,4.6,0,0,0-3.25-1.12,6.72,6.72,0,0,0-3.9,1.14V245a7.93,7.93,0,0,1,4.15-1,6.65,6.65,0,0,1,5,1.87A7.15,7.15,0,0,1,57.63,251a7.5,7.5,0,0,1-1.82,5.15,6.2,6.2,0,0,1-4.88,2.05,5.56,5.56,0,0,1-4.63-2.05A9.61,9.61,0,0,1,44.79,250.1ZM55.24,252h-8a4.83,4.83,0,0,0,1.08,3.09,3.51,3.51,0,0,0,2.78,1.13A3.86,3.86,0,0,0,54,255.09,4.85,4.85,0,0,0,55.24,252Z"/><path class="cls-1" d="M65.86,258.16a6.88,6.88,0,0,1-2.69-.51,5.87,5.87,0,0,1-2.08-1.43,6.8,6.8,0,0,1-1.32-2.17,8.28,8.28,0,0,1-.47-2.83,9.23,9.23,0,0,1,.47-3,6.68,6.68,0,0,1,1.35-2.3,5.8,5.8,0,0,1,2.13-1.46,7.28,7.28,0,0,1,2.81-.5,6.76,6.76,0,0,1,2.63.5,6.37,6.37,0,0,1,2,1.43,6.23,6.23,0,0,1,1.31,2.18,8.38,8.38,0,0,1,.48,2.81,9,9,0,0,1-.67,3.56A6.27,6.27,0,0,1,70,256.91l4,2.87H70.54l-2.47-1.9-1,.23A9.71,9.71,0,0,1,65.86,258.16ZM66,246a3.85,3.85,0,0,0-3.06,1.4,4.8,4.8,0,0,0-.87,1.62,6.93,6.93,0,0,0-.31,2.12,6.86,6.86,0,0,0,.31,2.06,4.86,4.86,0,0,0,.84,1.63,3.88,3.88,0,0,0,1.32,1,3.5,3.5,0,0,0,1.62.37,4.3,4.3,0,0,0,1.77-.34,3.73,3.73,0,0,0,1.35-1,4.42,4.42,0,0,0,.83-1.63,7.32,7.32,0,0,0,.31-2.13,7.56,7.56,0,0,0-.28-2.17,4.79,4.79,0,0,0-.81-1.63,3,3,0,0,0-1.32-1A4.73,4.73,0,0,0,66,246Z"/><path class="cls-1" d="M82.65,257.93H75V244.19h2.26V256h5.33v1.93Z"/><path class="cls-1" d="M85.78,242.92a1.44,1.44,0,0,1-.84-.31,1.11,1.11,0,0,1-.33-.78,1.15,1.15,0,0,1,.33-.8,1.13,1.13,0,0,1,.84-.3,1.27,1.27,0,0,1,.85.3,1,1,0,0,1,.32.8,1,1,0,0,1-.32.78A1.21,1.21,0,0,1,85.78,242.92Zm1.21,15H84.66V244.19H87Z"/><path class="cls-1" d="M99.93,244.2l-4.51,8.74v5H93.16v-5l-4.4-8.79h2.6l2.69,5.88a5.16,5.16,0,0,1,.28.78h0a4.37,4.37,0,0,1,.31-.78l2.83-5.88h2.46Z"/><path class="cls-1" d="M111.29,244.2l-4.52,8.74v5H104.5v-5l-4.4-8.79h2.61l2.68,5.88q.17.38.3.78h0a2.81,2.81,0,0,1,.3-.78l2.85-5.88h2.45Z"/><path class="cls-1" d="M122.83,257.93h-2.42l-1.24-3.49h-5.41l-1.17,3.49h-2.5l5.15-13.74h2.58Zm-4.34-5.34-1.9-5.56a4.44,4.44,0,0,1-.18-.88h0a4.34,4.34,0,0,1-.21.88l-1.87,5.49Z"/><path class="cls-1" d="M132.14,246.14h-3.95v11.79h-2.28V246.14H122V244.2H132.2v1.94Z"/><path class="cls-1" d="M151.27,257.93h-2.5l-6.5-10.1a5.74,5.74,0,0,1-.4-.78h0a11.53,11.53,0,0,1,.08,1.86v9h-2.21V244.19h2.66l6.34,9.86a7.44,7.44,0,0,1,.5.83h0a16.18,16.18,0,0,1-.08-1.84v-8.85h2.11Z"/><path class="cls-1" d="M165.9,257.93h-2.49l-1.23-3.49h-5.41l-1.17,3.49h-2.51l5.15-13.74h2.59Zm-4.34-5.34-1.9-5.56a4.44,4.44,0,0,1-.18-.88h0a5.34,5.34,0,0,1-.2.88l-1.88,5.49Z"/><path class="cls-1" d="M177.59,245.19,170.06,256h7.42v1.93H166.86v-1l7.57-10.77h-6.91V244.2h10.16v1Z"/><path class="cls-1" d="M180.86,242.92a1.27,1.27,0,0,1-.83-.31,1,1,0,0,1-.34-.78,1.1,1.1,0,0,1,1.17-1.1,1.27,1.27,0,0,1,.85.3,1.1,1.1,0,0,1,.34.8,1,1,0,0,1-.34.78A1.13,1.13,0,0,1,180.86,242.92Zm1.22,15h-2.36V244.19h2.42Z"/><path class="cls-1" d="M196.08,257.93h-2.66l-2.18-3.65a7.58,7.58,0,0,0-.6-.88,3,3,0,0,0-.58-.59,2.69,2.69,0,0,0-.65-.34,2.3,2.3,0,0,0-.78-.11h-.93v5.57h-2.31V244.19h4.5a7.86,7.86,0,0,1,1.81.21,4.56,4.56,0,0,1,1.43.71,3.57,3.57,0,0,1,.94,1.14,3.77,3.77,0,0,1,.34,1.62,4.12,4.12,0,0,1-.23,1.35,3.26,3.26,0,0,1-.61,1.09,3.5,3.5,0,0,1-.95.81,4.17,4.17,0,0,1-1.26.51h0a4.11,4.11,0,0,1,.65.47,5.21,5.21,0,0,1,.52.53,5.9,5.9,0,0,1,.5.62c.18.23.34.51.54.78Zm-8.35-11.88v4.46h1.9a2.75,2.75,0,0,0,1-.17,1.84,1.84,0,0,0,.78-.47,1.71,1.71,0,0,0,.51-.76,2.52,2.52,0,0,0,.19-1,1.91,1.91,0,0,0-.61-1.62,2.7,2.7,0,0,0-1.79-.57h-2Z"/><path class="cls-1" d="M205.3,257.93h-7.62V244.19H200V256h5.32v1.93Z"/><path class="cls-1" d="M208.42,242.92a1.45,1.45,0,0,1-.85-.31,1,1,0,0,1-.34-.78,1.1,1.1,0,0,1,.34-.8,1.14,1.14,0,0,1,.85-.3,1.22,1.22,0,0,1,.84.3,1.09,1.09,0,0,1,.32.8,1.06,1.06,0,0,1-.32.78A1.1,1.1,0,0,1,208.42,242.92Zm1.2,15h-2.36V244.19h2.36Z"/><path class="cls-1" d="M222.6,244.2l-4.52,8.74v5h-2.27v-5l-4.42-8.79H214l2.68,5.88a6.62,6.62,0,0,1,.3.78h0a2.89,2.89,0,0,1,.31-.78l2.84-5.88h2.47Z"/><path class="cls-1" d="M225.47,242.92a1.25,1.25,0,0,1-.82-.31,1.05,1.05,0,0,1-.35-.78,1.11,1.11,0,0,1,.35-.8,1.09,1.09,0,0,1,.82-.3,1.25,1.25,0,0,1,.85.3,1.07,1.07,0,0,1,.34.8,1,1,0,0,1-.34.78A1.19,1.19,0,0,1,225.47,242.92Zm1.21,15h-2.29V244.19h2.34Z"/></g></g></g></svg>