<svg xmlns="http://www.w3.org/2000/svg" xmlns:xlink="http://www.w3.org/1999/xlink" width="171" zoomAndPan="magnify" viewBox="0 0 128.25 42.75" height="57" preserveAspectRatio="xMidYMid meet" version="1.2"><defs><clipPath id="1aeb77d576"><path d="M 9 13 L 35 13 L 35 40.699219 L 9 40.699219 Z M 9 13 "/></clipPath><clipPath id="ec26d8aaae"><path d="M 1 4.90625 L 19 4.90625 L 19 31 L 1 31 Z M 1 4.90625 "/></clipPath><clipPath id="f634796f7c"><path d="M 28 16 L 35.789062 16 L 35.789062 38 L 28 38 Z M 28 16 "/></clipPath><clipPath id="102d2434aa"><path d="M 33 20 L 35.789062 20 L 35.789062 31 L 33 31 Z M 33 20 "/></clipPath><clipPath id="fc347513f5"><path d="M 1 4.90625 L 24 4.90625 L 24 33 L 1 33 Z M 1 4.90625 "/></clipPath></defs><g id="b36671754b"><g clip-rule="nonzero" clip-path="url(#1aeb77d576)"><path style=" stroke:none;fill-rule:nonzero;fill:#030f4f;fill-opacity:1;" d="M 30.089844 27.652344 C 30.089844 21.449219 32.25 17.96875 34.371094 16.050781 C 34.015625 15.175781 33.59375 14.335938 33.109375 13.535156 C 28.097656 18.015625 28.355469 25.933594 28.355469 25.933594 C 27.539062 40.222656 16.882812 40.003906 11.179688 38.839844 C 10.59375 38.769531 10.023438 38.664062 9.484375 38.519531 C 11.976562 39.84375 14.816406 40.589844 17.832031 40.589844 C 18.171875 40.589844 18.511719 40.582031 18.847656 40.5625 C 24.480469 39.558594 30.089844 35.5625 30.089844 27.652344 "/></g><path style=" stroke:none;fill-rule:nonzero;fill:#030f4f;fill-opacity:1;" d="M 27.125 25.785156 C 27.125 18.152344 30.394531 14.644531 32.835938 13.089844 C 32.359375 12.355469 31.832031 11.65625 31.253906 10.996094 C 25.21875 15.261719 25.511719 24.183594 25.511719 24.183594 C 24.695312 38.472656 14.039062 38.253906 8.335938 37.089844 C 7.832031 37.027344 7.339844 36.941406 6.871094 36.828125 C 7.59375 37.390625 8.359375 37.898438 9.164062 38.347656 C 9.722656 38.507812 10.40625 38.683594 11.179688 38.839844 C 17.851562 39.65625 27.125 35.957031 27.125 25.785156 "/><path style=" stroke:none;fill-rule:nonzero;fill:#030f4f;fill-opacity:1;" d="M 24.28125 24.03125 C 24.28125 15.230469 28.628906 11.917969 31.039062 10.753906 C 30.390625 10.042969 29.6875 9.382812 28.933594 8.78125 C 22.71875 12.996094 23.015625 22.085938 23.015625 22.085938 C 22.199219 36.378906 11.542969 36.160156 5.839844 34.996094 C 5.441406 34.949219 5.054688 34.882812 4.675781 34.800781 C 5.304688 35.488281 5.988281 36.125 6.71875 36.707031 C 7.191406 36.835938 7.738281 36.96875 8.335938 37.089844 C 15.003906 37.90625 24.28125 34.207031 24.28125 24.03125 "/><g clip-rule="nonzero" clip-path="url(#ec26d8aaae)"><path style=" stroke:none;fill-rule:nonzero;fill:#030f4f;fill-opacity:1;" d="M 13.21875 17.234375 C 13.21875 10.164062 16.027344 6.632812 18.378906 4.917969 C 18.199219 4.910156 18.015625 4.90625 17.832031 4.90625 C 16.730469 4.90625 15.65625 5.007812 14.609375 5.199219 C 11.410156 9.699219 11.601562 15.636719 11.601562 15.636719 C 11.054688 25.261719 6.039062 28.304688 1.082031 28.910156 C 1.242188 29.347656 1.421875 29.78125 1.617188 30.207031 C 7.367188 29.308594 13.21875 25.3125 13.21875 17.234375 "/></g><path style=" stroke:none;fill-rule:nonzero;fill:#030f4f;fill-opacity:1;" d="M 0.496094 18.523438 C 1.746094 16.992188 2.65625 15.089844 3.035156 12.777344 C 1.871094 14.5 1 16.441406 0.496094 18.523438 "/><path style=" stroke:none;fill-rule:nonzero;fill:#030f4f;fill-opacity:1;" d="M 21.785156 21.9375 C 21.785156 12.957031 26.3125 9.691406 28.6875 8.59375 C 27.828125 7.929688 26.90625 7.34375 25.929688 6.847656 C 19.835938 11.097656 20.128906 20.074219 20.128906 20.074219 C 19.328125 34.117188 9.023438 34.148438 3.253906 33.039062 C 3.667969 33.625 4.113281 34.183594 4.59375 34.710938 C 4.972656 34.808594 5.390625 34.90625 5.839844 34.996094 C 12.507812 35.8125 21.785156 32.109375 21.785156 21.9375 "/><g clip-rule="nonzero" clip-path="url(#f634796f7c)"><path style=" stroke:none;fill-rule:nonzero;fill:#030f4f;fill-opacity:1;" d="M 31.320312 27.800781 C 31.070312 32.203125 29.882812 35.226562 28.199219 37.269531 C 29.53125 36.320312 30.722656 35.1875 31.75 33.914062 C 32.421875 32.359375 32.808594 30.550781 32.808594 28.472656 C 32.808594 24.082031 33.890625 21.058594 35.273438 18.984375 C 35.121094 18.269531 34.921875 17.570312 34.6875 16.886719 C 31.113281 21.433594 31.320312 27.800781 31.320312 27.800781 "/></g><path style=" stroke:none;fill-rule:nonzero;fill:#030f4f;fill-opacity:1;" d="M 10.375 15.484375 C 10.375 10.75 11.632812 7.601562 13.171875 5.523438 C 12.183594 5.789062 11.230469 6.140625 10.320312 6.5625 C 8.996094 10.15625 9.105469 13.539062 9.105469 13.539062 C 8.625 22 4.691406 25.375 0.382812 26.480469 C 0.492188 27 0.625 27.511719 0.777344 28.015625 C 5.808594 26.574219 10.375 22.621094 10.375 15.484375 "/><path style=" stroke:none;fill-rule:nonzero;fill:#030f4f;fill-opacity:1;" d="M 17.410156 19.253906 C 16.710938 31.511719 8.773438 33.09375 2.929688 32.5625 C 3.03125 32.714844 3.132812 32.863281 3.234375 33.011719 C 9.882812 33.691406 18.902344 29.953125 18.902344 19.925781 C 18.902344 11.207031 23.167969 7.871094 25.589844 6.679688 C 24.917969 6.355469 24.222656 6.070312 23.507812 5.828125 C 17.109375 9.988281 17.410156 19.253906 17.410156 19.253906 "/><g clip-rule="nonzero" clip-path="url(#102d2434aa)"><path style=" stroke:none;fill-rule:nonzero;fill:#030f4f;fill-opacity:1;" d="M 34.039062 28.621094 C 34 29.320312 33.933594 29.984375 33.847656 30.613281 C 35.015625 28.242188 35.671875 25.574219 35.671875 22.75 C 35.671875 22.105469 35.636719 21.46875 35.570312 20.839844 C 33.910156 24.714844 34.039062 28.621094 34.039062 28.621094 "/></g><path style=" stroke:none;fill-rule:nonzero;fill:#030f4f;fill-opacity:1;" d="M 5.386719 11.53125 C 5.386719 10.972656 5.402344 10.433594 5.4375 9.917969 C 5.085938 10.257812 4.75 10.609375 4.425781 10.976562 C 4.039062 16.136719 2.332031 19.332031 0.0507812 21.253906 C 0.0273438 21.539062 0.0117188 21.832031 0 22.121094 C 3.109375 20.019531 5.386719 16.570312 5.386719 11.53125 "/><path style=" stroke:none;fill-rule:nonzero;fill:#030f4f;fill-opacity:1;" d="M 7.878906 13.390625 C 7.878906 11.027344 8.191406 9.058594 8.699219 7.421875 C 8.046875 7.808594 7.425781 8.238281 6.832031 8.703125 C 6.574219 10.457031 6.613281 11.683594 6.613281 11.683594 C 6.214844 18.714844 3.429688 22.234375 0.0234375 23.855469 C 0.0546875 24.324219 0.101562 24.789062 0.164062 25.25 C 4.394531 23.425781 7.878906 19.621094 7.878906 13.390625 "/><g clip-rule="nonzero" clip-path="url(#fc347513f5)"><path style=" stroke:none;fill-rule:nonzero;fill:#030f4f;fill-opacity:1;" d="M 16.183594 19.105469 C 16.183594 10.019531 20.816406 6.78125 23.167969 5.71875 C 21.910156 5.328125 20.589844 5.066406 19.230469 4.960938 C 14.1875 9.441406 14.445312 17.386719 14.445312 17.386719 C 13.824219 28.335938 7.421875 30.765625 1.894531 30.78125 C 2.152344 31.289062 2.429688 31.78125 2.734375 32.257812 C 9 31.996094 16.183594 28.054688 16.183594 19.105469 "/></g><g style="fill:#030f4f;fill-opacity:1;"><g transform="translate(41.963331, 24.942389)"><path style="stroke:none" d="M 6.46875 0.34375 C 5.101562 0.34375 3.894531 -0.0390625 2.84375 -0.8125 C 1.789062 -1.582031 1.054688 -2.675781 0.640625 -4.09375 L 3.40625 -5.1875 C 3.625 -4.351562 3.992188 -3.6875 4.515625 -3.1875 C 5.046875 -2.695312 5.707031 -2.453125 6.5 -2.453125 C 7.144531 -2.453125 7.703125 -2.613281 8.171875 -2.9375 C 8.640625 -3.269531 8.875 -3.726562 8.875 -4.3125 C 8.875 -4.894531 8.648438 -5.367188 8.203125 -5.734375 C 7.765625 -6.109375 6.976562 -6.503906 5.84375 -6.921875 L 4.875 -7.28125 C 3.863281 -7.625 3 -8.15625 2.28125 -8.875 C 1.570312 -9.601562 1.21875 -10.515625 1.21875 -11.609375 C 1.21875 -12.421875 1.425781 -13.160156 1.84375 -13.828125 C 2.269531 -14.503906 2.867188 -15.035156 3.640625 -15.421875 C 4.421875 -15.804688 5.300781 -16 6.28125 -16 C 7.6875 -16 8.796875 -15.664062 9.609375 -15 C 10.429688 -14.34375 10.992188 -13.566406 11.296875 -12.671875 L 8.703125 -11.578125 C 8.535156 -12.066406 8.25 -12.472656 7.84375 -12.796875 C 7.445312 -13.128906 6.9375 -13.296875 6.3125 -13.296875 C 5.675781 -13.296875 5.148438 -13.144531 4.734375 -12.84375 C 4.316406 -12.539062 4.109375 -12.148438 4.109375 -11.671875 C 4.109375 -11.203125 4.304688 -10.800781 4.703125 -10.46875 C 5.097656 -10.144531 5.742188 -9.832031 6.640625 -9.53125 L 7.625 -9.203125 C 8.976562 -8.734375 10.015625 -8.113281 10.734375 -7.34375 C 11.460938 -6.582031 11.828125 -5.582031 11.828125 -4.34375 C 11.828125 -3.320312 11.5625 -2.457031 11.03125 -1.75 C 10.507812 -1.050781 9.835938 -0.523438 9.015625 -0.171875 C 8.191406 0.171875 7.34375 0.34375 6.46875 0.34375 Z M 6.46875 0.34375 "/></g></g><g style="fill:#030f4f;fill-opacity:1;"><g transform="translate(54.749614, 24.942389)"><path style="stroke:none" d="M 1.359375 -15.65625 L 4.21875 -15.65625 L 4.21875 -7.125 L 4.34375 -7.125 L 8.0625 -10.84375 L 11.609375 -10.84375 L 11.609375 -10.671875 L 7.5625 -6.703125 L 11.890625 -0.171875 L 11.890625 0 L 8.5 0 L 5.53125 -4.75 L 4.21875 -3.453125 L 4.21875 0 L 1.359375 0 Z M 1.359375 -15.65625 "/></g></g><g style="fill:#030f4f;fill-opacity:1;"><g transform="translate(66.355627, 24.942389)"><path style="stroke:none" d="M 6.515625 0.34375 C 5.410156 0.34375 4.421875 0.0976562 3.546875 -0.390625 C 2.671875 -0.890625 1.984375 -1.578125 1.484375 -2.453125 C 0.992188 -3.335938 0.75 -4.328125 0.75 -5.421875 C 0.75 -6.523438 0.992188 -7.515625 1.484375 -8.390625 C 1.984375 -9.265625 2.671875 -9.945312 3.546875 -10.4375 C 4.421875 -10.9375 5.410156 -11.1875 6.515625 -11.1875 C 7.609375 -11.1875 8.59375 -10.9375 9.46875 -10.4375 C 10.34375 -9.945312 11.023438 -9.257812 11.515625 -8.375 C 12.015625 -7.5 12.265625 -6.515625 12.265625 -5.421875 C 12.265625 -4.328125 12.015625 -3.335938 11.515625 -2.453125 C 11.023438 -1.578125 10.34375 -0.890625 9.46875 -0.390625 C 8.59375 0.0976562 7.609375 0.34375 6.515625 0.34375 Z M 6.515625 -2.296875 C 7.023438 -2.296875 7.5 -2.421875 7.9375 -2.671875 C 8.382812 -2.929688 8.738281 -3.296875 9 -3.765625 C 9.269531 -4.242188 9.40625 -4.796875 9.40625 -5.421875 C 9.40625 -6.046875 9.269531 -6.59375 9 -7.0625 C 8.738281 -7.539062 8.382812 -7.90625 7.9375 -8.15625 C 7.5 -8.414062 7.023438 -8.546875 6.515625 -8.546875 C 5.992188 -8.546875 5.507812 -8.414062 5.0625 -8.15625 C 4.613281 -7.90625 4.257812 -7.539062 4 -7.0625 C 3.738281 -6.59375 3.609375 -6.046875 3.609375 -5.421875 C 3.609375 -4.796875 3.738281 -4.242188 4 -3.765625 C 4.257812 -3.296875 4.613281 -2.929688 5.0625 -2.671875 C 5.507812 -2.421875 5.992188 -2.296875 6.515625 -2.296875 Z M 6.515625 -2.296875 "/></g></g><g style="fill:#030f4f;fill-opacity:1;"><g transform="translate(79.251196, 24.942389)"><path style="stroke:none" d="M 1.359375 -15.65625 L 4.21875 -15.65625 L 4.21875 0 L 1.359375 0 Z M 1.359375 -15.65625 "/></g></g><g style="fill:#030f4f;fill-opacity:1;"><g transform="translate(84.824705, 24.942389)"><path style="stroke:none" d="M 4.71875 -0.53125 L 0.15625 -10.84375 L 3.40625 -10.84375 L 6.171875 -4.21875 L 6.34375 -4.21875 L 8.984375 -10.84375 L 12.203125 -10.84375 L 5.421875 4.71875 L 2.34375 4.71875 Z M 4.71875 -0.53125 "/></g></g><g style="fill:#030f4f;fill-opacity:1;"><g transform="translate(97.173851, 24.942389)"><path style="stroke:none" d="M 1.359375 -10.84375 L 4.046875 -10.84375 L 4.046875 -9.4375 L 4.21875 -9.4375 C 4.550781 -9.976562 5.007812 -10.40625 5.59375 -10.71875 C 6.175781 -11.03125 6.832031 -11.1875 7.5625 -11.1875 C 8.882812 -11.1875 9.890625 -10.78125 10.578125 -9.96875 C 11.265625 -9.15625 11.609375 -8.039062 11.609375 -6.625 L 11.609375 0 L 8.75 0 L 8.75 -6.28125 C 8.75 -7.019531 8.566406 -7.582031 8.203125 -7.96875 C 7.847656 -8.351562 7.347656 -8.546875 6.703125 -8.546875 C 5.929688 -8.546875 5.320312 -8.242188 4.875 -7.640625 C 4.4375 -7.046875 4.21875 -6.289062 4.21875 -5.375 L 4.21875 0 L 1.359375 0 Z M 1.359375 -10.84375 "/></g></g><g style="fill:#030f4f;fill-opacity:1;"><g transform="translate(41.963331, 38.824969)"><path style="stroke:none" d="M 0.453125 -4 L 2.75 -4 L 2.75 -3.546875 L 0.921875 -3.546875 L 0.921875 -2.21875 L 2.578125 -2.21875 L 2.578125 -1.78125 L 0.921875 -1.78125 L 0.921875 -0.453125 L 2.75 -0.453125 L 2.75 0 L 0.453125 0 Z M 0.453125 -4 "/></g></g><g style="fill:#030f4f;fill-opacity:1;"><g transform="translate(44.951053, 38.824969)"><path style="stroke:none" d="M 1.25 0.09375 C 1.039062 0.09375 0.851562 0.0507812 0.6875 -0.03125 C 0.53125 -0.113281 0.40625 -0.222656 0.3125 -0.359375 C 0.226562 -0.503906 0.1875 -0.664062 0.1875 -0.84375 C 0.1875 -1.132812 0.296875 -1.363281 0.515625 -1.53125 C 0.734375 -1.695312 1.015625 -1.78125 1.359375 -1.78125 C 1.535156 -1.78125 1.691406 -1.757812 1.828125 -1.71875 C 1.960938 -1.6875 2.070312 -1.644531 2.15625 -1.59375 L 2.15625 -1.75 C 2.15625 -1.882812 2.117188 -2.003906 2.046875 -2.109375 C 1.984375 -2.210938 1.894531 -2.289062 1.78125 -2.34375 C 1.664062 -2.40625 1.539062 -2.4375 1.40625 -2.4375 C 1.09375 -2.4375 0.851562 -2.304688 0.6875 -2.046875 L 0.28125 -2.3125 C 0.40625 -2.488281 0.5625 -2.625 0.75 -2.71875 C 0.9375 -2.8125 1.148438 -2.859375 1.390625 -2.859375 C 1.765625 -2.859375 2.0625 -2.753906 2.28125 -2.546875 C 2.5 -2.347656 2.609375 -2.070312 2.609375 -1.71875 L 2.609375 0 L 2.15625 0 L 2.15625 -0.40625 L 2.140625 -0.40625 C 2.046875 -0.257812 1.921875 -0.140625 1.765625 -0.046875 C 1.617188 0.046875 1.445312 0.09375 1.25 0.09375 Z M 1.28125 -0.328125 C 1.425781 -0.328125 1.566406 -0.363281 1.703125 -0.4375 C 1.835938 -0.519531 1.945312 -0.628906 2.03125 -0.765625 C 2.113281 -0.898438 2.15625 -1.046875 2.15625 -1.203125 C 1.945312 -1.335938 1.707031 -1.40625 1.4375 -1.40625 C 1.207031 -1.40625 1.019531 -1.347656 0.875 -1.234375 C 0.738281 -1.128906 0.671875 -1 0.671875 -0.84375 C 0.671875 -0.6875 0.726562 -0.5625 0.84375 -0.46875 C 0.96875 -0.375 1.113281 -0.328125 1.28125 -0.328125 Z M 1.28125 -0.328125 "/></g></g><g style="fill:#030f4f;fill-opacity:1;"><g transform="translate(47.866166, 38.824969)"><path style="stroke:none" d="M 0.34375 -2.765625 L 0.796875 -2.765625 L 0.796875 -2.3125 L 0.8125 -2.3125 C 0.863281 -2.46875 0.972656 -2.59375 1.140625 -2.6875 C 1.304688 -2.789062 1.46875 -2.84375 1.625 -2.84375 C 1.738281 -2.84375 1.847656 -2.828125 1.953125 -2.796875 L 1.953125 -2.28125 C 1.847656 -2.34375 1.71875 -2.375 1.5625 -2.375 C 1.425781 -2.375 1.300781 -2.332031 1.1875 -2.25 C 1.070312 -2.175781 0.976562 -2.078125 0.90625 -1.953125 C 0.84375 -1.828125 0.8125 -1.691406 0.8125 -1.546875 L 0.8125 0 L 0.34375 0 Z M 0.34375 -2.765625 "/></g></g><g style="fill:#030f4f;fill-opacity:1;"><g transform="translate(49.938018, 38.824969)"><path style="stroke:none" d="M 0.34375 -4 L 0.8125 -4 L 0.8125 0 L 0.34375 0 Z M 0.34375 -4 "/></g></g><g style="fill:#030f4f;fill-opacity:1;"><g transform="translate(51.105178, 38.824969)"><path style="stroke:none" d="M 1.1875 -0.171875 L 0.03125 -2.765625 L 0.546875 -2.765625 L 1.40625 -0.734375 L 1.421875 -0.734375 L 2.25 -2.765625 L 2.765625 -2.765625 L 1.03125 1.203125 L 0.546875 1.203125 Z M 1.1875 -0.171875 "/></g></g><g style="fill:#030f4f;fill-opacity:1;"><g transform="translate(53.523276, 38.824969)"><path style="stroke:none" d="M 0.65625 0.03125 C 0.550781 0.03125 0.460938 0 0.390625 -0.0625 C 0.328125 -0.132812 0.296875 -0.222656 0.296875 -0.328125 C 0.296875 -0.421875 0.328125 -0.5 0.390625 -0.5625 C 0.460938 -0.632812 0.550781 -0.671875 0.65625 -0.671875 C 0.757812 -0.671875 0.84375 -0.632812 0.90625 -0.5625 C 0.976562 -0.5 1.015625 -0.421875 1.015625 -0.328125 C 1.015625 -0.222656 0.976562 -0.132812 0.90625 -0.0625 C 0.84375 0 0.757812 0.03125 0.65625 0.03125 Z M 0.65625 0.03125 "/></g></g><g style="fill:#030f4f;fill-opacity:1;"><g transform="translate(54.84122, 38.824969)"><path style="stroke:none" d="M 0 0 Z M 0 0 "/></g></g><g style="fill:#030f4f;fill-opacity:1;"><g transform="translate(55.969296, 38.824969)"><path style="stroke:none" d="M 1.59375 -4 L 2.125 -4 L 3.640625 0 L 3.125 0 L 2.734375 -1.09375 L 1 -1.09375 L 0.59375 0 L 0.078125 0 Z M 2.5625 -1.546875 L 2.03125 -2.984375 L 1.875 -3.40625 L 1.859375 -3.40625 L 1.703125 -2.984375 L 1.15625 -1.546875 Z M 2.5625 -1.546875 "/></g></g><g style="fill:#030f4f;fill-opacity:1;"><g transform="translate(59.615985, 38.824969)"><path style="stroke:none" d="M 1.59375 0.09375 C 1.332031 0.09375 1.09375 0.03125 0.875 -0.09375 C 0.65625 -0.226562 0.484375 -0.40625 0.359375 -0.625 C 0.242188 -0.851562 0.1875 -1.109375 0.1875 -1.390625 C 0.1875 -1.660156 0.242188 -1.90625 0.359375 -2.125 C 0.484375 -2.351562 0.65625 -2.53125 0.875 -2.65625 C 1.09375 -2.789062 1.332031 -2.859375 1.59375 -2.859375 C 1.894531 -2.859375 2.148438 -2.785156 2.359375 -2.640625 C 2.566406 -2.492188 2.71875 -2.304688 2.8125 -2.078125 L 2.375 -1.890625 C 2.300781 -2.066406 2.195312 -2.195312 2.0625 -2.28125 C 1.925781 -2.375 1.765625 -2.421875 1.578125 -2.421875 C 1.421875 -2.421875 1.269531 -2.378906 1.125 -2.296875 C 0.988281 -2.210938 0.875 -2.085938 0.78125 -1.921875 C 0.695312 -1.765625 0.65625 -1.585938 0.65625 -1.390625 C 0.65625 -1.179688 0.695312 -1 0.78125 -0.84375 C 0.875 -0.6875 0.988281 -0.5625 1.125 -0.46875 C 1.269531 -0.382812 1.421875 -0.34375 1.578125 -0.34375 C 1.773438 -0.34375 1.941406 -0.390625 2.078125 -0.484375 C 2.222656 -0.578125 2.332031 -0.707031 2.40625 -0.875 L 2.8125 -0.703125 C 2.71875 -0.460938 2.566406 -0.269531 2.359375 -0.125 C 2.148438 0.0195312 1.894531 0.09375 1.59375 0.09375 Z M 1.59375 0.09375 "/></g></g><g style="fill:#030f4f;fill-opacity:1;"><g transform="translate(62.570197, 38.824969)"><path style="stroke:none" d="M 1.59375 0.09375 C 1.332031 0.09375 1.09375 0.03125 0.875 -0.09375 C 0.65625 -0.226562 0.484375 -0.40625 0.359375 -0.625 C 0.242188 -0.851562 0.1875 -1.109375 0.1875 -1.390625 C 0.1875 -1.660156 0.242188 -1.90625 0.359375 -2.125 C 0.484375 -2.351562 0.65625 -2.53125 0.875 -2.65625 C 1.09375 -2.789062 1.332031 -2.859375 1.59375 -2.859375 C 1.894531 -2.859375 2.148438 -2.785156 2.359375 -2.640625 C 2.566406 -2.492188 2.71875 -2.304688 2.8125 -2.078125 L 2.375 -1.890625 C 2.300781 -2.066406 2.195312 -2.195312 2.0625 -2.28125 C 1.925781 -2.375 1.765625 -2.421875 1.578125 -2.421875 C 1.421875 -2.421875 1.269531 -2.378906 1.125 -2.296875 C 0.988281 -2.210938 0.875 -2.085938 0.78125 -1.921875 C 0.695312 -1.765625 0.65625 -1.585938 0.65625 -1.390625 C 0.65625 -1.179688 0.695312 -1 0.78125 -0.84375 C 0.875 -0.6875 0.988281 -0.5625 1.125 -0.46875 C 1.269531 -0.382812 1.421875 -0.34375 1.578125 -0.34375 C 1.773438 -0.34375 1.941406 -0.390625 2.078125 -0.484375 C 2.222656 -0.578125 2.332031 -0.707031 2.40625 -0.875 L 2.8125 -0.703125 C 2.71875 -0.460938 2.566406 -0.269531 2.359375 -0.125 C 2.148438 0.0195312 1.894531 0.09375 1.59375 0.09375 Z M 1.59375 0.09375 "/></g></g><g style="fill:#030f4f;fill-opacity:1;"><g transform="translate(65.552329, 38.824969)"><path style="stroke:none" d="M 1.359375 0.09375 C 1.023438 0.09375 0.769531 -0.00390625 0.59375 -0.203125 C 0.414062 -0.398438 0.328125 -0.675781 0.328125 -1.03125 L 0.328125 -2.765625 L 0.796875 -2.765625 L 0.796875 -1.109375 C 0.796875 -0.835938 0.851562 -0.640625 0.96875 -0.515625 C 1.09375 -0.398438 1.265625 -0.34375 1.484375 -0.34375 C 1.640625 -0.34375 1.773438 -0.382812 1.890625 -0.46875 C 2.015625 -0.550781 2.109375 -0.660156 2.171875 -0.796875 C 2.234375 -0.941406 2.265625 -1.085938 2.265625 -1.234375 L 2.265625 -2.765625 L 2.734375 -2.765625 L 2.734375 0 L 2.296875 0 L 2.296875 -0.40625 L 2.265625 -0.40625 C 2.179688 -0.269531 2.054688 -0.148438 1.890625 -0.046875 C 1.734375 0.046875 1.554688 0.09375 1.359375 0.09375 Z M 1.359375 0.09375 "/></g></g><g style="fill:#030f4f;fill-opacity:1;"><g transform="translate(68.646147, 38.824969)"><path style="stroke:none" d="M 0.34375 -2.765625 L 0.796875 -2.765625 L 0.796875 -2.3125 L 0.8125 -2.3125 C 0.863281 -2.46875 0.972656 -2.59375 1.140625 -2.6875 C 1.304688 -2.789062 1.46875 -2.84375 1.625 -2.84375 C 1.738281 -2.84375 1.847656 -2.828125 1.953125 -2.796875 L 1.953125 -2.28125 C 1.847656 -2.34375 1.71875 -2.375 1.5625 -2.375 C 1.425781 -2.375 1.300781 -2.332031 1.1875 -2.25 C 1.070312 -2.175781 0.976562 -2.078125 0.90625 -1.953125 C 0.84375 -1.828125 0.8125 -1.691406 0.8125 -1.546875 L 0.8125 0 L 0.34375 0 Z M 0.34375 -2.765625 "/></g></g><g style="fill:#030f4f;fill-opacity:1;"><g transform="translate(70.578386, 38.824969)"><path style="stroke:none" d="M 1.25 0.09375 C 1.039062 0.09375 0.851562 0.0507812 0.6875 -0.03125 C 0.53125 -0.113281 0.40625 -0.222656 0.3125 -0.359375 C 0.226562 -0.503906 0.1875 -0.664062 0.1875 -0.84375 C 0.1875 -1.132812 0.296875 -1.363281 0.515625 -1.53125 C 0.734375 -1.695312 1.015625 -1.78125 1.359375 -1.78125 C 1.535156 -1.78125 1.691406 -1.757812 1.828125 -1.71875 C 1.960938 -1.6875 2.070312 -1.644531 2.15625 -1.59375 L 2.15625 -1.75 C 2.15625 -1.882812 2.117188 -2.003906 2.046875 -2.109375 C 1.984375 -2.210938 1.894531 -2.289062 1.78125 -2.34375 C 1.664062 -2.40625 1.539062 -2.4375 1.40625 -2.4375 C 1.09375 -2.4375 0.851562 -2.304688 0.6875 -2.046875 L 0.28125 -2.3125 C 0.40625 -2.488281 0.5625 -2.625 0.75 -2.71875 C 0.9375 -2.8125 1.148438 -2.859375 1.390625 -2.859375 C 1.765625 -2.859375 2.0625 -2.753906 2.28125 -2.546875 C 2.5 -2.347656 2.609375 -2.070312 2.609375 -1.71875 L 2.609375 0 L 2.15625 0 L 2.15625 -0.40625 L 2.140625 -0.40625 C 2.046875 -0.257812 1.921875 -0.140625 1.765625 -0.046875 C 1.617188 0.046875 1.445312 0.09375 1.25 0.09375 Z M 1.28125 -0.328125 C 1.425781 -0.328125 1.566406 -0.363281 1.703125 -0.4375 C 1.835938 -0.519531 1.945312 -0.628906 2.03125 -0.765625 C 2.113281 -0.898438 2.15625 -1.046875 2.15625 -1.203125 C 1.945312 -1.335938 1.707031 -1.40625 1.4375 -1.40625 C 1.207031 -1.40625 1.019531 -1.347656 0.875 -1.234375 C 0.738281 -1.128906 0.671875 -1 0.671875 -0.84375 C 0.671875 -0.6875 0.726562 -0.5625 0.84375 -0.46875 C 0.96875 -0.375 1.113281 -0.328125 1.28125 -0.328125 Z M 1.28125 -0.328125 "/></g></g><g style="fill:#030f4f;fill-opacity:1;"><g transform="translate(73.437657, 38.824969)"><path style="stroke:none" d="M 1.40625 0.046875 C 1.300781 0.046875 1.195312 0.03125 1.09375 0 C 1 -0.0390625 0.921875 -0.09375 0.859375 -0.15625 C 0.785156 -0.226562 0.726562 -0.3125 0.6875 -0.40625 C 0.65625 -0.5 0.640625 -0.613281 0.640625 -0.75 L 0.640625 -2.34375 L 0.15625 -2.34375 L 0.15625 -2.765625 L 0.640625 -2.765625 L 0.640625 -3.59375 L 1.109375 -3.59375 L 1.109375 -2.765625 L 1.796875 -2.765625 L 1.796875 -2.34375 L 1.109375 -2.34375 L 1.109375 -0.859375 C 1.109375 -0.703125 1.140625 -0.585938 1.203125 -0.515625 C 1.273438 -0.429688 1.375 -0.390625 1.5 -0.390625 C 1.613281 -0.390625 1.710938 -0.414062 1.796875 -0.46875 L 1.796875 -0.015625 C 1.734375 0.00390625 1.675781 0.0195312 1.625 0.03125 C 1.570312 0.0390625 1.5 0.046875 1.40625 0.046875 Z M 1.40625 0.046875 "/></g></g><g style="fill:#030f4f;fill-opacity:1;"><g transform="translate(75.314053, 38.824969)"><path style="stroke:none" d="M 1.578125 0.09375 C 1.304688 0.09375 1.066406 0.03125 0.859375 -0.09375 C 0.648438 -0.226562 0.484375 -0.40625 0.359375 -0.625 C 0.242188 -0.84375 0.1875 -1.097656 0.1875 -1.390625 C 0.1875 -1.648438 0.242188 -1.890625 0.359375 -2.109375 C 0.472656 -2.335938 0.628906 -2.519531 0.828125 -2.65625 C 1.035156 -2.789062 1.273438 -2.859375 1.546875 -2.859375 C 1.816406 -2.859375 2.050781 -2.796875 2.25 -2.671875 C 2.457031 -2.554688 2.613281 -2.382812 2.71875 -2.15625 C 2.820312 -1.9375 2.875 -1.6875 2.875 -1.40625 C 2.875 -1.351562 2.867188 -1.316406 2.859375 -1.296875 L 0.671875 -1.296875 C 0.679688 -1.085938 0.726562 -0.910156 0.8125 -0.765625 C 0.90625 -0.617188 1.019531 -0.507812 1.15625 -0.4375 C 1.300781 -0.375 1.445312 -0.34375 1.59375 -0.34375 C 1.945312 -0.34375 2.21875 -0.515625 2.40625 -0.859375 L 2.828125 -0.65625 C 2.710938 -0.425781 2.546875 -0.242188 2.328125 -0.109375 C 2.117188 0.0234375 1.867188 0.09375 1.578125 0.09375 Z M 2.375 -1.6875 C 2.363281 -1.800781 2.332031 -1.910156 2.28125 -2.015625 C 2.226562 -2.128906 2.140625 -2.222656 2.015625 -2.296875 C 1.890625 -2.378906 1.734375 -2.421875 1.546875 -2.421875 C 1.328125 -2.421875 1.140625 -2.351562 0.984375 -2.21875 C 0.835938 -2.09375 0.742188 -1.914062 0.703125 -1.6875 Z M 2.375 -1.6875 "/></g></g><g style="fill:#030f4f;fill-opacity:1;"><g transform="translate(78.385538, 38.824969)"><path style="stroke:none" d="M 0.65625 0.03125 C 0.550781 0.03125 0.460938 0 0.390625 -0.0625 C 0.328125 -0.132812 0.296875 -0.222656 0.296875 -0.328125 C 0.296875 -0.421875 0.328125 -0.5 0.390625 -0.5625 C 0.460938 -0.632812 0.550781 -0.671875 0.65625 -0.671875 C 0.757812 -0.671875 0.84375 -0.632812 0.90625 -0.5625 C 0.976562 -0.5 1.015625 -0.421875 1.015625 -0.328125 C 1.015625 -0.222656 0.976562 -0.132812 0.90625 -0.0625 C 0.84375 0 0.757812 0.03125 0.65625 0.03125 Z M 0.65625 0.03125 "/></g></g><g style="fill:#030f4f;fill-opacity:1;"><g transform="translate(79.703482, 38.824969)"><path style="stroke:none" d="M 0 0 Z M 0 0 "/></g></g><g style="fill:#030f4f;fill-opacity:1;"><g transform="translate(80.775715, 38.824969)"><path style="stroke:none" d="M 1.265625 -3.546875 L 0.140625 -3.546875 L 0.140625 -4 L 2.859375 -4 L 2.859375 -3.546875 L 1.734375 -3.546875 L 1.734375 0 L 1.265625 0 Z M 1.265625 -3.546875 "/></g></g><g style="fill:#030f4f;fill-opacity:1;"><g transform="translate(83.445112, 38.824969)"><path style="stroke:none" d="M 0.34375 -2.765625 L 0.796875 -2.765625 L 0.796875 -2.3125 L 0.8125 -2.3125 C 0.863281 -2.46875 0.972656 -2.59375 1.140625 -2.6875 C 1.304688 -2.789062 1.46875 -2.84375 1.625 -2.84375 C 1.738281 -2.84375 1.847656 -2.828125 1.953125 -2.796875 L 1.953125 -2.28125 C 1.847656 -2.34375 1.71875 -2.375 1.5625 -2.375 C 1.425781 -2.375 1.300781 -2.332031 1.1875 -2.25 C 1.070312 -2.175781 0.976562 -2.078125 0.90625 -1.953125 C 0.84375 -1.828125 0.8125 -1.691406 0.8125 -1.546875 L 0.8125 0 L 0.34375 0 Z M 0.34375 -2.765625 "/></g></g><g style="fill:#030f4f;fill-opacity:1;"><g transform="translate(85.489043, 38.824969)"><path style="stroke:none" d="M 1.359375 0.09375 C 1.023438 0.09375 0.769531 -0.00390625 0.59375 -0.203125 C 0.414062 -0.398438 0.328125 -0.675781 0.328125 -1.03125 L 0.328125 -2.765625 L 0.796875 -2.765625 L 0.796875 -1.109375 C 0.796875 -0.835938 0.851562 -0.640625 0.96875 -0.515625 C 1.09375 -0.398438 1.265625 -0.34375 1.484375 -0.34375 C 1.640625 -0.34375 1.773438 -0.382812 1.890625 -0.46875 C 2.015625 -0.550781 2.109375 -0.660156 2.171875 -0.796875 C 2.234375 -0.941406 2.265625 -1.085938 2.265625 -1.234375 L 2.265625 -2.765625 L 2.734375 -2.765625 L 2.734375 0 L 2.296875 0 L 2.296875 -0.40625 L 2.265625 -0.40625 C 2.179688 -0.269531 2.054688 -0.148438 1.890625 -0.046875 C 1.734375 0.046875 1.554688 0.09375 1.359375 0.09375 Z M 1.359375 0.09375 "/></g></g><g style="fill:#030f4f;fill-opacity:1;"><g transform="translate(88.554939, 38.824969)"><path style="stroke:none" d="M 1.328125 0.09375 C 1.023438 0.09375 0.769531 0.0195312 0.5625 -0.125 C 0.363281 -0.28125 0.222656 -0.46875 0.140625 -0.6875 L 0.5625 -0.875 C 0.632812 -0.695312 0.738281 -0.5625 0.875 -0.46875 C 1.007812 -0.375 1.160156 -0.328125 1.328125 -0.328125 C 1.503906 -0.328125 1.648438 -0.363281 1.765625 -0.4375 C 1.878906 -0.519531 1.9375 -0.617188 1.9375 -0.734375 C 1.9375 -0.835938 1.890625 -0.925781 1.796875 -1 C 1.710938 -1.070312 1.566406 -1.132812 1.359375 -1.1875 L 0.984375 -1.28125 C 0.773438 -1.320312 0.597656 -1.40625 0.453125 -1.53125 C 0.304688 -1.664062 0.234375 -1.835938 0.234375 -2.046875 C 0.234375 -2.210938 0.28125 -2.359375 0.375 -2.484375 C 0.476562 -2.609375 0.609375 -2.703125 0.765625 -2.765625 C 0.929688 -2.828125 1.113281 -2.859375 1.3125 -2.859375 C 1.539062 -2.859375 1.753906 -2.800781 1.953125 -2.6875 C 2.148438 -2.582031 2.289062 -2.425781 2.375 -2.21875 L 1.953125 -2.046875 C 1.890625 -2.179688 1.796875 -2.28125 1.671875 -2.34375 C 1.554688 -2.40625 1.425781 -2.4375 1.28125 -2.4375 C 1.132812 -2.4375 1 -2.398438 0.875 -2.328125 C 0.757812 -2.253906 0.703125 -2.164062 0.703125 -2.0625 C 0.703125 -1.957031 0.738281 -1.878906 0.8125 -1.828125 C 0.894531 -1.773438 1.019531 -1.722656 1.1875 -1.671875 L 1.59375 -1.578125 C 1.875 -1.503906 2.082031 -1.394531 2.21875 -1.25 C 2.351562 -1.113281 2.421875 -0.953125 2.421875 -0.765625 C 2.421875 -0.609375 2.375 -0.460938 2.28125 -0.328125 C 2.1875 -0.203125 2.054688 -0.0976562 1.890625 -0.015625 C 1.722656 0.0546875 1.535156 0.09375 1.328125 0.09375 Z M 1.328125 0.09375 "/></g></g><g style="fill:#030f4f;fill-opacity:1;"><g transform="translate(91.11265, 38.824969)"><path style="stroke:none" d="M 1.40625 0.046875 C 1.300781 0.046875 1.195312 0.03125 1.09375 0 C 1 -0.0390625 0.921875 -0.09375 0.859375 -0.15625 C 0.785156 -0.226562 0.726562 -0.3125 0.6875 -0.40625 C 0.65625 -0.5 0.640625 -0.613281 0.640625 -0.75 L 0.640625 -2.34375 L 0.15625 -2.34375 L 0.15625 -2.765625 L 0.640625 -2.765625 L 0.640625 -3.59375 L 1.109375 -3.59375 L 1.109375 -2.765625 L 1.796875 -2.765625 L 1.796875 -2.34375 L 1.109375 -2.34375 L 1.109375 -0.859375 C 1.109375 -0.703125 1.140625 -0.585938 1.203125 -0.515625 C 1.273438 -0.429688 1.375 -0.390625 1.5 -0.390625 C 1.613281 -0.390625 1.710938 -0.414062 1.796875 -0.46875 L 1.796875 -0.015625 C 1.734375 0.00390625 1.675781 0.0195312 1.625 0.03125 C 1.570312 0.0390625 1.5 0.046875 1.40625 0.046875 Z M 1.40625 0.046875 "/></g></g><g style="fill:#030f4f;fill-opacity:1;"><g transform="translate(92.989047, 38.824969)"><path style="stroke:none" d="M 1.578125 0.09375 C 1.304688 0.09375 1.066406 0.03125 0.859375 -0.09375 C 0.648438 -0.226562 0.484375 -0.40625 0.359375 -0.625 C 0.242188 -0.84375 0.1875 -1.097656 0.1875 -1.390625 C 0.1875 -1.648438 0.242188 -1.890625 0.359375 -2.109375 C 0.472656 -2.335938 0.628906 -2.519531 0.828125 -2.65625 C 1.035156 -2.789062 1.273438 -2.859375 1.546875 -2.859375 C 1.816406 -2.859375 2.050781 -2.796875 2.25 -2.671875 C 2.457031 -2.554688 2.613281 -2.382812 2.71875 -2.15625 C 2.820312 -1.9375 2.875 -1.6875 2.875 -1.40625 C 2.875 -1.351562 2.867188 -1.316406 2.859375 -1.296875 L 0.671875 -1.296875 C 0.679688 -1.085938 0.726562 -0.910156 0.8125 -0.765625 C 0.90625 -0.617188 1.019531 -0.507812 1.15625 -0.4375 C 1.300781 -0.375 1.445312 -0.34375 1.59375 -0.34375 C 1.945312 -0.34375 2.21875 -0.515625 2.40625 -0.859375 L 2.828125 -0.65625 C 2.710938 -0.425781 2.546875 -0.242188 2.328125 -0.109375 C 2.117188 0.0234375 1.867188 0.09375 1.578125 0.09375 Z M 2.375 -1.6875 C 2.363281 -1.800781 2.332031 -1.910156 2.28125 -2.015625 C 2.226562 -2.128906 2.140625 -2.222656 2.015625 -2.296875 C 1.890625 -2.378906 1.734375 -2.421875 1.546875 -2.421875 C 1.328125 -2.421875 1.140625 -2.351562 0.984375 -2.21875 C 0.835938 -2.09375 0.742188 -1.914062 0.703125 -1.6875 Z M 2.375 -1.6875 "/></g></g><g style="fill:#030f4f;fill-opacity:1;"><g transform="translate(96.088453, 38.824969)"><path style="stroke:none" d="M 1.5 0.09375 C 1.269531 0.09375 1.050781 0.03125 0.84375 -0.09375 C 0.644531 -0.226562 0.484375 -0.40625 0.359375 -0.625 C 0.242188 -0.851562 0.1875 -1.109375 0.1875 -1.390625 C 0.1875 -1.660156 0.242188 -1.910156 0.359375 -2.140625 C 0.484375 -2.367188 0.644531 -2.546875 0.84375 -2.671875 C 1.050781 -2.796875 1.269531 -2.859375 1.5 -2.859375 C 1.71875 -2.859375 1.910156 -2.8125 2.078125 -2.71875 C 2.253906 -2.625 2.382812 -2.503906 2.46875 -2.359375 L 2.5 -2.359375 L 2.46875 -2.734375 L 2.46875 -4 L 2.9375 -4 L 2.9375 0 L 2.5 0 L 2.5 -0.40625 L 2.46875 -0.40625 C 2.382812 -0.257812 2.253906 -0.140625 2.078125 -0.046875 C 1.910156 0.046875 1.71875 0.09375 1.5 0.09375 Z M 1.578125 -0.34375 C 1.742188 -0.34375 1.894531 -0.382812 2.03125 -0.46875 C 2.175781 -0.550781 2.289062 -0.671875 2.375 -0.828125 C 2.457031 -0.992188 2.5 -1.179688 2.5 -1.390625 C 2.5 -1.597656 2.457031 -1.78125 2.375 -1.9375 C 2.289062 -2.09375 2.175781 -2.210938 2.03125 -2.296875 C 1.894531 -2.378906 1.742188 -2.421875 1.578125 -2.421875 C 1.410156 -2.421875 1.257812 -2.378906 1.125 -2.296875 C 0.988281 -2.210938 0.875 -2.09375 0.78125 -1.9375 C 0.695312 -1.78125 0.65625 -1.597656 0.65625 -1.390625 C 0.65625 -1.179688 0.695312 -0.992188 0.78125 -0.828125 C 0.875 -0.671875 0.988281 -0.550781 1.125 -0.46875 C 1.257812 -0.382812 1.410156 -0.34375 1.578125 -0.34375 Z M 1.578125 -0.34375 "/></g></g><g style="fill:#030f4f;fill-opacity:1;"><g transform="translate(99.383315, 38.824969)"><path style="stroke:none" d="M 0.65625 0.03125 C 0.550781 0.03125 0.460938 0 0.390625 -0.0625 C 0.328125 -0.132812 0.296875 -0.222656 0.296875 -0.328125 C 0.296875 -0.421875 0.328125 -0.5 0.390625 -0.5625 C 0.460938 -0.632812 0.550781 -0.671875 0.65625 -0.671875 C 0.757812 -0.671875 0.84375 -0.632812 0.90625 -0.5625 C 0.976562 -0.5 1.015625 -0.421875 1.015625 -0.328125 C 1.015625 -0.222656 0.976562 -0.132812 0.90625 -0.0625 C 0.84375 0 0.757812 0.03125 0.65625 0.03125 Z M 0.65625 0.03125 "/></g></g></g></svg>